Inter-BoldItalic.ufo
<glyph name="exclam" format="2">
  <advance width="914"/>
  <unicode hex="0021"/>
  <outline>
    <contour>
      <point x="889" y="2048" type="line"/>
      <point x="446" y="2048" type="line"/>
      <point x="249" y="614" type="line"/>
      <point x="613" y="614" type="line"/>
    </contour>
    <component base="period" xOffset="40"/>
  </outline>
</glyph>
<glyph name="numbersign" format="2">
  <advance width="1829"/>
  <unicode hex="0023"/>
  <note>
1. outline
2. slant 9.4 deg
3. remove extra shapes created by outlining
</note>
  <outline>
    <contour>
      <point x="970" y="0" type="line"/>
      <point x="1290" y="0" type="line"/>
      <point x="1662" y="2048" type="line"/>
      <point x="1342" y="2048" type="line"/>
    </contour>
    <contour>
      <point x="62" y="508" type="line"/>
      <point x="1662" y="508" type="line"/>
      <point x="1722" y="828" type="line"/>
      <point x="122" y="828" type="line"/>
    </contour>
    <contour>
      <point x="250" y="0" type="line"/>
      <point x="570" y="0" type="line"/>
      <point x="942" y="2048" type="line"/>
      <point x="622" y="2048" type="line"/>
    </contour>
    <contour>
      <point x="192" y="1220" type="line"/>
      <point x="1792" y="1220" type="line"/>
      <point x="1851" y="1540" type="line"/>
      <point x="251" y="1540" type="line"/>
    </contour>
  </outline>
</glyph>
<glyph name="percent" format="2">
  <advance width="2420"/>
  <unicode hex="0025"/>
  <outline>
    <contour>
      <point x="1223" y="384" type="line" smooth="yes"/>
      <point x="1184" y="138"/>
      <point x="1306" y="-71"/>
      <point x="1598" y="-71" type="curve" smooth="yes"/>
      <point x="1889" y="-71"/>
      <point x="2085" y="138"/>
      <point x="2125" y="384" type="curve" smooth="yes"/>
      <point x="2145" y="492" type="line" smooth="yes"/>
      <point x="2187" y="740"/>
      <point x="2064" y="947"/>
      <point x="1769" y="947" type="curve" smooth="yes"/>
      <point x="1480" y="947"/>
      <point x="1283" y="738"/>
      <point x="1243" y="492" type="curve" smooth="yes"/>
    </contour>
    <contour>
      <point x="1534" y="492" type="line" smooth="yes"/>
      <point x="1550" y="590"/>
      <point x="1607" y="691"/>
      <point x="1726" y="691" type="curve" smooth="yes"/>
      <point x="1852" y="691"/>
      <point x="1868" y="590"/>
      <point x="1852" y="492" type="curve" smooth="yes"/>
      <point x="1832" y="384" type="line" smooth="yes"/>
      <point x="1818" y="286"/>
      <point x="1763" y="187"/>
      <point x="1641" y="187" type="curve" smooth="yes"/>
      <point x="1520" y="187"/>
      <point x="1500" y="289"/>
      <point x="1514" y="384" type="curve" smooth="yes"/>
    </contour>
    <contour>
      <point x="368" y="1556" type="line" smooth="yes"/>
      <point x="327" y="1310"/>
      <point x="451" y="1103"/>
      <point x="743" y="1103" type="curve" smooth="yes"/>
      <point x="1034" y="1103"/>
      <point x="1228" y="1308"/>
      <point x="1270" y="1556" type="curve" smooth="yes"/>
      <point x="1286" y="1664" type="line" smooth="yes"/>
      <point x="1328" y="1912"/>
      <point x="1204" y="2119"/>
      <point x="910" y="2119" type="curve" smooth="yes"/>
      <point x="624" y="2119"/>
      <point x="426" y="1912"/>
      <point x="384" y="1664" type="curve" smooth="yes"/>
    </contour>
    <contour>
      <point x="677" y="1664" type="line" smooth="yes"/>
      <point x="693" y="1759"/>
      <point x="748" y="1863"/>
      <point x="867" y="1863" type="curve" smooth="yes"/>
      <point x="993" y="1863"/>
      <point x="1009" y="1762"/>
      <point x="993" y="1664" type="curve" smooth="yes"/>
      <point x="977" y="1556" type="line" smooth="yes"/>
      <point x="959" y="1458"/>
      <point x="908" y="1359"/>
      <point x="786" y="1359" type="curve" smooth="yes"/>
      <point x="667" y="1359"/>
      <point x="643" y="1458"/>
      <point x="661" y="1556" type="curve" smooth="yes"/>
    </contour>
    <component base="fraction" xOffset="782"/>
  </outline>
</glyph>
<glyph name="ampersand" format="2">
  <advance width="1898"/>
  <unicode hex="0026"/>
  <outline>
    <contour>
      <point x="666" y="-30" type="curve" smooth="yes"/>
      <point x="849" y="-30"/>
      <point x="1057" y="22"/>
      <point x="1226" y="144" type="curve" smooth="yes"/>
      <point x="1270" y="169"/>
      <point x="1314" y="191"/>
      <point x="1358" y="216" type="curve" smooth="yes"/>
      <point x="1572" y="361"/>
      <point x="1745" y="622"/>
      <point x="1805" y="999" type="curve"/>
      <point x="1452" y="999" type="line"/>
      <point x="1385" y="590"/>
      <point x="1032" y="312"/>
      <point x="745" y="312" type="curve" smooth="yes"/>
      <point x="566" y="312"/>
      <point x="470" y="422"/>
      <point x="492" y="568" type="curve" smooth="yes"/>
      <point x="505" y="646"/>
      <point x="575" y="735"/>
      <point x="700" y="818" type="curve" smooth="yes"/>
      <point x="1168" y="1119" type="line" smooth="yes"/>
      <point x="1361" y="1244"/>
      <point x="1487" y="1398"/>
      <point x="1518" y="1592" type="curve" smooth="yes"/>
      <point x="1564" y="1854"/>
      <point x="1396" y="2075"/>
      <point x="1066" y="2075" type="curve" smooth="yes"/>
      <point x="730" y="2075"/>
      <point x="471" y="1846"/>
      <point x="422" y="1549" type="curve" smooth="yes"/>
      <point x="378" y="1285"/>
      <point x="529" y="1085"/>
      <point x="659" y="902" type="curve" smooth="yes"/>
      <point x="1318" y="0" type="line"/>
      <point x="1762" y="0" type="line"/>
      <point x="976" y="1114" type="line" smooth="yes"/>
      <point x="865" y="1285"/>
      <point x="764" y="1413"/>
      <point x="782" y="1542" type="curve" smooth="yes"/>
      <point x="797" y="1647"/>
      <point x="894" y="1732"/>
      <point x="1011" y="1732" type="curve" smooth="yes"/>
      <point x="1133" y="1732"/>
      <point x="1187" y="1648"/>
      <point x="1173" y="1568" type="curve" smooth="yes"/>
      <point x="1157" y="1483"/>
      <point x="1100" y="1411"/>
      <point x="988" y="1346" type="curve" smooth="yes"/>
      <point x="548" y="1085" type="line" smooth="yes"/>
      <point x="295" y="930"/>
      <point x="115" y="786"/>
      <point x="77" y="544" type="curve" smooth="yes"/>
      <point x="24" y="222"/>
      <point x="241" y="-30"/>
    </contour>
  </outline>
</glyph>
<glyph name="quotesingle" format="2">
  <advance width="588"/>
  <unicode hex="0027"/>
  <outline>
    <contour>
      <point x="656" y="2048" type="line"/>
      <point x="352" y="2048" type="line"/>
      <point x="224" y="1270" type="line"/>
      <point x="528" y="1270" type="line"/>
    </contour>
  </outline>
</glyph>
<glyph name="parenleft" format="2">
  <advance width="1152"/>
  <unicode hex="0028"/>
  <outline>
    <contour>
      <point x="273" y="821" type="curve" smooth="yes"/>
      <point x="191" y="324"/>
      <point x="254" y="-89"/>
      <point x="467" y="-445" type="curve"/>
      <point x="874" y="-445" type="line"/>
      <point x="710" y="-181"/>
      <point x="636" y="347"/>
      <point x="716" y="821" type="curve" smooth="yes"/>
      <point x="796" y="1294"/>
      <point x="1041" y="1822"/>
      <point x="1294" y="2086" type="curve"/>
      <point x="886" y="2086" type="line"/>
      <point x="554" y="1730"/>
      <point x="354" y="1318"/>
    </contour>
  </outline>
</glyph>
<glyph name="asterisk" format="2">
  <advance width="1590"/>
  <unicode hex="002A"/>
  <note>
hexagonal angle: 30 deg
</note>
  <outline>
    <contour>
      <point x="681" y="896" type="line"/>
      <point x="950" y="896" type="line"/>
      <point x="990" y="1283" type="line"/>
      <point x="1278" y="1066" type="line"/>
      <point x="1453" y="1302" type="line"/>
      <point x="1131" y="1472" type="line"/>
      <point x="1506" y="1642" type="line"/>
      <point x="1410" y="1878" type="line"/>
      <point x="1051" y="1661" type="line"/>
      <point x="1142" y="2048" type="line"/>
      <point x="873" y="2048" type="line"/>
      <point x="834" y="1661" type="line"/>
      <point x="546" y="1878" type="line"/>
      <point x="371" y="1642" type="line"/>
      <point x="693" y="1472" type="line"/>
      <point x="318" y="1302" type="line"/>
      <point x="413" y="1066" type="line"/>
      <point x="773" y="1283" type="line"/>
    </contour>
  </outline>
</glyph>
<glyph name="plus" format="2">
  <advance width="1914"/>
  <unicode hex="002B"/>
  <outline>
    <contour>
      <point x="669" y="111" type="line"/>
      <point x="1028" y="111" type="line"/>
      <point x="1262" y="1527" type="line"/>
      <point x="902" y="1527" type="line"/>
    </contour>
    <contour>
      <point x="226" y="640" type="line"/>
      <point x="1642" y="640" type="line"/>
      <point x="1703" y="998" type="line"/>
      <point x="287" y="998" type="line"/>
    </contour>
  </outline>
</glyph>
<glyph name="comma" format="2">
  <advance width="853"/>
  <unicode hex="002C"/>
  <outline>
    <contour>
      <point x="553" y="280" type="line"/>
      <point x="201" y="280" type="line"/>
      <point x="176" y="168" type="line" smooth="yes"/>
      <point x="121" y="-104"/>
      <point x="-7" y="-386"/>
      <point x="-51" y="-500" type="curve"/>
      <point x="225" y="-500" type="line"/>
      <point x="291" y="-378"/>
      <point x="453" y="-94"/>
      <point x="522" y="170" type="curve" smooth="yes"/>
    </contour>
  </outline>
</glyph>
<glyph name="hyphen" format="2">
  <advance width="1320"/>
  <unicode hex="002D"/>
  <outline>
    <contour>
      <point x="1167" y="1010" type="line"/>
      <point x="232" y="1010" type="line"/>
      <point x="177" y="672" type="line"/>
      <point x="1112" y="672" type="line"/>
    </contour>
  </outline>
</glyph>
<glyph name="period" format="2">
  <advance width="838"/>
  <unicode hex="002E"/>
  <outline>
    <contour>
      <point x="310" y="-26" type="curve" smooth="yes"/>
      <point x="435" y="-26"/>
      <point x="556" y="81"/>
      <point x="566" y="214" type="curve" smooth="yes"/>
      <point x="577" y="344"/>
      <point x="474" y="450"/>
      <point x="346" y="450" type="curve" smooth="yes"/>
      <point x="213" y="450"/>
      <point x="95" y="346"/>
      <point x="86" y="214" type="curve" smooth="yes"/>
      <point x="78" y="81"/>
      <point x="175" y="-26"/>
    </contour>
  </outline>
</glyph>
<glyph name="slash" format="2">
  <advance width="1098"/>
  <unicode hex="002F"/>
  <outline>
    <contour>
      <point x="1290" y="2144" type="line"/>
      <point x="923" y="2144" type="line"/>
      <point x="-141" y="-308" type="line"/>
      <point x="226" y="-308" type="line"/>
    </contour>
  </outline>
</glyph>
<glyph name="zero" format="2">
  <advance width="1938"/>
  <unicode hex="0030"/>
  <outline>
    <contour>
      <point x="834" y="-45" type="curve" smooth="yes"/>
      <point x="1349" y="-45"/>
      <point x="1726" y="349"/>
      <point x="1838" y="1022" type="curve" smooth="yes"/>
      <point x="1949" y="1693"/>
      <point x="1698" y="2076"/>
      <point x="1185" y="2076" type="curve" smooth="yes"/>
      <point x="672" y="2076"/>
      <point x="296" y="1693"/>
      <point x="183" y="1022" type="curve" smooth="yes"/>
      <point x="70" y="349"/>
      <point x="318" y="-45"/>
    </contour>
    <contour>
      <point x="894" y="314" type="curve" smooth="yes"/>
      <point x="661" y="314"/>
      <point x="546" y="550"/>
      <point x="625" y="1022" type="curve" smooth="yes"/>
      <point x="702" y="1486"/>
      <point x="894" y="1721"/>
      <point x="1127" y="1721" type="curve" smooth="yes"/>
      <point x="1361" y="1721"/>
      <point x="1474" y="1486"/>
      <point x="1396" y="1022" type="curve" smooth="yes"/>
      <point x="1316" y="550"/>
      <point x="1130" y="314"/>
    </contour>
  </outline>
</glyph>
<glyph name="one" format="2">
  <advance width="1378"/>
  <unicode hex="0031"/>
  <outline>
    <contour>
      <point x="1269" y="2048" type="line"/>
      <point x="862" y="2048" type="line"/>
      <point x="302" y="1727" type="line"/>
      <point x="238" y="1343" type="line"/>
      <point x="756" y="1637" type="line"/>
      <point x="768" y="1637" type="line"/>
      <point x="496" y="0" type="line"/>
      <point x="929" y="0" type="line"/>
    </contour>
  </outline>
</glyph>
<glyph name="two" format="2">
  <advance width="1774"/>
  <unicode hex="0032"/>
  <outline>
    <contour>
      <point x="38" y="0" type="line"/>
      <point x="1498" y="0" type="line"/>
      <point x="1557" y="354" type="line"/>
      <point x="696" y="354" type="line"/>
      <point x="699" y="368" type="line"/>
      <point x="1046" y="661" type="line" smooth="yes"/>
      <point x="1532" y="1045"/>
      <point x="1676" y="1237"/>
      <point x="1716" y="1470" type="curve" smooth="yes"/>
      <point x="1775" y="1825"/>
      <point x="1528" y="2076"/>
      <point x="1089" y="2076" type="curve" smooth="yes"/>
      <point x="660" y="2076"/>
      <point x="319" y="1820"/>
      <point x="252" y="1417" type="curve"/>
      <point x="663" y="1417" type="line"/>
      <point x="696" y="1613"/>
      <point x="843" y="1733"/>
      <point x="1030" y="1733" type="curve" smooth="yes"/>
      <point x="1210" y="1733"/>
      <point x="1323" y="1622"/>
      <point x="1293" y="1441" type="curve" smooth="yes"/>
      <point x="1266" y="1279"/>
      <point x="1147" y="1166"/>
      <point x="931" y="987" type="curve" smooth="yes"/>
      <point x="91" y="312" type="line"/>
    </contour>
  </outline>
</glyph>
<glyph name="three" format="2">
  <advance width="1857"/>
  <unicode hex="0033"/>
  <outline>
    <contour>
      <point x="813" y="-28" type="curve" smooth="yes"/>
      <point x="1264" y="-28"/>
      <point x="1620" y="211"/>
      <point x="1676" y="552" type="curve" smooth="yes"/>
      <point x="1719" y="813"/>
      <point x="1565" y="1012"/>
      <point x="1290" y="1050" type="curve"/>
      <point x="1290" y="1065" type="line"/>
      <point x="1536" y="1105"/>
      <point x="1714" y="1241"/>
      <point x="1753" y="1476" type="curve" smooth="yes"/>
      <point x="1805" y="1796"/>
      <point x="1563" y="2076"/>
      <point x="1129" y="2076" type="curve" smooth="yes"/>
      <point x="721" y="2076"/>
      <point x="370" y="1829"/>
      <point x="308" y="1476" type="curve"/>
      <point x="721" y="1476" type="line"/>
      <point x="747" y="1632"/>
      <point x="928" y="1733"/>
      <point x="1107" y="1733" type="curve" smooth="yes"/>
      <point x="1282" y="1733"/>
      <point x="1363" y="1638"/>
      <point x="1339" y="1496" type="curve" smooth="yes"/>
      <point x="1311" y="1323"/>
      <point x="1147" y="1203"/>
      <point x="948" y="1203" type="curve" smooth="yes"/>
      <point x="768" y="1203" type="line"/>
      <point x="715" y="885" type="line"/>
      <point x="914" y="885" type="line" smooth="yes"/>
      <point x="1141" y="885"/>
      <point x="1265" y="789"/>
      <point x="1239" y="627" type="curve" smooth="yes"/>
      <point x="1213" y="457"/>
      <point x="1040" y="329"/>
      <point x="834" y="329" type="curve" smooth="yes"/>
      <point x="650" y="329"/>
      <point x="529" y="429"/>
      <point x="550" y="579" type="curve"/>
      <point x="120" y="579" type="line"/>
      <point x="64" y="220"/>
      <point x="352" y="-28"/>
    </contour>
  </outline>
</glyph>
<glyph name="four" format="2">
  <advance width="1909"/>
  <unicode hex="0034"/>
  <outline>
    <contour>
      <point x="67" y="360" type="line"/>
      <point x="1718" y="360" type="line"/>
      <point x="1775" y="707" type="line"/>
      <point x="561" y="707" type="line"/>
      <point x="563" y="723" type="line"/>
      <point x="1243" y="1576" type="line"/>
      <point x="1418" y="1576" type="line"/>
      <point x="1496" y="2048" type="line"/>
      <point x="1202" y="2048" type="line"/>
      <point x="123" y="701" type="line"/>
    </contour>
    <contour>
      <point x="990" y="0" type="line"/>
      <point x="1404" y="0" type="line"/>
      <point x="1744" y="2048" type="line"/>
      <point x="1338" y="2048" type="line"/>
      <point x="1101" y="614" type="line"/>
      <point x="1068" y="465" type="line"/>
    </contour>
  </outline>
</glyph>
<glyph name="five" format="2">
  <advance width="1815"/>
  <unicode hex="0035"/>
  <outline>
    <contour>
      <point x="782" y="-28" type="curve" smooth="yes"/>
      <point x="1240" y="-28"/>
      <point x="1598" y="270"/>
      <point x="1664" y="683" type="curve" smooth="yes"/>
      <point x="1730" y="1074"/>
      <point x="1505" y="1357"/>
      <point x="1135" y="1357" type="curve" smooth="yes"/>
      <point x="955" y="1357"/>
      <point x="789" y="1282"/>
      <point x="699" y="1181" type="curve"/>
      <point x="687" y="1181" type="line"/>
      <point x="826" y="1694" type="line"/>
      <point x="1720" y="1694" type="line"/>
      <point x="1778" y="2048" type="line"/>
      <point x="526" y="2048" type="line"/>
      <point x="249" y="968" type="line"/>
      <point x="623" y="899" type="line"/>
      <point x="701" y="983"/>
      <point x="831" y="1037"/>
      <point x="952" y="1037" type="curve" smooth="yes"/>
      <point x="1159" y="1037"/>
      <point x="1281" y="887"/>
      <point x="1246" y="672" type="curve" smooth="yes"/>
      <point x="1210" y="458"/>
      <point x="1042" y="312"/>
      <point x="838" y="312" type="curve" smooth="yes"/>
      <point x="666" y="312"/>
      <point x="545" y="422"/>
      <point x="561" y="579" type="curve"/>
      <point x="141" y="579" type="line"/>
      <point x="91" y="226"/>
      <point x="359" y="-28"/>
    </contour>
  </outline>
</glyph>
<glyph name="six" format="2">
  <advance width="1859"/>
  <unicode hex="0036"/>
  <outline>
    <contour>
      <point x="841" y="-28" type="curve" smooth="yes"/>
      <point x="1286" y="-30"/>
      <point x="1632" y="258"/>
      <point x="1700" y="663" type="curve" smooth="yes"/>
      <point x="1767" y="1058"/>
      <point x="1539" y="1347"/>
      <point x="1166" y="1347" type="curve" smooth="yes"/>
      <point x="947" y="1347"/>
      <point x="740" y="1249"/>
      <point x="618" y="1069" type="curve"/>
      <point x="602" y="1046" type="line"/>
      <point x="674" y="1459"/>
      <point x="870" y="1711"/>
      <point x="1142" y="1711" type="curve" smooth="yes"/>
      <point x="1294" y="1711"/>
      <point x="1390" y="1631"/>
      <point x="1393" y="1478" type="curve"/>
      <point x="1811" y="1478" type="line"/>
      <point x="1826" y="1824"/>
      <point x="1576" y="2082"/>
      <point x="1166" y="2082" type="curve" smooth="yes"/>
      <point x="668" y="2082"/>
      <point x="288" y="1685"/>
      <point x="174" y="1001" type="curve" smooth="yes"/>
      <point x="47" y="242"/>
      <point x="409" y="-27"/>
    </contour>
    <contour>
      <point x="856" y="312" type="curve" smooth="yes"/>
      <point x="663" y="312"/>
      <point x="552" y="458"/>
      <point x="582" y="650" type="curve" smooth="yes"/>
      <point x="615" y="861"/>
      <point x="807" y="1034"/>
      <point x="1015" y="1034" type="curve" smooth="yes"/>
      <point x="1207" y="1034"/>
      <point x="1317" y="888"/>
      <point x="1286" y="698" type="curve" smooth="yes"/>
      <point x="1254" y="480"/>
      <point x="1065" y="312"/>
    </contour>
  </outline>
</glyph>
<glyph name="seven" format="2">
  <advance width="1675"/>
  <unicode hex="0037"/>
  <outline>
    <contour>
      <point x="119" y="0" type="line"/>
      <point x="566" y="0" type="line"/>
      <point x="1697" y="1689" type="line"/>
      <point x="1756" y="2048" type="line"/>
      <point x="319" y="2048" type="line"/>
      <point x="262" y="1694" type="line"/>
      <point x="1250" y="1694" type="line"/>
      <point x="1246" y="1680" type="line"/>
    </contour>
  </outline>
</glyph>
<glyph name="eight" format="2">
  <advance width="1858"/>
  <unicode hex="0038"/>
  <note>
essentially two conjoined "three" glyphs
</note>
  <outline>
    <contour>
      <point x="802" y="-28" type="curve" smooth="yes"/>
      <point x="1260" y="-28"/>
      <point x="1629" y="216"/>
      <point x="1685" y="545" type="curve" smooth="yes"/>
      <point x="1729" y="803"/>
      <point x="1564" y="1015"/>
      <point x="1323" y="1057" type="curve"/>
      <point x="1323" y="1070" type="line"/>
      <point x="1547" y="1113"/>
      <point x="1733" y="1290"/>
      <point x="1770" y="1518" type="curve" smooth="yes"/>
      <point x="1823" y="1838"/>
      <point x="1554" y="2076"/>
      <point x="1138" y="2076" type="curve" smooth="yes"/>
      <point x="726" y="2076"/>
      <point x="390" y="1847"/>
      <point x="335" y="1531" type="curve" smooth="yes"/>
      <point x="296" y="1305"/>
      <point x="414" y="1114"/>
      <point x="622" y="1070" type="curve"/>
      <point x="622" y="1057" type="line"/>
      <point x="369" y="1017"/>
      <point x="140" y="809"/>
      <point x="98" y="558" type="curve" smooth="yes"/>
      <point x="41" y="224"/>
      <point x="337" y="-28"/>
    </contour>
    <contour>
      <point x="844" y="290" type="curve" smooth="yes"/>
      <point x="643" y="290"/>
      <point x="525" y="407"/>
      <point x="553" y="578" type="curve" smooth="yes"/>
      <point x="582" y="759"/>
      <point x="751" y="890"/>
      <point x="953" y="890" type="curve" smooth="yes"/>
      <point x="1148" y="890"/>
      <point x="1271" y="768"/>
      <point x="1242" y="591" type="curve" smooth="yes"/>
      <point x="1214" y="415"/>
      <point x="1054" y="290"/>
    </contour>
    <contour>
      <point x="994" y="1205" type="curve" smooth="yes"/>
      <point x="825" y="1205"/>
      <point x="720" y="1313"/>
      <point x="747" y="1474" type="curve" smooth="yes"/>
      <point x="774" y="1637"/>
      <point x="918" y="1750"/>
      <point x="1098" y="1750" type="curve" smooth="yes"/>
      <point x="1270" y="1750"/>
      <point x="1370" y="1647"/>
      <point x="1342" y="1486" type="curve" smooth="yes"/>
      <point x="1314" y="1323"/>
      <point x="1172" y="1205"/>
    </contour>
  </outline>
</glyph>
<glyph name="nine" format="2">
  <advance width="1859"/>
  <unicode hex="0039"/>
  <note>
six mirrored
</note>
  <outline>
    <contour>
      <point x="1106" y="2082" type="curve" smooth="yes"/>
      <point x="662" y="2084"/>
      <point x="315" y="1797"/>
      <point x="247" y="1391" type="curve" smooth="yes"/>
      <point x="181" y="997"/>
      <point x="409" y="707"/>
      <point x="782" y="707" type="curve" smooth="yes"/>
      <point x="1001" y="707"/>
      <point x="1208" y="806"/>
      <point x="1330" y="986" type="curve"/>
      <point x="1346" y="1009" type="line"/>
      <point x="1274" y="595"/>
      <point x="1078" y="343"/>
      <point x="806" y="343" type="curve" smooth="yes"/>
      <point x="652" y="343"/>
      <point x="557" y="422"/>
      <point x="554" y="576" type="curve"/>
      <point x="136" y="576" type="line"/>
      <point x="122" y="230"/>
      <point x="371" y="-28"/>
      <point x="781" y="-28" type="curve" smooth="yes"/>
      <point x="1279" y="-28"/>
      <point x="1660" y="370"/>
      <point x="1774" y="1054" type="curve" smooth="yes"/>
      <point x="1901" y="1813"/>
      <point x="1539" y="2081"/>
    </contour>
    <contour>
      <point x="1091" y="1742" type="curve" smooth="yes"/>
      <point x="1285" y="1742"/>
      <point x="1395" y="1595"/>
      <point x="1366" y="1405" type="curve" smooth="yes"/>
      <point x="1332" y="1194"/>
      <point x="1141" y="1021"/>
      <point x="932" y="1021" type="curve" smooth="yes"/>
      <point x="740" y="1021"/>
      <point x="630" y="1166"/>
      <point x="661" y="1357" type="curve" smooth="yes"/>
      <point x="692" y="1574"/>
      <point x="883" y="1742"/>
    </contour>
  </outline>
</glyph>
<glyph name="less" format="2">
  <advance width="1914"/>
  <unicode hex="003C"/>
  <note>
Recipe: Make rect and rotate 63deg (regular) or 69deg (black)
</note>
  <guideline x="393" y="1064" angle="0.0"/>
  <outline>
    <contour>
      <point x="232" y="643" type="line"/>
      <point x="1537" y="23" type="line"/>
      <point x="1605" y="428" type="line"/>
      <point x="702" y="815" type="line"/>
      <point x="713" y="794" type="line"/>
      <point x="722" y="844" type="line"/>
      <point x="706" y="823" type="line"/>
      <point x="1734" y="1210" type="line"/>
      <point x="1800" y="1615" type="line"/>
      <point x="291" y="995" type="line"/>
    </contour>
  </outline>
</glyph>
<glyph name="equal" format="2">
  <advance width="1914"/>
  <unicode hex="003D"/>
  <outline>
    <contour>
      <point x="300" y="974" type="line"/>
      <point x="1681" y="974" type="line"/>
      <point x="1741" y="1329" type="line"/>
      <point x="360" y="1329" type="line"/>
    </contour>
    <contour>
      <point x="191" y="310" type="line"/>
      <point x="1572" y="310" type="line"/>
      <point x="1630" y="665" type="line"/>
      <point x="249" y="665" type="line"/>
    </contour>
  </outline>
</glyph>
<glyph name="greater" format="2">
  <advance width="1914"/>
  <unicode hex="003E"/>
  <outline>
    <contour>
      <point x="1660" y="643" type="line"/>
      <point x="1719" y="995" type="line"/>
      <point x="412" y="1615" type="line"/>
      <point x="346" y="1210" type="line"/>
      <point x="1246" y="823" type="line"/>
      <point x="1236" y="844" type="line"/>
      <point x="1227" y="794" type="line"/>
      <point x="1242" y="815" type="line"/>
      <point x="217" y="428" type="line"/>
      <point x="149" y="23" type="line"/>
    </contour>
  </outline>
</glyph>
<glyph name="question" format="2">
  <advance width="1584"/>
  <unicode hex="003F"/>
  <outline>
    <contour>
      <point x="511" y="614" type="line"/>
      <point x="890" y="614" type="line"/>
      <point x="897" y="653" type="line" smooth="yes"/>
      <point x="931" y="845"/>
      <point x="1018" y="936"/>
      <point x="1190" y="1030" type="curve" smooth="yes"/>
      <point x="1396" y="1138"/>
      <point x="1541" y="1287"/>
      <point x="1579" y="1522" type="curve" smooth="yes"/>
      <point x="1637" y="1872"/>
      <point x="1389" y="2076"/>
      <point x="994" y="2076" type="curve" smooth="yes"/>
      <point x="629" y="2076"/>
      <point x="302" y="1886"/>
      <point x="228" y="1486" type="curve"/>
      <point x="636" y="1486" type="line"/>
      <point x="666" y="1650"/>
      <point x="805" y="1736"/>
      <point x="935" y="1736" type="curve" smooth="yes"/>
      <point x="1070" y="1736"/>
      <point x="1162" y="1646"/>
      <point x="1140" y="1507" type="curve" smooth="yes"/>
      <point x="1120" y="1376"/>
      <point x="1009" y="1290"/>
      <point x="874" y="1211" type="curve" smooth="yes"/>
      <point x="691" y="1106"/>
      <point x="577" y="999"/>
      <point x="518" y="653" type="curve" smooth="yes"/>
    </contour>
    <component base="period" xOffset="312"/>
  </outline>
</glyph>
<glyph name="at" format="2">
  <advance width="2902"/>
  <unicode hex="0040"/>
  <outline>
    <contour>
      <point x="1286" y="-590" type="curve" smooth="yes"/>
      <point x="1570" y="-590"/>
      <point x="1860" y="-523"/>
      <point x="1999" y="-452" type="curve"/>
      <point x="1947" y="-162" type="line"/>
      <point x="1832" y="-206"/>
      <point x="1595" y="-264"/>
      <point x="1364" y="-264" type="curve" smooth="yes"/>
      <point x="712" y="-264"/>
      <point x="415" y="82"/>
      <point x="518" y="714" type="curve" smooth="yes"/>
      <point x="613" y="1286"/>
      <point x="1010" y="1717"/>
      <point x="1675" y="1717" type="curve" smooth="yes"/>
      <point x="2156" y="1717"/>
      <point x="2567" y="1487"/>
      <point x="2461" y="859" type="curve" smooth="yes"/>
      <point x="2398" y="468"/>
      <point x="2296" y="290"/>
      <point x="2158" y="290" type="curve" smooth="yes"/>
      <point x="2090" y="290"/>
      <point x="2056" y="342"/>
      <point x="2069" y="435" type="curve" smooth="yes"/>
      <point x="2230" y="1411" type="line"/>
      <point x="1918" y="1411" type="line"/>
      <point x="1900" y="1299" type="line"/>
      <point x="1886" y="1299" type="line"/>
      <point x="1865" y="1387"/>
      <point x="1668" y="1470"/>
      <point x="1437" y="1436" type="curve" smooth="yes"/>
      <point x="1163" y="1397"/>
      <point x="840" y="1178"/>
      <point x="762" y="714" type="curve" smooth="yes"/>
      <point x="684" y="243"/>
      <point x="915" y="2"/>
      <point x="1226" y="-15" type="curve" smooth="yes"/>
      <point x="1451" y="-28"/>
      <point x="1672" y="67"/>
      <point x="1738" y="188" type="curve"/>
      <point x="1750" y="188" type="line"/>
      <point x="1749" y="50"/>
      <point x="1825" y="-44"/>
      <point x="2060" y="-27" type="curve" smooth="yes"/>
      <point x="2497" y="-3"/>
      <point x="2719" y="345"/>
      <point x="2798" y="836" type="curve" smooth="yes"/>
      <point x="2916" y="1547"/>
      <point x="2528" y="2039"/>
      <point x="1734" y="2039" type="curve" smooth="yes"/>
      <point x="874" y="2039"/>
      <point x="293" y="1506"/>
      <point x="159" y="702" type="curve" smooth="yes"/>
      <point x="26" y="-115"/>
      <point x="435" y="-590"/>
    </contour>
    <contour>
      <point x="1390" y="314" type="curve" smooth="yes"/>
      <point x="1129" y="314"/>
      <point x="1075" y="514"/>
      <point x="1109" y="726" type="curve" smooth="yes"/>
      <point x="1148" y="954"/>
      <point x="1297" y="1103"/>
      <point x="1519" y="1103" type="curve" smooth="yes"/>
      <point x="1772" y="1103"/>
      <point x="1824" y="969"/>
      <point x="1786" y="729" type="curve" smooth="yes"/>
      <point x="1744" y="457"/>
      <point x="1636" y="314"/>
    </contour>
  </outline>
</glyph>
<glyph name="A" format="2">
  <advance width="2106"/>
  <unicode hex="0041"/>
  <outline>
    <contour>
      <point x="403" y="0" type="line"/>
      <point x="1181" y="1580" type="line"/>
      <point x="1197" y="1580" type="line"/>
      <point x="1446" y="0" type="line"/>
      <point x="1910" y="0" type="line"/>
      <point x="1544" y="2048" type="line"/>
      <point x="986" y="2048" type="line"/>
      <point x="-61" y="0" type="line"/>
    </contour>
    <contour>
      <point x="509" y="805" type="line"/>
      <point x="451" y="467" type="line"/>
      <point x="1547" y="467" type="line"/>
      <point x="1605" y="805" type="line"/>
    </contour>
  </outline>
</glyph>
<glyph name="B" format="2">
  <advance width="1861"/>
  <unicode hex="0042"/>
  <outline>
    <contour>
      <point x="50" y="0" type="line"/>
      <point x="925" y="0" type="line" smooth="yes"/>
      <point x="1385" y="0"/>
      <point x="1670" y="241"/>
      <point x="1725" y="566" type="curve" smooth="yes"/>
      <point x="1774" y="868"/>
      <point x="1588" y="1054"/>
      <point x="1356" y="1063" type="curve"/>
      <point x="1360" y="1083" type="line"/>
      <point x="1578" y="1131"/>
      <point x="1762" y="1283"/>
      <point x="1803" y="1523" type="curve" smooth="yes"/>
      <point x="1855" y="1830"/>
      <point x="1662" y="2048"/>
      <point x="1210" y="2048" type="curve" smooth="yes"/>
      <point x="390" y="2048" type="line"/>
    </contour>
    <contour>
      <point x="543" y="354" type="line"/>
      <point x="632" y="898" type="line"/>
      <point x="994" y="898" type="line" smooth="yes"/>
      <point x="1205" y="898"/>
      <point x="1312" y="778"/>
      <point x="1285" y="609" type="curve" smooth="yes"/>
      <point x="1260" y="455"/>
      <point x="1136" y="354"/>
      <point x="896" y="354" type="curve" smooth="yes"/>
    </contour>
    <contour>
      <point x="682" y="1191" type="line"/>
      <point x="766" y="1698" type="line"/>
      <point x="1094" y="1698" type="line" smooth="yes"/>
      <point x="1285" y="1698"/>
      <point x="1378" y="1600"/>
      <point x="1354" y="1451" type="curve" smooth="yes"/>
      <point x="1329" y="1290"/>
      <point x="1179" y="1191"/>
      <point x="1003" y="1191" type="curve" smooth="yes"/>
    </contour>
  </outline>
</glyph>
<glyph name="C" format="2">
  <advance width="2118"/>
  <unicode hex="0043"/>
  <outline>
    <contour>
      <point x="2076" y="1331" type="line"/>
      <point x="2096" y="1804"/>
      <point x="1777" y="2076"/>
      <point x="1289" y="2076" type="curve" smooth="yes"/>
      <point x="761" y="2076"/>
      <point x="299" y="1709"/>
      <point x="189" y="1050" type="curve" smooth="yes"/>
      <point x="78" y="370"/>
      <point x="429" y="-28"/>
      <point x="988" y="-28" type="curve" smooth="yes"/>
      <point x="1502" y="-28"/>
      <point x="1863" y="323"/>
      <point x="1973" y="700" type="curve"/>
      <point x="1538" y="700" type="line"/>
      <point x="1461" y="483"/>
      <point x="1257" y="355"/>
      <point x="1011" y="355" type="curve" smooth="yes"/>
      <point x="713" y="355"/>
      <point x="550" y="573"/>
      <point x="620" y="998" type="curve" smooth="yes"/>
      <point x="693" y="1438"/>
      <point x="954" y="1693"/>
      <point x="1282" y="1693" type="curve" smooth="yes"/>
      <point x="1509" y="1693"/>
      <point x="1649" y="1558"/>
      <point x="1644" y="1331" type="curve"/>
    </contour>
  </outline>
</glyph>
<glyph name="D" format="2">
  <advance width="2048"/>
  <unicode hex="0044"/>
  <note>
!post:RemoveOverlap
</note>
  <outline>
    <contour>
      <point x="786" y="0" type="line" smooth="yes"/>
      <point x="1410" y="0"/>
      <point x="1840" y="373"/>
      <point x="1944" y="1002" type="curve" smooth="yes"/>
      <point x="2052" y="1651"/>
      <point x="1730" y="2048"/>
      <point x="1112" y="2048" type="curve" smooth="yes"/>
      <point x="574" y="2048" type="line"/>
      <point x="511" y="1677" type="line"/>
      <point x="1047" y="1677" type="line" smooth="yes"/>
      <point x="1431" y="1677"/>
      <point x="1595" y="1494"/>
      <point x="1521" y="1049" type="curve" smooth="yes"/>
      <point x="1444" y="582"/>
      <point x="1197" y="371"/>
      <point x="811" y="371" type="curve" smooth="yes"/>
      <point x="306" y="371" type="line"/>
      <point x="243" y="0" type="line"/>
    </contour>
    <contour>
      <point x="823" y="2048" type="line"/>
      <point x="390" y="2048" type="line"/>
      <point x="50" y="0" type="line"/>
      <point x="483" y="0" type="line"/>
    </contour>
  </outline>
</glyph>
<glyph name="E" format="2">
  <advance width="1725"/>
  <unicode hex="0045"/>
  <outline>
    <contour>
      <point x="50" y="0" type="line"/>
      <point x="1434" y="0" type="line"/>
      <point x="1494" y="357" type="line"/>
      <point x="543" y="357" type="line"/>
      <point x="623" y="846" type="line"/>
      <point x="1499" y="846" type="line"/>
      <point x="1559" y="1203" type="line"/>
      <point x="683" y="1203" type="line"/>
      <point x="763" y="1691" type="line"/>
      <point x="1710" y="1691" type="line"/>
      <point x="1770" y="2048" type="line"/>
      <point x="390" y="2048" type="line"/>
    </contour>
  </outline>
</glyph>
<glyph name="F" format="2">
  <advance width="1647"/>
  <unicode hex="0046"/>
  <outline>
    <contour>
      <point x="50" y="0" type="line"/>
      <point x="483" y="0" type="line"/>
      <point x="623" y="846" type="line"/>
      <point x="1456" y="846" type="line"/>
      <point x="1516" y="1203" type="line"/>
      <point x="683" y="1203" type="line"/>
      <point x="763" y="1691" type="line"/>
      <point x="1686" y="1691" type="line"/>
      <point x="1746" y="2048" type="line"/>
      <point x="390" y="2048" type="line"/>
    </contour>
  </outline>
</glyph>
<glyph name="G" format="2">
  <advance width="2142"/>
  <unicode hex="0047"/>
  <outline>
    <contour>
      <point x="1638" y="1386" type="curve"/>
      <point x="2078" y="1386" type="line"/>
      <point x="2090" y="1791"/>
      <point x="1780" y="2076"/>
      <point x="1317" y="2076" type="curve" smooth="yes"/>
      <point x="776" y="2076"/>
      <point x="293" y="1686"/>
      <point x="184" y="1022" type="curve" smooth="yes"/>
      <point x="77" y="374"/>
      <point x="401" y="-28"/>
      <point x="977" y="-28" type="curve" smooth="yes"/>
      <point x="1494" y="-28"/>
      <point x="1919" y="298"/>
      <point x="2006" y="838" type="curve" smooth="yes"/>
      <point x="2050" y="1096" type="line"/>
      <point x="1193" y="1096" type="line"/>
      <point x="1139" y="770" type="line"/>
      <point x="1666" y="770" type="line"/>
      <point x="1580" y="783" type="line"/>
      <point x="1538" y="522"/>
      <point x="1323" y="355"/>
      <point x="1029" y="355" type="curve" smooth="yes"/>
      <point x="705" y="355"/>
      <point x="554" y="598"/>
      <point x="625" y="1026" type="curve" smooth="yes"/>
      <point x="695" y="1452"/>
      <point x="968" y="1693"/>
      <point x="1282" y="1693" type="curve" smooth="yes"/>
      <point x="1504" y="1693"/>
      <point x="1616" y="1578"/>
    </contour>
  </outline>
</glyph>
<glyph name="H" format="2">
  <advance width="2101"/>
  <unicode hex="0048"/>
  <outline>
    <contour>
      <point x="50" y="0" type="line"/>
      <point x="483" y="0" type="line"/>
      <point x="623" y="846" type="line"/>
      <point x="1502" y="846" type="line"/>
      <point x="1362" y="0" type="line"/>
      <point x="1794" y="0" type="line"/>
      <point x="2134" y="2048" type="line"/>
      <point x="1702" y="2048" type="line"/>
      <point x="1562" y="1203" type="line"/>
      <point x="683" y="1203" type="line"/>
      <point x="823" y="2048" type="line"/>
      <point x="390" y="2048" type="line"/>
    </contour>
  </outline>
</glyph>
<glyph name="I" format="2">
  <advance width="790"/>
  <unicode hex="0049"/>
  <outline>
    <contour>
      <point x="823" y="2048" type="line"/>
      <point x="390" y="2048" type="line"/>
      <point x="50" y="0" type="line"/>
      <point x="483" y="0" type="line"/>
    </contour>
  </outline>
</glyph>
<glyph name="J" format="2">
  <advance width="1605"/>
  <unicode hex="004A"/>
  <outline>
    <contour>
      <point x="1210" y="2048" type="line"/>
      <point x="975" y="623" type="line" smooth="yes"/>
      <point x="941" y="427"/>
      <point x="830" y="319"/>
      <point x="668" y="319" type="curve" smooth="yes"/>
      <point x="518" y="319"/>
      <point x="440" y="410"/>
      <point x="462" y="576" type="curve"/>
      <point x="34" y="576" type="line"/>
      <point x="-33" y="168"/>
      <point x="229" y="-28"/>
      <point x="602" y="-28" type="curve" smooth="yes"/>
      <point x="1019" y="-28"/>
      <point x="1335" y="220"/>
      <point x="1402" y="617" type="curve" smooth="yes"/>
      <point x="1638" y="2048" type="line"/>
    </contour>
  </outline>
</glyph>
<glyph name="K" format="2">
  <advance width="1942"/>
  <unicode hex="004B"/>
  <outline>
    <contour>
      <point x="50" y="0" type="line"/>
      <point x="483" y="0" type="line"/>
      <point x="581" y="580" type="line"/>
      <point x="839" y="842" type="line"/>
      <point x="1257" y="0" type="line"/>
      <point x="1775" y="0" type="line"/>
      <point x="1197" y="1131" type="line"/>
      <point x="2106" y="2048" type="line"/>
      <point x="1587" y="2048" type="line"/>
      <point x="701" y="1145" type="line"/>
      <point x="674" y="1145" type="line"/>
      <point x="823" y="2048" type="line"/>
      <point x="390" y="2048" type="line"/>
    </contour>
  </outline>
</glyph>
<glyph name="L" format="2">
  <advance width="1598"/>
  <unicode hex="004C"/>
  <outline>
    <contour>
      <point x="50" y="0" type="line"/>
      <point x="1361" y="0" type="line"/>
      <point x="1421" y="357" type="line"/>
      <point x="543" y="357" type="line"/>
      <point x="823" y="2048" type="line"/>
      <point x="390" y="2048" type="line"/>
    </contour>
  </outline>
</glyph>
<glyph name="M" format="2">
  <advance width="2576"/>
  <unicode hex="004D"/>
  <outline>
    <contour>
      <point x="390" y="2048" type="line"/>
      <point x="50" y="0" type="line"/>
      <point x="470" y="0" type="line"/>
      <point x="694" y="1338" type="line"/>
      <point x="711" y="1338" type="line"/>
      <point x="1019" y="10" type="line"/>
      <point x="1306" y="10" type="line"/>
      <point x="2054" y="1333" type="line"/>
      <point x="2072" y="1333" type="line"/>
      <point x="1850" y="0" type="line"/>
      <point x="2270" y="0" type="line"/>
      <point x="2610" y="2048" type="line"/>
      <point x="2076" y="2048" type="line"/>
      <point x="1285" y="672" type="line"/>
      <point x="1261" y="672" type="line"/>
      <point x="924" y="2048" type="line"/>
    </contour>
  </outline>
</glyph>
<glyph name="N" format="2">
  <advance width="2070"/>
  <unicode hex="004E"/>
  <outline>
    <contour>
      <point x="2103" y="2048" type="line"/>
      <point x="1672" y="2048" type="line"/>
      <point x="1459" y="760" type="line"/>
      <point x="1442" y="760" type="line"/>
      <point x="770" y="2048" type="line"/>
      <point x="390" y="2048" type="line"/>
      <point x="50" y="0" type="line"/>
      <point x="483" y="0" type="line"/>
      <point x="698" y="1289" type="line"/>
      <point x="714" y="1289" type="line"/>
      <point x="1389" y="0" type="line"/>
      <point x="1763" y="0" type="line"/>
    </contour>
  </outline>
</glyph>
<glyph name="O" format="2">
  <advance width="2202"/>
  <unicode hex="004F"/>
  <outline>
    <contour>
      <point x="2098" y="996" type="curve" smooth="yes"/>
      <point x="2210" y="1678"/>
      <point x="1850" y="2076"/>
      <point x="1295" y="2076" type="curve" smooth="yes"/>
      <point x="761" y="2076"/>
      <point x="296" y="1704"/>
      <point x="188" y="1047" type="curve" smooth="yes"/>
      <point x="75" y="367"/>
      <point x="436" y="-28"/>
      <point x="994" y="-28" type="curve" smooth="yes"/>
      <point x="1525" y="-28"/>
      <point x="1987" y="339"/>
    </contour>
    <contour>
      <point x="1667" y="1047" type="curve" smooth="yes"/>
      <point x="1594" y="603"/>
      <point x="1337" y="355"/>
      <point x="1010" y="355" type="curve" smooth="yes"/>
      <point x="710" y="355"/>
      <point x="545" y="573"/>
      <point x="618" y="996" type="curve" smooth="yes"/>
      <point x="690" y="1440"/>
      <point x="949" y="1693"/>
      <point x="1278" y="1693" type="curve" smooth="yes"/>
      <point x="1580" y="1693"/>
      <point x="1736" y="1468"/>
    </contour>
  </outline>
</glyph>
<glyph name="P" format="2">
  <advance width="1822"/>
  <unicode hex="0050"/>
  <outline>
    <contour>
      <point x="50" y="0" type="line"/>
      <point x="483" y="0" type="line"/>
      <point x="766" y="1694" type="line"/>
      <point x="1058" y="1694" type="line" smooth="yes"/>
      <point x="1308" y="1694"/>
      <point x="1404" y="1559"/>
      <point x="1371" y="1354" type="curve" smooth="yes"/>
      <point x="1338" y="1151"/>
      <point x="1195" y="1011"/>
      <point x="944" y="1011" type="curve" smooth="yes"/>
      <point x="499" y="1011" type="line"/>
      <point x="442" y="664" type="line"/>
      <point x="957" y="664" type="line" smooth="yes"/>
      <point x="1430" y="664"/>
      <point x="1750" y="944"/>
      <point x="1817" y="1354" type="curve" smooth="yes"/>
      <point x="1884" y="1762"/>
      <point x="1663" y="2048"/>
      <point x="1198" y="2048" type="curve" smooth="yes"/>
      <point x="390" y="2048" type="line"/>
    </contour>
  </outline>
</glyph>
<glyph name="Q" format="2">
  <advance width="2218"/>
  <unicode hex="0051"/>
  <outline>
    <contour>
      <point x="934" y="712" type="line"/>
      <point x="1210" y="294" type="line"/>
      <point x="1310" y="122" type="line"/>
      <point x="1517" y="-168" type="line"/>
      <point x="1921" y="-168" type="line"/>
      <point x="1619" y="262" type="line"/>
      <point x="1468" y="474" type="line"/>
      <point x="1302" y="712" type="line"/>
    </contour>
    <component base="O"/>
  </outline>
</glyph>
<glyph name="R" format="2">
  <advance width="1865"/>
  <unicode hex="0052"/>
  <outline>
    <contour>
      <point x="50" y="0" type="line"/>
      <point x="483" y="0" type="line"/>
      <point x="766" y="1694" type="line"/>
      <point x="1058" y="1694" type="line" smooth="yes"/>
      <point x="1306" y="1694"/>
      <point x="1408" y="1584"/>
      <point x="1375" y="1379" type="curve" smooth="yes"/>
      <point x="1342" y="1176"/>
      <point x="1205" y="1074"/>
      <point x="956" y="1074" type="curve" smooth="yes"/>
      <point x="486" y="1074" type="line"/>
      <point x="426" y="726" type="line"/>
      <point x="967" y="726" type="line" smooth="yes"/>
      <point x="1438" y="726"/>
      <point x="1754" y="971"/>
      <point x="1821" y="1379" type="curve" smooth="yes"/>
      <point x="1888" y="1786"/>
      <point x="1663" y="2048"/>
      <point x="1198" y="2048" type="curve" smooth="yes"/>
      <point x="390" y="2048" type="line"/>
    </contour>
    <contour>
      <point x="1310" y="932" type="line"/>
      <point x="843" y="932" type="line"/>
      <point x="1187" y="0" type="line"/>
      <point x="1665" y="0" type="line"/>
    </contour>
  </outline>
</glyph>
<glyph name="S" format="2">
  <advance width="1844"/>
  <unicode hex="0053"/>
  <note>
recipe: use stroke + offset curve filter with 32, no autostroke
</note>
  <outline>
    <contour>
      <point x="1401" y="1453" type="curve"/>
      <point x="1816" y="1453" type="line"/>
      <point x="1871" y="1825"/>
      <point x="1614" y="2076"/>
      <point x="1158" y="2076" type="curve" smooth="yes"/>
      <point x="709" y="2076"/>
      <point x="341" y="1829"/>
      <point x="278" y="1456" type="curve" smooth="yes"/>
      <point x="230" y="1154"/>
      <point x="414" y="982"/>
      <point x="744" y="898" type="curve" smooth="yes"/>
      <point x="958" y="842" type="line" smooth="yes"/>
      <point x="1173" y="790"/>
      <point x="1288" y="723"/>
      <point x="1264" y="586" type="curve" smooth="yes"/>
      <point x="1240" y="437"/>
      <point x="1082" y="334"/>
      <point x="860" y="334" type="curve" smooth="yes"/>
      <point x="635" y="334"/>
      <point x="488" y="438"/>
      <point x="510" y="643" type="curve"/>
      <point x="91" y="643" type="line"/>
      <point x="28" y="202"/>
      <point x="310" y="-29"/>
      <point x="805" y="-29" type="curve" smooth="yes"/>
      <point x="1306" y="-29"/>
      <point x="1638" y="210"/>
      <point x="1701" y="585" type="curve" smooth="yes"/>
      <point x="1758" y="926"/>
      <point x="1529" y="1107"/>
      <point x="1187" y="1187" type="curve" smooth="yes"/>
      <point x="1011" y="1231" type="line" smooth="yes"/>
      <point x="841" y="1271"/>
      <point x="700" y="1339"/>
      <point x="729" y="1485" type="curve" smooth="yes"/>
      <point x="751" y="1618"/>
      <point x="883" y="1714"/>
      <point x="1095" y="1714" type="curve" smooth="yes"/>
      <point x="1302" y="1714"/>
      <point x="1408" y="1620"/>
    </contour>
  </outline>
</glyph>
<glyph name="T" format="2">
  <advance width="1882"/>
  <unicode hex="0054"/>
  <outline>
    <contour>
      <point x="252" y="1691" type="line"/>
      <point x="879" y="1691" type="line"/>
      <point x="599" y="0" type="line"/>
      <point x="1027" y="0" type="line"/>
      <point x="1307" y="1691" type="line"/>
      <point x="1934" y="1691" type="line"/>
      <point x="1994" y="2048" type="line"/>
      <point x="312" y="2048" type="line"/>
    </contour>
  </outline>
</glyph>
<glyph name="U" format="2">
  <advance width="2054"/>
  <unicode hex="0055"/>
  <outline>
    <contour>
      <point x="1658" y="2048" type="line"/>
      <point x="1436" y="709" type="line" smooth="yes"/>
      <point x="1400" y="490"/>
      <point x="1198" y="357"/>
      <point x="958" y="357" type="curve" smooth="yes"/>
      <point x="718" y="357"/>
      <point x="566" y="490"/>
      <point x="602" y="709" type="curve" smooth="yes"/>
      <point x="823" y="2048" type="line"/>
      <point x="390" y="2048" type="line"/>
      <point x="166" y="694" type="line" smooth="yes"/>
      <point x="90" y="230"/>
      <point x="398" y="-29"/>
      <point x="895" y="-29" type="curve" smooth="yes"/>
      <point x="1389" y="-29"/>
      <point x="1787" y="230"/>
      <point x="1864" y="694" type="curve" smooth="yes"/>
      <point x="2088" y="2048" type="line"/>
    </contour>
  </outline>
</glyph>
<glyph name="V" format="2">
  <advance width="2106"/>
  <unicode hex="0056"/>
  <outline>
    <contour>
      <point x="760" y="2048" type="line"/>
      <point x="279" y="2048" type="line"/>
      <point x="646" y="0" type="line"/>
      <point x="1204" y="0" type="line"/>
      <point x="2250" y="2048" type="line"/>
      <point x="1770" y="2048" type="line"/>
      <point x="1017" y="492" type="line"/>
      <point x="998" y="492" type="line"/>
    </contour>
  </outline>
</glyph>
<glyph name="W" format="2">
  <advance width="2917"/>
  <unicode hex="0057"/>
  <outline>
    <contour>
      <point x="511" y="0" type="line"/>
      <point x="933" y="0" type="line"/>
      <point x="1546" y="1339" type="line"/>
      <point x="1562" y="1339" type="line"/>
      <point x="1728" y="0" type="line"/>
      <point x="2150" y="0" type="line"/>
      <point x="3076" y="2048" type="line"/>
      <point x="2603" y="2048" type="line"/>
      <point x="2029" y="622" type="line"/>
      <point x="2011" y="622" type="line"/>
      <point x="1873" y="2048" type="line"/>
      <point x="1468" y="2048" type="line"/>
      <point x="859" y="625" type="line"/>
      <point x="842" y="625" type="line"/>
      <point x="738" y="2048" type="line"/>
      <point x="265" y="2048" type="line"/>
    </contour>
  </outline>
</glyph>
<glyph name="X" format="2">
  <advance width="2012"/>
  <unicode hex="0058"/>
  <note>
recipe: offset curve 32, no auto
</note>
  <outline>
    <contour>
      <point x="782" y="2048" type="line"/>
      <point x="305" y="2048" type="line"/>
      <point x="766" y="1024" type="line"/>
      <point x="-47" y="0" type="line"/>
      <point x="458" y="0" type="line"/>
      <point x="994" y="699" type="line"/>
      <point x="1010" y="699" type="line"/>
      <point x="1314" y="0" type="line"/>
      <point x="1803" y="0" type="line"/>
      <point x="1336" y="1024" type="line"/>
      <point x="2129" y="2048" type="line"/>
      <point x="1626" y="2048" type="line"/>
      <point x="1094" y="1350" type="line"/>
      <point x="1078" y="1350" type="line"/>
    </contour>
  </outline>
</glyph>
<glyph name="Y" format="2">
  <advance width="2040"/>
  <unicode hex="0059"/>
  <outline>
    <contour>
      <point x="270" y="2048" type="line"/>
      <point x="798" y="724" type="line"/>
      <point x="677" y="0" type="line"/>
      <point x="1107" y="0" type="line"/>
      <point x="1228" y="724" type="line"/>
      <point x="2194" y="2048" type="line"/>
      <point x="1709" y="2048" type="line"/>
      <point x="1098" y="1166" type="line"/>
      <point x="1076" y="1166" type="line"/>
      <point x="755" y="2048" type="line"/>
    </contour>
  </outline>
</glyph>
<glyph name="Z" format="2">
  <advance width="1878"/>
  <unicode hex="005A"/>
  <outline>
    <contour>
      <point x="28" y="0" type="line"/>
      <point x="1596" y="0" type="line"/>
      <point x="1656" y="357" type="line"/>
      <point x="629" y="357" type="line"/>
      <point x="1891" y="1791" type="line"/>
      <point x="1934" y="2048" type="line"/>
      <point x="366" y="2048" type="line"/>
      <point x="306" y="1691" type="line"/>
      <point x="1333" y="1691" type="line"/>
      <point x="72" y="257" type="line"/>
    </contour>
  </outline>
</glyph>
<glyph name="bracketleft" format="2">
  <advance width="1152"/>
  <unicode hex="005B"/>
  <outline>
    <contour>
      <point x="95" y="-445" type="line"/>
      <point x="884" y="-445" type="line"/>
      <point x="938" y="-126" type="line"/>
      <point x="560" y="-126" type="line"/>
      <point x="872" y="1768" type="line"/>
      <point x="1250" y="1768" type="line"/>
      <point x="1303" y="2086" type="line"/>
      <point x="514" y="2086" type="line"/>
    </contour>
  </outline>
</glyph>
<glyph name="backslash" format="2">
  <advance width="1198"/>
  <unicode hex="005C"/>
  <outline>
    <contour>
      <point x="285" y="2048" type="line"/>
      <point x="576" y="-308" type="line"/>
      <point x="950" y="-308" type="line"/>
      <point x="658" y="2048" type="line"/>
    </contour>
  </outline>
</glyph>
<glyph name="asciicircum" format="2">
  <advance width="1373"/>
  <unicode hex="005E"/>
  <outline>
    <contour>
      <point x="840" y="1826" type="line"/>
      <point x="822" y="1717" type="line"/>
      <point x="894" y="1717" type="line"/>
      <point x="912" y="1826" type="line"/>
    </contour>
    <contour>
      <point x="153" y="1120" type="line"/>
      <point x="490" y="1120" type="line"/>
      <point x="871" y="1757" type="line"/>
      <point x="852" y="1757" type="line"/>
      <point x="1030" y="1120" type="line"/>
      <point x="1340" y="1120" type="line"/>
      <point x="1063" y="2003" type="line"/>
      <point x="719" y="2003" type="line"/>
    </contour>
  </outline>
</glyph>
<glyph name="a" format="2">
  <advance width="1634"/>
  <unicode hex="0061"/>
  <outline>
    <contour>
      <point x="476" y="-29" type="curve" smooth="yes"/>
      <point x="703" y="-29"/>
      <point x="867" y="70"/>
      <point x="965" y="213" type="curve"/>
      <point x="977" y="213" type="line"/>
      <point x="941" y="0" type="line"/>
      <point x="1345" y="0" type="line"/>
      <point x="1518" y="1036" type="line" smooth="yes"/>
      <point x="1578" y="1402"/>
      <point x="1293" y="1556"/>
      <point x="953" y="1556" type="curve" smooth="yes"/>
      <point x="584" y="1556"/>
      <point x="311" y="1380"/>
      <point x="207" y="1100" type="curve"/>
      <point x="595" y="1068" type="line"/>
      <point x="641" y="1170"/>
      <point x="750" y="1245"/>
      <point x="902" y="1245" type="curve" smooth="yes"/>
      <point x="1046" y="1245"/>
      <point x="1114" y="1172"/>
      <point x="1094" y="1046" type="curve" smooth="yes"/>
      <point x="1094" y="1040" type="line" smooth="yes"/>
      <point x="1076" y="942"/>
      <point x="967" y="929"/>
      <point x="698" y="902" type="curve" smooth="yes"/>
      <point x="389" y="874"/>
      <point x="100" y="771"/>
      <point x="42" y="429" type="curve" smooth="yes"/>
      <point x="-8" y="126"/>
      <point x="184" y="-29"/>
    </contour>
    <contour>
      <point x="647" y="265" type="curve" smooth="yes"/>
      <point x="514" y="265"/>
      <point x="433" y="327"/>
      <point x="451" y="443" type="curve" smooth="yes"/>
      <point x="470" y="563"/>
      <point x="581" y="622"/>
      <point x="735" y="643" type="curve" smooth="yes"/>
      <point x="828" y="658"/>
      <point x="985" y="678"/>
      <point x="1040" y="712" type="curve"/>
      <point x="1014" y="549" type="line" smooth="yes"/>
      <point x="986" y="388"/>
      <point x="834" y="265"/>
    </contour>
  </outline>
</glyph>
<glyph name="b" format="2">
  <advance width="1789"/>
  <unicode hex="0062"/>
  <note>
top anchor should match top anchor of i
</note>
  <outline>
    <contour>
      <point x="50" y="0" type="line"/>
      <point x="470" y="0" type="line"/>
      <point x="510" y="246" type="line"/>
      <point x="531" y="246" type="line"/>
      <point x="569" y="118"/>
      <point x="673" y="-25"/>
      <point x="921" y="-25" type="curve" smooth="yes"/>
      <point x="1271" y="-25"/>
      <point x="1591" y="252"/>
      <point x="1676" y="766" type="curve" smooth="yes"/>
      <point x="1763" y="1294"/>
      <point x="1523" y="1556"/>
      <point x="1186" y="1556" type="curve" smooth="yes"/>
      <point x="929" y="1556"/>
      <point x="778" y="1403"/>
      <point x="702" y="1278" type="curve"/>
      <point x="690" y="1278" type="line"/>
      <point x="816" y="2048" type="line"/>
      <point x="390" y="2048" type="line"/>
    </contour>
    <contour>
      <point x="595" y="768" type="curve" smooth="yes"/>
      <point x="639" y="1042"/>
      <point x="786" y="1217"/>
      <point x="992" y="1217" type="curve" smooth="yes"/>
      <point x="1203" y="1217"/>
      <point x="1283" y="1034"/>
      <point x="1241" y="768" type="curve" smooth="yes"/>
      <point x="1197" y="500"/>
      <point x="1053" y="314"/>
      <point x="843" y="314" type="curve" smooth="yes"/>
      <point x="638" y="314"/>
      <point x="551" y="494"/>
    </contour>
  </outline>
</glyph>
<glyph name="c" format="2">
  <advance width="1654"/>
  <unicode hex="0063"/>
  <outline>
    <contour>
      <point x="732" y="-30" type="curve" smooth="yes"/>
      <point x="1141" y="-30"/>
      <point x="1436" y="210"/>
      <point x="1517" y="563" type="curve"/>
      <point x="1115" y="563" type="line"/>
      <point x="1062" y="400"/>
      <point x="940" y="307"/>
      <point x="792" y="307" type="curve" smooth="yes"/>
      <point x="593" y="307"/>
      <point x="492" y="474"/>
      <point x="541" y="768" type="curve" smooth="yes"/>
      <point x="587" y="1058"/>
      <point x="746" y="1224"/>
      <point x="946" y="1224" type="curve" smooth="yes"/>
      <point x="1100" y="1224"/>
      <point x="1183" y="1120"/>
      <point x="1181" y="968" type="curve"/>
      <point x="1582" y="968" type="line"/>
      <point x="1624" y="1323"/>
      <point x="1395" y="1556"/>
      <point x="994" y="1556" type="curve" smooth="yes"/>
      <point x="528" y="1556"/>
      <point x="184" y="1233"/>
      <point x="108" y="762" type="curve" smooth="yes"/>
      <point x="29" y="295"/>
      <point x="259" y="-30"/>
    </contour>
  </outline>
</glyph>
<glyph name="d" format="2">
  <advance width="1790"/>
  <unicode hex="0064"/>
  <outline>
    <contour>
      <point x="607" y="-25" type="curve" smooth="yes"/>
      <point x="854" y="-25"/>
      <point x="1006" y="118"/>
      <point x="1087" y="246" type="curve"/>
      <point x="1105" y="246" type="line"/>
      <point x="1064" y="0" type="line"/>
      <point x="1484" y="0" type="line"/>
      <point x="1824" y="2048" type="line"/>
      <point x="1398" y="2048" type="line"/>
      <point x="1270" y="1278" type="line"/>
      <point x="1257" y="1278" type="line"/>
      <point x="1222" y="1403"/>
      <point x="1124" y="1556"/>
      <point x="867" y="1556" type="curve" smooth="yes"/>
      <point x="529" y="1556"/>
      <point x="201" y="1294"/>
      <point x="114" y="766" type="curve" smooth="yes"/>
      <point x="29" y="252"/>
      <point x="255" y="-25"/>
    </contour>
    <contour>
      <point x="794" y="314" type="curve" smooth="yes"/>
      <point x="584" y="314"/>
      <point x="505" y="500"/>
      <point x="550" y="768" type="curve" smooth="yes"/>
      <point x="593" y="1034"/>
      <point x="732" y="1217"/>
      <point x="943" y="1217" type="curve" smooth="yes"/>
      <point x="1150" y="1217"/>
      <point x="1240" y="1042"/>
      <point x="1195" y="768" type="curve" smooth="yes"/>
      <point x="1150" y="494"/>
      <point x="999" y="314"/>
    </contour>
  </outline>
</glyph>
<glyph name="e" format="2">
  <advance width="1685"/>
  <unicode hex="0065"/>
  <outline>
    <contour>
      <point x="738" y="-30" type="curve" smooth="yes"/>
      <point x="1120" y="-30"/>
      <point x="1403" y="155"/>
      <point x="1512" y="440" type="curve"/>
      <point x="1123" y="466" type="line"/>
      <point x="1060" y="349"/>
      <point x="940" y="288"/>
      <point x="798" y="288" type="curve" smooth="yes"/>
      <point x="580" y="288"/>
      <point x="471" y="406"/>
      <point x="510" y="648" type="curve" smooth="yes"/>
      <point x="557" y="910" type="line" smooth="yes"/>
      <point x="588" y="1084"/>
      <point x="754" y="1238"/>
      <point x="942" y="1238" type="curve" smooth="yes"/>
      <point x="1126" y="1238"/>
      <point x="1229" y="1106"/>
      <point x="1199" y="923" type="curve"/>
      <point x="303" y="923" type="line"/>
      <point x="262" y="659" type="line"/>
      <point x="1558" y="659" type="line"/>
      <point x="1577" y="776" type="line" smooth="yes"/>
      <point x="1664" y="1298"/>
      <point x="1392" y="1556"/>
      <point x="985" y="1556" type="curve" smooth="yes"/>
      <point x="533" y="1556"/>
      <point x="187" y="1235"/>
      <point x="108" y="761" type="curve" smooth="yes"/>
      <point x="26" y="274"/>
      <point x="265" y="-30"/>
    </contour>
  </outline>
</glyph>
<glyph name="f" format="2">
  <advance width="1087"/>
  <unicode hex="0066"/>
  <outline>
    <contour>
      <point x="1125" y="1536" type="line"/>
      <point x="177" y="1536" type="line"/>
      <point x="124" y="1216" type="line"/>
      <point x="1072" y="1216" type="line"/>
    </contour>
    <component base="_part.f_base" xOffset="-14"/>
  </outline>
</glyph>
<glyph name="g" format="2">
  <advance width="1783"/>
  <unicode hex="0067"/>
  <outline>
    <contour>
      <point x="638" y="-598" type="curve" smooth="yes"/>
      <point x="1075" y="-598"/>
      <point x="1421" y="-399"/>
      <point x="1483" y="-15" type="curve" smooth="yes"/>
      <point x="1741" y="1536" type="line"/>
      <point x="1318" y="1536" type="line"/>
      <point x="1276" y="1278" type="line"/>
      <point x="1259" y="1278" type="line"/>
      <point x="1222" y="1403"/>
      <point x="1124" y="1556"/>
      <point x="867" y="1556" type="curve" smooth="yes"/>
      <point x="530" y="1556"/>
      <point x="200" y="1294"/>
      <point x="114" y="771" type="curve" smooth="yes"/>
      <point x="30" y="260"/>
      <point x="268" y="22"/>
      <point x="614" y="22" type="curve" smooth="yes"/>
      <point x="858" y="22"/>
      <point x="1016" y="145"/>
      <point x="1092" y="272" type="curve"/>
      <point x="1110" y="272" type="line"/>
      <point x="1064" y="-9" type="line" smooth="yes"/>
      <point x="1032" y="-210"/>
      <point x="880" y="-292"/>
      <point x="695" y="-292" type="curve" smooth="yes"/>
      <point x="506" y="-292"/>
      <point x="429" y="-212"/>
      <point x="407" y="-127" type="curve"/>
      <point x="3" y="-180" type="line"/>
      <point x="17" y="-412"/>
      <point x="222" y="-598"/>
    </contour>
    <contour>
      <point x="798" y="342" type="curve" smooth="yes"/>
      <point x="588" y="342"/>
      <point x="507" y="508"/>
      <point x="550" y="773" type="curve" smooth="yes"/>
      <point x="592" y="1034"/>
      <point x="730" y="1217"/>
      <point x="942" y="1217" type="curve" smooth="yes"/>
      <point x="1148" y="1217"/>
      <point x="1239" y="1042"/>
      <point x="1195" y="773" type="curve" smooth="yes"/>
      <point x="1151" y="502"/>
      <point x="1002" y="342"/>
    </contour>
  </outline>
</glyph>
<glyph name="h" format="2">
  <advance width="1758"/>
  <unicode hex="0068"/>
  <note>
based on "n" and made slightly wider, brining the top vertical stem with it out.
</note>
  <outline>
    <contour>
      <point x="618" y="888" type="line" smooth="yes"/>
      <point x="651" y="1086"/>
      <point x="792" y="1202"/>
      <point x="966" y="1202" type="curve" smooth="yes"/>
      <point x="1138" y="1202"/>
      <point x="1222" y="1091"/>
      <point x="1191" y="902" type="curve" smooth="yes"/>
      <point x="1041" y="0" type="line"/>
      <point x="1466" y="0" type="line"/>
      <point x="1630" y="978" type="line" smooth="yes"/>
      <point x="1690" y="1338"/>
      <point x="1514" y="1556"/>
      <point x="1195" y="1556" type="curve" smooth="yes"/>
      <point x="961" y="1556"/>
      <point x="786" y="1446"/>
      <point x="687" y="1265" type="curve"/>
      <point x="670" y="1265" type="line"/>
      <point x="798" y="2048" type="line"/>
      <point x="385" y="2048" type="line"/>
      <point x="45" y="0" type="line"/>
      <point x="470" y="0" type="line"/>
    </contour>
  </outline>
</glyph>
<glyph name="k" format="2">
  <advance width="1638"/>
  <unicode hex="006B"/>
  <outline>
    <contour>
      <point x="501" y="442" type="line"/>
      <point x="838" y="764" type="line"/>
      <point x="940" y="764" type="line"/>
      <point x="1728" y="1536" type="line"/>
      <point x="1239" y="1536" type="line"/>
      <point x="648" y="953" type="line"/>
      <point x="586" y="953" type="line"/>
    </contour>
    <contour>
      <point x="42" y="0" type="line"/>
      <point x="468" y="0" type="line"/>
      <point x="808" y="2048" type="line"/>
      <point x="382" y="2048" type="line"/>
    </contour>
    <contour>
      <point x="1002" y="0" type="line"/>
      <point x="1501" y="0" type="line"/>
      <point x="995" y="970" type="line"/>
      <point x="662" y="669" type="line"/>
    </contour>
  </outline>
</glyph>
<glyph name="m" format="2">
  <advance width="2568"/>
  <unicode hex="006D"/>
  <outline>
    <contour>
      <point x="45" y="0" type="line"/>
      <point x="470" y="0" type="line"/>
      <point x="626" y="922" type="line" smooth="yes"/>
      <point x="651" y="1092"/>
      <point x="779" y="1205"/>
      <point x="920" y="1205" type="curve" smooth="yes"/>
      <point x="1061" y="1205"/>
      <point x="1139" y="1109"/>
      <point x="1116" y="958" type="curve" smooth="yes"/>
      <point x="954" y="0" type="line"/>
      <point x="1367" y="0" type="line"/>
      <point x="1526" y="938" type="line" smooth="yes"/>
      <point x="1550" y="1098"/>
      <point x="1659" y="1205"/>
      <point x="1814" y="1205" type="curve" smooth="yes"/>
      <point x="1950" y="1205"/>
      <point x="2037" y="1120"/>
      <point x="2011" y="949" type="curve" smooth="yes"/>
      <point x="1851" y="0" type="line"/>
      <point x="2277" y="0" type="line"/>
      <point x="2449" y="1033" type="line" smooth="yes"/>
      <point x="2505" y="1366"/>
      <point x="2336" y="1556"/>
      <point x="2052" y="1556" type="curve" smooth="yes"/>
      <point x="1826" y="1556"/>
      <point x="1632" y="1442"/>
      <point x="1541" y="1265" type="curve"/>
      <point x="1525" y="1265" type="line"/>
      <point x="1504" y="1443"/>
      <point x="1365" y="1556"/>
      <point x="1157" y="1556" type="curve" smooth="yes"/>
      <point x="948" y="1556"/>
      <point x="773" y="1446"/>
      <point x="679" y="1265" type="curve"/>
      <point x="662" y="1265" type="line"/>
      <point x="706" y="1536" type="line"/>
      <point x="301" y="1536" type="line"/>
    </contour>
  </outline>
</glyph>
<glyph name="n" format="2">
  <advance width="1751"/>
  <unicode hex="006E"/>
  <outline>
    <contour>
      <point x="618" y="888" type="line" smooth="yes"/>
      <point x="652" y="1086"/>
      <point x="789" y="1202"/>
      <point x="962" y="1202" type="curve" smooth="yes"/>
      <point x="1134" y="1202"/>
      <point x="1216" y="1090"/>
      <point x="1185" y="902" type="curve" smooth="yes"/>
      <point x="1034" y="0" type="line"/>
      <point x="1460" y="0" type="line"/>
      <point x="1624" y="978" type="line" smooth="yes"/>
      <point x="1684" y="1337"/>
      <point x="1509" y="1556"/>
      <point x="1190" y="1556" type="curve" smooth="yes"/>
      <point x="961" y="1556"/>
      <point x="776" y="1445"/>
      <point x="679" y="1265" type="curve"/>
      <point x="662" y="1265" type="line"/>
      <point x="706" y="1536" type="line"/>
      <point x="301" y="1536" type="line"/>
      <point x="45" y="0" type="line"/>
      <point x="470" y="0" type="line"/>
    </contour>
  </outline>
</glyph>
<glyph name="o" format="2">
  <advance width="1728"/>
  <unicode hex="006F"/>
  <outline>
    <contour>
      <point x="738" y="-30" type="curve" smooth="yes"/>
      <point x="1202" y="-30"/>
      <point x="1541" y="286"/>
      <point x="1618" y="756" type="curve" smooth="yes"/>
      <point x="1696" y="1234"/>
      <point x="1458" y="1556"/>
      <point x="990" y="1556" type="curve" smooth="yes"/>
      <point x="525" y="1556"/>
      <point x="186" y="1241"/>
      <point x="110" y="769" type="curve" smooth="yes"/>
      <point x="31" y="292"/>
      <point x="269" y="-30"/>
    </contour>
    <contour>
      <point x="781" y="300" type="curve" smooth="yes"/>
      <point x="571" y="300"/>
      <point x="496" y="494"/>
      <point x="539" y="758" type="curve" smooth="yes"/>
      <point x="583" y="1029"/>
      <point x="731" y="1231"/>
      <point x="947" y="1231" type="curve" smooth="yes"/>
      <point x="1157" y="1231"/>
      <point x="1231" y="1036"/>
      <point x="1189" y="771" type="curve" smooth="yes"/>
      <point x="1144" y="500"/>
      <point x="996" y="300"/>
    </contour>
  </outline>
</glyph>
<glyph name="p" format="2">
  <advance width="1781"/>
  <unicode hex="0070"/>
  <outline>
    <contour>
      <point x="-54" y="-576" type="line"/>
      <point x="372" y="-576" type="line"/>
      <point x="508" y="246" type="line"/>
      <point x="523" y="246" type="line"/>
      <point x="561" y="118"/>
      <point x="665" y="-25"/>
      <point x="913" y="-25" type="curve" smooth="yes"/>
      <point x="1263" y="-25"/>
      <point x="1583" y="252"/>
      <point x="1668" y="766" type="curve" smooth="yes"/>
      <point x="1755" y="1294"/>
      <point x="1515" y="1556"/>
      <point x="1178" y="1556" type="curve" smooth="yes"/>
      <point x="921" y="1556"/>
      <point x="770" y="1403"/>
      <point x="694" y="1278" type="curve"/>
      <point x="676" y="1278" type="line"/>
      <point x="718" y="1536" type="line"/>
      <point x="298" y="1536" type="line"/>
    </contour>
    <contour>
      <point x="587" y="768" type="curve" smooth="yes"/>
      <point x="631" y="1042"/>
      <point x="778" y="1217"/>
      <point x="984" y="1217" type="curve" smooth="yes"/>
      <point x="1195" y="1217"/>
      <point x="1275" y="1034"/>
      <point x="1233" y="768" type="curve" smooth="yes"/>
      <point x="1186" y="500"/>
      <point x="1045" y="314"/>
      <point x="835" y="314" type="curve" smooth="yes"/>
      <point x="630" y="314"/>
      <point x="543" y="494"/>
    </contour>
  </outline>
</glyph>
<glyph name="r" format="2">
  <advance width="1153"/>
  <unicode hex="0072"/>
  <outline>
    <contour>
      <point x="42" y="0" type="line"/>
      <point x="468" y="0" type="line"/>
      <point x="611" y="869" type="line" smooth="yes"/>
      <point x="645" y="1058"/>
      <point x="804" y="1188"/>
      <point x="990" y="1188" type="curve" smooth="yes"/>
      <point x="1051" y="1188"/>
      <point x="1130" y="1178"/>
      <point x="1167" y="1165" type="curve"/>
      <point x="1231" y="1544" type="line"/>
      <point x="1194" y="1553"/>
      <point x="1143" y="1558"/>
      <point x="1100" y="1558" type="curve" smooth="yes"/>
      <point x="928" y="1558"/>
      <point x="770" y="1458"/>
      <point x="682" y="1268" type="curve"/>
      <point x="666" y="1268" type="line"/>
      <point x="711" y="1536" type="line"/>
      <point x="298" y="1536" type="line"/>
    </contour>
  </outline>
</glyph>
<glyph name="s" format="2">
  <advance width="1582"/>
  <unicode hex="0073"/>
  <outline>
    <contour>
      <point x="1501" y="1098" type="line"/>
      <point x="1511" y="1381"/>
      <point x="1304" y="1556"/>
      <point x="906" y="1556" type="curve" smooth="yes"/>
      <point x="524" y="1556"/>
      <point x="245" y="1385"/>
      <point x="197" y="1098" type="curve" smooth="yes"/>
      <point x="157" y="859"/>
      <point x="284" y="701"/>
      <point x="575" y="642" type="curve" smooth="yes"/>
      <point x="831" y="589" type="line" smooth="yes"/>
      <point x="962" y="561"/>
      <point x="1007" y="522"/>
      <point x="997" y="452" type="curve" smooth="yes"/>
      <point x="982" y="352"/>
      <point x="858" y="274"/>
      <point x="700" y="277" type="curve" smooth="yes"/>
      <point x="558" y="278"/>
      <point x="474" y="342"/>
      <point x="467" y="467" type="curve"/>
      <point x="51" y="445" type="line"/>
      <point x="43" y="154"/>
      <point x="267" y="-30"/>
      <point x="684" y="-30" type="curve" smooth="yes"/>
      <point x="1074" y="-30"/>
      <point x="1382" y="162"/>
      <point x="1432" y="457" type="curve" smooth="yes"/>
      <point x="1469" y="688"/>
      <point x="1339" y="829"/>
      <point x="1051" y="890" type="curve" smooth="yes"/>
      <point x="781" y="946" type="line" smooth="yes"/>
      <point x="644" y="976"/>
      <point x="607" y="1018"/>
      <point x="619" y="1083" type="curve" smooth="yes"/>
      <point x="634" y="1183"/>
      <point x="758" y="1254"/>
      <point x="899" y="1254" type="curve" smooth="yes"/>
      <point x="1039" y="1254"/>
      <point x="1108" y="1175"/>
      <point x="1114" y="1074" type="curve"/>
    </contour>
  </outline>
</glyph>
<glyph name="t" format="2">
  <advance width="1094"/>
  <unicode hex="0074"/>
  <outline>
    <contour>
      <point x="1115" y="1536" type="line"/>
      <point x="190" y="1536" type="line"/>
      <point x="136" y="1216" type="line"/>
      <point x="1062" y="1216" type="line"/>
    </contour>
    <component base="_part.t_base"/>
  </outline>
</glyph>
<glyph name="u" format="2">
  <advance width="1751"/>
  <unicode hex="0075"/>
  <outline>
    <contour>
      <point x="1136" y="654" type="line" smooth="yes"/>
      <point x="1103" y="448"/>
      <point x="945" y="340"/>
      <point x="792" y="340" type="curve" smooth="yes"/>
      <point x="630" y="340"/>
      <point x="545" y="453"/>
      <point x="574" y="634" type="curve" smooth="yes"/>
      <point x="724" y="1536" type="line"/>
      <point x="298" y="1536" type="line"/>
      <point x="134" y="558" type="line" smooth="yes"/>
      <point x="76" y="199"/>
      <point x="249" y="-20"/>
      <point x="558" y="-20" type="curve" smooth="yes"/>
      <point x="789" y="-20"/>
      <point x="979" y="99"/>
      <point x="1074" y="279" type="curve"/>
      <point x="1090" y="279" type="line"/>
      <point x="1044" y="0" type="line"/>
      <point x="1453" y="0" type="line"/>
      <point x="1709" y="1536" type="line"/>
      <point x="1283" y="1536" type="line"/>
    </contour>
  </outline>
</glyph>
<glyph name="v" format="2">
  <advance width="1650"/>
  <unicode hex="0076"/>
  <outline>
    <contour>
      <point x="1730" y="1536" type="line"/>
      <point x="1263" y="1536" type="line"/>
      <point x="762" y="437" type="line"/>
      <point x="746" y="437" type="line"/>
      <point x="610" y="1536" type="line"/>
      <point x="176" y="1536" type="line"/>
      <point x="457" y="0" type="line"/>
      <point x="937" y="0" type="line"/>
    </contour>
  </outline>
</glyph>
<glyph name="w" format="2">
  <advance width="2394"/>
  <unicode hex="0077"/>
  <outline>
    <contour>
      <point x="345" y="0" type="line"/>
      <point x="795" y="0" type="line"/>
      <point x="1219" y="966" type="line"/>
      <point x="1238" y="966" type="line"/>
      <point x="1342" y="0" type="line"/>
      <point x="1793" y="0" type="line"/>
      <point x="2466" y="1536" type="line"/>
      <point x="2036" y="1536" type="line"/>
      <point x="1630" y="510" type="line"/>
      <point x="1617" y="510" type="line"/>
      <point x="1537" y="1536" type="line"/>
      <point x="1114" y="1536" type="line"/>
      <point x="694" y="504" type="line"/>
      <point x="680" y="504" type="line"/>
      <point x="614" y="1536" type="line"/>
      <point x="183" y="1536" type="line"/>
    </contour>
  </outline>
</glyph>
<glyph name="x" format="2">
  <advance width="1616"/>
  <unicode hex="0078"/>
  <outline>
    <contour>
      <point x="654" y="1536" type="line"/>
      <point x="214" y="1536" type="line"/>
      <point x="526" y="768" type="line"/>
      <point x="-58" y="0" type="line"/>
      <point x="382" y="0" type="line"/>
      <point x="768" y="531" type="line"/>
      <point x="983" y="0" type="line"/>
      <point x="1418" y="0" type="line"/>
      <point x="1089" y="768" type="line"/>
      <point x="1662" y="1536" type="line"/>
      <point x="1225" y="1536" type="line"/>
      <point x="846" y="999" type="line"/>
    </contour>
  </outline>
</glyph>
<glyph name="y" format="2">
  <advance width="1650"/>
  <unicode hex="0079"/>
  <outline>
    <contour>
      <point x="211" y="-573" type="curve" smooth="yes"/>
      <point x="526" y="-573"/>
      <point x="722" y="-414"/>
      <point x="851" y="-166" type="curve" smooth="yes"/>
      <point x="1730" y="1536" type="line"/>
      <point x="1263" y="1536" type="line"/>
      <point x="754" y="406" type="line"/>
      <point x="738" y="406" type="line"/>
      <point x="608" y="1536" type="line"/>
      <point x="176" y="1536" type="line"/>
      <point x="464" y="-41" type="line"/>
      <point x="426" y="-106" type="line" smooth="yes"/>
      <point x="341" y="-245"/>
      <point x="242" y="-258"/>
      <point x="99" y="-211" type="curve"/>
      <point x="-51" y="-530" type="line"/>
      <point x="7" y="-555"/>
      <point x="102" y="-573"/>
    </contour>
  </outline>
</glyph>
<glyph name="z" format="2">
  <advance width="1615"/>
  <unicode hex="007A"/>
  <outline>
    <contour>
      <point x="37" y="0" type="line"/>
      <point x="1330" y="0" type="line"/>
      <point x="1385" y="340" type="line"/>
      <point x="653" y="340" type="line"/>
      <point x="657" y="351" type="line"/>
      <point x="1514" y="1259" type="line"/>
      <point x="1558" y="1536" type="line"/>
      <point x="318" y="1536" type="line"/>
      <point x="261" y="1196" type="line"/>
      <point x="987" y="1196" type="line"/>
      <point x="983" y="1185" type="line"/>
      <point x="78" y="254" type="line"/>
    </contour>
  </outline>
</glyph>
<glyph name="braceleft" format="2">
  <advance width="1152"/>
  <unicode hex="007B"/>
  <outline>
    <contour>
      <point x="91" y="812" type="line"/>
      <point x="691" y="812"/>
      <point x="837" y="988"/>
      <point x="870" y="1191" type="curve" smooth="yes"/>
      <point x="918" y="1483" type="line" smooth="yes"/>
      <point x="950" y="1678"/>
      <point x="1013" y="1768"/>
      <point x="1250" y="1768" type="curve"/>
      <point x="1303" y="2086" type="line"/>
      <point x="899" y="2086"/>
      <point x="595" y="2020"/>
      <point x="518" y="1526" type="curve" smooth="yes"/>
      <point x="482" y="1305" type="line" smooth="yes"/>
      <point x="450" y="1099"/>
      <point x="354" y="1013"/>
      <point x="126" y="1013" type="curve"/>
    </contour>
    <contour>
      <point x="884" y="-445" type="curve"/>
      <point x="938" y="-126" type="line"/>
      <point x="701" y="-126"/>
      <point x="666" y="-37"/>
      <point x="699" y="158" type="curve" smooth="yes"/>
      <point x="748" y="450" type="line" smooth="yes"/>
      <point x="781" y="654"/>
      <point x="694" y="830"/>
      <point x="94" y="830" type="curve"/>
      <point x="62" y="629" type="line"/>
      <point x="293" y="629"/>
      <point x="352" y="542"/>
      <point x="319" y="337" type="curve" smooth="yes"/>
      <point x="284" y="115" type="line" smooth="yes"/>
      <point x="207" y="-378"/>
      <point x="480" y="-445"/>
    </contour>
    <contour>
      <point x="58" y="629" type="line"/>
      <point x="416" y="629" type="line"/>
      <point x="480" y="1013" type="line"/>
      <point x="122" y="1013" type="line"/>
    </contour>
  </outline>
</glyph>
<glyph name="bar" format="2">
  <advance width="1052"/>
  <unicode hex="007C"/>
  <outline>
    <contour>
      <point x="1049" y="2708" type="line"/>
      <point x="645" y="2708" type="line"/>
      <point x="88" y="-660" type="line"/>
      <point x="492" y="-660" type="line"/>
    </contour>
  </outline>
</glyph>
<glyph name="asciitilde" format="2">
  <advance width="1914"/>
  <unicode hex="007E"/>
  <outline>
    <contour>
      <point x="180" y="553" type="curve"/>
      <point x="506" y="553" type="line"/>
      <point x="530" y="719"/>
      <point x="610" y="785"/>
      <point x="704" y="785" type="curve" smooth="yes"/>
      <point x="774" y="785"/>
      <point x="807" y="757"/>
      <point x="879" y="685" type="curve" smooth="yes"/>
      <point x="1000" y="564"/>
      <point x="1094" y="510"/>
      <point x="1227" y="510" type="curve" smooth="yes"/>
      <point x="1491" y="510"/>
      <point x="1702" y="716"/>
      <point x="1753" y="1094" type="curve"/>
      <point x="1426" y="1094" type="line"/>
      <point x="1402" y="934"/>
      <point x="1323" y="862"/>
      <point x="1226" y="862" type="curve" smooth="yes"/>
      <point x="1157" y="862"/>
      <point x="1118" y="898"/>
      <point x="1051" y="966" type="curve" smooth="yes"/>
      <point x="924" y="1093"/>
      <point x="830" y="1140"/>
      <point x="704" y="1140" type="curve" smooth="yes"/>
      <point x="433" y="1140"/>
      <point x="230" y="933"/>
    </contour>
  </outline>
</glyph>
<glyph name="sterling" format="2">
  <advance width="1891"/>
  <unicode hex="00A3"/>
  <outline>
    <contour>
      <point x="1558" y="0" type="line"/>
      <point x="1618" y="357" type="line"/>
      <point x="130" y="357" type="line"/>
      <point x="70" y="0" type="line"/>
    </contour>
    <contour>
      <point x="1297" y="815" type="line"/>
      <point x="1356" y="1156" type="line"/>
      <point x="258" y="1156" type="line"/>
      <point x="199" y="815" type="line"/>
    </contour>
    <contour>
      <point x="943" y="1469" type="line" smooth="yes"/>
      <point x="972" y="1645"/>
      <point x="1083" y="1729"/>
      <point x="1209" y="1729" type="curve" smooth="yes"/>
      <point x="1337" y="1729"/>
      <point x="1438" y="1666"/>
      <point x="1406" y="1496" type="curve"/>
      <point x="1808" y="1485" type="line"/>
      <point x="1882" y="1830"/>
      <point x="1676" y="2076"/>
      <point x="1259" y="2076" type="curve" smooth="yes"/>
      <point x="886" y="2076"/>
      <point x="567" y="1859"/>
      <point x="517" y="1469" type="curve" smooth="yes"/>
      <point x="403" y="594" type="line" smooth="yes"/>
      <point x="388" y="488"/>
      <point x="351" y="376"/>
      <point x="261" y="357" type="curve"/>
      <point x="513" y="234" type="line"/>
      <point x="720" y="319"/>
      <point x="810" y="435"/>
      <point x="834" y="618" type="curve" smooth="yes"/>
    </contour>
  </outline>
</glyph>
<glyph name="currency" format="2">
  <advance width="2154"/>
  <unicode hex="00A4"/>
  <outline>
    <contour>
      <point x="945" y="-28" type="curve" smooth="yes"/>
      <point x="1405" y="-28"/>
      <point x="1849" y="348"/>
      <point x="1930" y="836" type="curve" smooth="yes"/>
      <point x="2009" y="1324"/>
      <point x="1689" y="1696"/>
      <point x="1229" y="1696" type="curve" smooth="yes"/>
      <point x="764" y="1696"/>
      <point x="325" y="1324"/>
      <point x="246" y="836" type="curve"/>
      <point x="165" y="348"/>
      <point x="480" y="-28"/>
    </contour>
    <contour>
      <point x="988" y="233" type="curve" smooth="yes"/>
      <point x="659" y="233"/>
      <point x="444" y="498"/>
      <point x="502" y="836" type="curve"/>
      <point x="559" y="1178"/>
      <point x="859" y="1439"/>
      <point x="1188" y="1439" type="curve" smooth="yes"/>
      <point x="1510" y="1439"/>
      <point x="1730" y="1178"/>
      <point x="1674" y="836" type="curve" smooth="yes"/>
      <point x="1615" y="498"/>
      <point x="1310" y="233"/>
    </contour>
    <contour>
      <point x="1767" y="1258" type="line"/>
      <point x="2102" y="1542" type="line"/>
      <point x="1940" y="1738" type="line"/>
      <point x="1609" y="1454" type="line"/>
    </contour>
    <contour>
      <point x="1643" y="-34" type="line"/>
      <point x="1871" y="162" type="line"/>
      <point x="1632" y="442" type="line"/>
      <point x="1408" y="250" type="line"/>
    </contour>
    <contour>
      <point x="245" y="-34" type="line"/>
      <point x="580" y="250" type="line"/>
      <point x="418" y="442" type="line"/>
      <point x="86" y="162" type="line"/>
    </contour>
    <contour>
      <point x="553" y="1258" type="line"/>
      <point x="781" y="1454" type="line"/>
      <point x="542" y="1738" type="line"/>
      <point x="318" y="1542" type="line"/>
    </contour>
  </outline>
</glyph>
<glyph name="yen" format="2">
  <advance width="1611"/>
  <unicode hex="00A5"/>
  <note>
line up with uni20BD
</note>
  <outline>
    <contour>
      <point x="696" y="2048" type="line"/>
      <point x="252" y="2048" type="line"/>
      <point x="618" y="794" type="line"/>
      <point x="948" y="1016" type="line"/>
    </contour>
    <contour>
      <point x="752" y="1026" type="line"/>
      <point x="998" y="794" type="line"/>
      <point x="1783" y="2048" type="line"/>
      <point x="1339" y="2048" type="line"/>
    </contour>
    <contour>
      <point x="1066" y="1078" type="line"/>
      <point x="638" y="1078" type="line"/>
      <point x="458" y="0" type="line"/>
      <point x="886" y="0" type="line"/>
    </contour>
    <contour>
      <point x="1466" y="1056" type="line"/>
      <point x="197" y="1056" type="line"/>
      <point x="157" y="809" type="line"/>
      <point x="1426" y="809" type="line"/>
    </contour>
    <contour>
      <point x="1402" y="660" type="line"/>
      <point x="133" y="660" type="line"/>
      <point x="90" y="413" type="line"/>
      <point x="1359" y="413" type="line"/>
    </contour>
  </outline>
</glyph>
<glyph name="brokenbar" format="2">
  <advance width="971"/>
  <unicode hex="00A6"/>
  <outline>
    <contour>
      <point x="262" y="571" type="line"/>
      <point x="103" y="-384" type="line"/>
      <point x="484" y="-384" type="line"/>
      <point x="642" y="571" type="line"/>
    </contour>
    <contour>
      <point x="888" y="2048" type="line"/>
      <point x="507" y="2048" type="line"/>
      <point x="349" y="1097" type="line"/>
      <point x="730" y="1097" type="line"/>
    </contour>
  </outline>
</glyph>
<glyph name="section" format="2">
  <advance width="1670"/>
  <unicode hex="00A7"/>
  <note>
composed of "S" scaled down with RMX Tuner in temporary duplicate file
</note>
  <outline>
    <contour>
      <point x="1531" y="1540" type="line"/>
      <point x="1581" y="1850"/>
      <point x="1387" y="2076"/>
      <point x="1036" y="2076" type="curve" smooth="yes"/>
      <point x="699" y="2076"/>
      <point x="428" y="1865"/>
      <point x="380" y="1578" type="curve" smooth="yes"/>
      <point x="355" y="1424"/>
      <point x="402" y="1306"/>
      <point x="487" y="1207" type="curve"/>
      <point x="487" y="1204" type="line"/>
      <point x="379" y="1175"/>
      <point x="228" y="1092"/>
      <point x="186" y="924" type="curve" smooth="yes"/>
      <point x="114" y="630"/>
      <point x="326" y="506"/>
      <point x="430" y="458" type="curve" smooth="yes"/>
      <point x="782" y="285" type="line" smooth="yes"/>
      <point x="851" y="248"/>
      <point x="951" y="190"/>
      <point x="935" y="86" type="curve" smooth="yes"/>
      <point x="918" y="-12"/>
      <point x="805" y="-53"/>
      <point x="703" y="-55" type="curve" smooth="yes"/>
      <point x="547" y="-62"/>
      <point x="462" y="10"/>
      <point x="482" y="136" type="curve"/>
      <point x="106" y="136" type="line"/>
      <point x="51" y="-198"/>
      <point x="269" y="-414"/>
      <point x="638" y="-414" type="curve" smooth="yes"/>
      <point x="974" y="-414"/>
      <point x="1261" y="-230"/>
      <point x="1314" y="86" type="curve" smooth="yes"/>
      <point x="1339" y="238"/>
      <point x="1300" y="359"/>
      <point x="1202" y="458" type="curve"/>
      <point x="1210" y="462" type="line"/>
      <point x="1302" y="488"/>
      <point x="1463" y="573"/>
      <point x="1506" y="740" type="curve" smooth="yes"/>
      <point x="1581" y="1031"/>
      <point x="1365" y="1154"/>
      <point x="1269" y="1202" type="curve" smooth="yes"/>
      <point x="912" y="1379" type="line" smooth="yes"/>
      <point x="838" y="1411"/>
      <point x="739" y="1482"/>
      <point x="757" y="1578" type="curve" smooth="yes"/>
      <point x="771" y="1674"/>
      <point x="870" y="1720"/>
      <point x="976" y="1720" type="curve" smooth="yes"/>
      <point x="1115" y="1720"/>
      <point x="1175" y="1642"/>
      <point x="1157" y="1540" type="curve"/>
    </contour>
    <contour>
      <point x="1152" y="718" type="curve" smooth="yes"/>
      <point x="1130" y="634"/>
      <point x="1037" y="586"/>
      <point x="978" y="614" type="curve"/>
      <point x="671" y="763" type="line" smooth="yes"/>
      <point x="566" y="811"/>
      <point x="517" y="875"/>
      <point x="538" y="946" type="curve" smooth="yes"/>
      <point x="560" y="1030"/>
      <point x="647" y="1083"/>
      <point x="714" y="1050" type="curve"/>
      <point x="1022" y="899" type="line" smooth="yes"/>
      <point x="1129" y="850"/>
      <point x="1174" y="786"/>
    </contour>
  </outline>
</glyph>
<glyph name="dieresis" format="2">
  <advance width="1506"/>
  <unicode hex="00A8"/>
  <outline>
    <contour>
      <point x="634" y="1746" type="curve" smooth="yes"/>
      <point x="738" y="1746"/>
      <point x="832" y="1826"/>
      <point x="846" y="1924" type="curve" smooth="yes"/>
      <point x="867" y="2050"/>
      <point x="782" y="2153"/>
      <point x="653" y="2153" type="curve" smooth="yes"/>
      <point x="550" y="2153"/>
      <point x="454" y="2076"/>
      <point x="437" y="1975" type="curve" smooth="yes"/>
      <point x="417" y="1852"/>
      <point x="507" y="1746"/>
    </contour>
    <contour>
      <point x="1246" y="1746" type="curve" smooth="yes"/>
      <point x="1350" y="1746"/>
      <point x="1444" y="1826"/>
      <point x="1458" y="1924" type="curve" smooth="yes"/>
      <point x="1479" y="2050"/>
      <point x="1394" y="2153"/>
      <point x="1265" y="2153" type="curve" smooth="yes"/>
      <point x="1162" y="2153"/>
      <point x="1066" y="2076"/>
      <point x="1049" y="1975" type="curve" smooth="yes"/>
      <point x="1028" y="1850"/>
      <point x="1119" y="1746"/>
    </contour>
  </outline>
</glyph>
<glyph name="copyright" format="2">
  <advance width="2576"/>
  <unicode hex="00A9"/>
  <note>
Stroke R: 116
Stroke B: 160
</note>
  <outline>
    <contour>
      <point x="774" y="1024" type="curve" smooth="yes"/>
      <point x="722" y="713"/>
      <point x="933" y="460"/>
      <point x="1244" y="460" type="curve" smooth="yes"/>
      <point x="1518" y="460"/>
      <point x="1772" y="656"/>
      <point x="1846" y="915" type="curve"/>
      <point x="1548" y="915" type="line"/>
      <point x="1510" y="814"/>
      <point x="1396" y="745"/>
      <point x="1276" y="745" type="curve" smooth="yes"/>
      <point x="1117" y="745"/>
      <point x="1033" y="874"/>
      <point x="1058" y="1025" type="curve" smooth="yes"/>
      <point x="1086" y="1192"/>
      <point x="1237" y="1303"/>
      <point x="1392" y="1303" type="curve" smooth="yes"/>
      <point x="1514" y="1303"/>
      <point x="1588" y="1235"/>
      <point x="1592" y="1133" type="curve"/>
      <point x="1890" y="1133" type="line"/>
      <point x="1902" y="1392"/>
      <point x="1704" y="1588"/>
      <point x="1431" y="1588" type="curve" smooth="yes"/>
      <point x="1120" y="1588"/>
      <point x="825" y="1335"/>
    </contour>
    <component base="circlewhite" xOffset="1"/>
  </outline>
</glyph>
<glyph name="ordfeminine" format="2">
  <advance width="1372"/>
  <unicode hex="00AA"/>
  <outline>
    <contour>
      <point x="926" y="1184" type="line"/>
      <point x="914" y="1107"/>
      <point x="916" y="1031"/>
      <point x="924" y="970" type="curve"/>
      <point x="1175" y="970" type="line"/>
      <point x="1158" y="1057"/>
      <point x="1167" y="1142"/>
      <point x="1181" y="1220" type="curve" smooth="yes"/>
      <point x="1253" y="1652" type="line"/>
      <point x="1293" y="1904"/>
      <point x="1148" y="2032"/>
      <point x="901" y="2032" type="curve" smooth="yes"/>
      <point x="636" y="2032"/>
      <point x="441" y="1896"/>
      <point x="409" y="1710" type="curve"/>
      <point x="650" y="1692" type="line"/>
      <point x="666" y="1780"/>
      <point x="746" y="1828"/>
      <point x="869" y="1828" type="curve" smooth="yes"/>
      <point x="982" y="1828"/>
      <point x="1022" y="1763"/>
      <point x="1006" y="1652" type="curve"/>
    </contour>
    <contour>
      <point x="1056" y="1582" type="line"/>
      <point x="851" y="1582" type="line"/>
      <point x="526" y="1582"/>
      <point x="347" y="1468"/>
      <point x="315" y="1264" type="curve" smooth="yes"/>
      <point x="283" y="1076"/>
      <point x="390" y="952"/>
      <point x="614" y="952" type="curve" smooth="yes"/>
      <point x="807" y="952"/>
      <point x="930" y="1055"/>
      <point x="988" y="1146" type="curve"/>
      <point x="988" y="1308" type="line"/>
      <point x="980" y="1240"/>
      <point x="823" y="1150"/>
      <point x="709" y="1150" type="curve" smooth="yes"/>
      <point x="594" y="1150"/>
      <point x="552" y="1196"/>
      <point x="564" y="1270" type="curve" smooth="yes"/>
      <point x="576" y="1350"/>
      <point x="661" y="1422"/>
      <point x="823" y="1422" type="curve"/>
      <point x="1028" y="1422" type="line"/>
    </contour>
  </outline>
</glyph>
<glyph name="logicalnot" format="2">
  <advance width="1633"/>
  <unicode hex="00AC"/>
  <outline>
    <contour>
      <point x="1466" y="1108" type="line"/>
      <point x="285" y="1108" type="line"/>
      <point x="245" y="872" type="line"/>
      <point x="1426" y="872" type="line"/>
    </contour>
    <contour>
      <point x="1450" y="1000" type="line"/>
      <point x="1167" y="1000" type="line"/>
      <point x="1087" y="516" type="line"/>
      <point x="1370" y="516" type="line"/>
    </contour>
  </outline>
</glyph>
<glyph name="registered" format="2">
  <advance width="1869"/>
  <unicode hex="00AE"/>
  <note>
Stroke L: 32
Stroke R: 96
Stroke B: 112
</note>
  <outline>
    <contour>
      <point x="673" y="916" type="line"/>
      <point x="865" y="916" type="line"/>
      <point x="963" y="1512" type="line"/>
      <point x="1085" y="1512" type="line" smooth="yes"/>
      <point x="1138" y="1512"/>
      <point x="1182" y="1483"/>
      <point x="1170" y="1410" type="curve" smooth="yes"/>
      <point x="1160" y="1340"/>
      <point x="1105" y="1303"/>
      <point x="1049" y="1303" type="curve" smooth="yes"/>
      <point x="842" y="1303" type="line"/>
      <point x="820" y="1164" type="line"/>
      <point x="1067" y="1164" type="line" smooth="yes"/>
      <point x="1212" y="1164"/>
      <point x="1345" y="1252"/>
      <point x="1372" y="1410" type="curve" smooth="yes"/>
      <point x="1400" y="1565"/>
      <point x="1296" y="1654"/>
      <point x="1156" y="1654" type="curve" smooth="yes"/>
      <point x="795" y="1654" type="line"/>
    </contour>
    <contour>
      <point x="1201" y="1257" type="line"/>
      <point x="1002" y="1257" type="line"/>
      <point x="1102" y="916" type="line"/>
      <point x="1312" y="916" type="line"/>
    </contour>
    <contour>
      <point x="1018" y="476" type="curve" smooth="yes"/>
      <point x="1461" y="476"/>
      <point x="1818" y="834"/>
      <point x="1818" y="1276" type="curve" smooth="yes"/>
      <point x="1819" y="1718"/>
      <point x="1460" y="2076"/>
      <point x="1018" y="2076" type="curve" smooth="yes"/>
      <point x="576" y="2076"/>
      <point x="218" y="1718"/>
      <point x="218" y="1276" type="curve" smooth="yes"/>
      <point x="219" y="834"/>
      <point x="576" y="476"/>
    </contour>
    <contour>
      <point x="1018" y="687" type="curve" smooth="yes"/>
      <point x="693" y="687"/>
      <point x="429" y="951"/>
      <point x="430" y="1276" type="curve" smooth="yes"/>
      <point x="430" y="1601"/>
      <point x="693" y="1865"/>
      <point x="1018" y="1865" type="curve" smooth="yes"/>
      <point x="1343" y="1865"/>
      <point x="1607" y="1601"/>
      <point x="1607" y="1276" type="curve" smooth="yes"/>
      <point x="1608" y="951"/>
      <point x="1344" y="687"/>
    </contour>
  </outline>
</glyph>
<glyph name="degree" format="2">
  <advance width="1294"/>
  <unicode hex="00B0"/>
  <outline>
    <contour>
      <point x="779" y="1079" type="curve" smooth="yes"/>
      <point x="1051" y="1079"/>
      <point x="1270" y="1299"/>
      <point x="1270" y="1570" type="curve" smooth="yes"/>
      <point x="1270" y="1842"/>
      <point x="1051" y="2062"/>
      <point x="779" y="2062" type="curve" smooth="yes"/>
      <point x="508" y="2062"/>
      <point x="288" y="1842"/>
      <point x="288" y="1570" type="curve" smooth="yes"/>
      <point x="288" y="1299"/>
      <point x="508" y="1079"/>
    </contour>
    <contour>
      <point x="779" y="1363" type="curve" smooth="yes"/>
      <point x="665" y="1363"/>
      <point x="572" y="1456"/>
      <point x="572" y="1570" type="curve" smooth="yes"/>
      <point x="572" y="1685"/>
      <point x="665" y="1778"/>
      <point x="779" y="1778" type="curve" smooth="yes"/>
      <point x="894" y="1778"/>
      <point x="986" y="1685"/>
      <point x="986" y="1570" type="curve" smooth="yes"/>
      <point x="986" y="1456"/>
      <point x="894" y="1363"/>
    </contour>
  </outline>
</glyph>
<glyph name="plusminus" format="2">
  <advance width="1914"/>
  <unicode hex="00B1"/>
  <outline>
    <contour>
      <point x="138" y="77" type="line"/>
      <point x="1546" y="77" type="line"/>
      <point x="1602" y="416" type="line"/>
      <point x="194" y="416" type="line"/>
    </contour>
    <contour>
      <point x="277" y="909" type="line"/>
      <point x="1685" y="909" type="line"/>
      <point x="1740" y="1238" type="line"/>
      <point x="332" y="1238" type="line"/>
    </contour>
    <contour>
      <point x="743" y="563" type="line"/>
      <point x="1102" y="563" type="line"/>
      <point x="1271" y="1584" type="line"/>
      <point x="913" y="1584" type="line"/>
    </contour>
  </outline>
</glyph>
<glyph name="two.sups" format="2">
  <advance width="1190"/>
  <unicode hex="00B2"/>
  <outline>
    <contour>
      <point x="163" y="1024" type="line"/>
      <point x="1140" y="1024" type="line"/>
      <point x="1180" y="1274" type="line"/>
      <point x="642" y="1274" type="line"/>
      <point x="645" y="1285" type="line"/>
      <point x="850" y="1417" type="line" smooth="yes"/>
      <point x="1138" y="1586"/>
      <point x="1237" y="1713"/>
      <point x="1261" y="1872" type="curve" smooth="yes"/>
      <point x="1293" y="2090"/>
      <point x="1142" y="2268"/>
      <point x="836" y="2268" type="curve" smooth="yes"/>
      <point x="546" y="2268"/>
      <point x="318" y="2108"/>
      <point x="280" y="1857" type="curve"/>
      <point x="576" y="1857" type="line"/>
      <point x="596" y="1970"/>
      <point x="694" y="2026"/>
      <point x="806" y="2026" type="curve" smooth="yes"/>
      <point x="922" y="2026"/>
      <point x="998" y="1972"/>
      <point x="983" y="1876" type="curve" smooth="yes"/>
      <point x="967" y="1783"/>
      <point x="881" y="1726"/>
      <point x="754" y="1634" type="curve" smooth="yes"/>
      <point x="197" y="1245" type="line"/>
    </contour>
  </outline>
</glyph>
<glyph name="three.sups" format="2">
  <advance width="1242"/>
  <unicode hex="00B3"/>
  <outline>
    <contour>
      <point x="674" y="1008" type="curve" smooth="yes"/>
      <point x="986" y="1008"/>
      <point x="1218" y="1151"/>
      <point x="1252" y="1361" type="curve" smooth="yes"/>
      <point x="1276" y="1519"/>
      <point x="1171" y="1635"/>
      <point x="991" y="1654" type="curve"/>
      <point x="991" y="1664" type="line"/>
      <point x="1154" y="1685"/>
      <point x="1267" y="1758"/>
      <point x="1289" y="1897" type="curve" smooth="yes"/>
      <point x="1321" y="2095"/>
      <point x="1158" y="2268"/>
      <point x="858" y="2268" type="curve" smooth="yes"/>
      <point x="588" y="2268"/>
      <point x="351" y="2121"/>
      <point x="311" y="1902" type="curve"/>
      <point x="606" y="1902" type="line"/>
      <point x="621" y="1981"/>
      <point x="744" y="2026"/>
      <point x="850" y="2026" type="curve" smooth="yes"/>
      <point x="966" y="2026"/>
      <point x="1007" y="1980"/>
      <point x="994" y="1911" type="curve" smooth="yes"/>
      <point x="978" y="1830"/>
      <point x="883" y="1763"/>
      <point x="754" y="1763" type="curve" smooth="yes"/>
      <point x="619" y="1763" type="line"/>
      <point x="586" y="1536" type="line"/>
      <point x="731" y="1536" type="line" smooth="yes"/>
      <point x="878" y="1536"/>
      <point x="954" y="1494"/>
      <point x="938" y="1410" type="curve" smooth="yes"/>
      <point x="923" y="1324"/>
      <point x="818" y="1262"/>
      <point x="684" y="1262" type="curve" smooth="yes"/>
      <point x="571" y="1262"/>
      <point x="494" y="1306"/>
      <point x="503" y="1380" type="curve"/>
      <point x="196" y="1380" type="line"/>
      <point x="164" y="1158"/>
      <point x="361" y="1008"/>
    </contour>
  </outline>
</glyph>
<glyph name="acute" format="2">
  <advance width="1400"/>
  <unicode hex="00B4"/>
  <outline>
    <contour>
      <point x="693" y="1734" type="line"/>
      <point x="995" y="1734" type="line"/>
      <point x="1376" y="2189" type="line"/>
      <point x="982" y="2189" type="line"/>
    </contour>
  </outline>
</glyph>
<glyph name="micro" format="2">
  <advance width="1877"/>
  <unicode hex="00B5"/>
  <outline>
    <contour>
      <point x="-49" y="-557" type="line"/>
      <point x="360" y="-557" type="line"/>
      <point x="489" y="218" type="line"/>
      <point x="501" y="218" type="line"/>
      <point x="541" y="87"/>
      <point x="661" y="9"/>
      <point x="811" y="9" type="curve" smooth="yes"/>
      <point x="967" y="9"/>
      <point x="1110" y="87"/>
      <point x="1195" y="218" type="curve"/>
      <point x="1207" y="218" type="line"/>
      <point x="1170" y="0" type="line"/>
      <point x="1578" y="0" type="line"/>
      <point x="1834" y="1536" type="line"/>
      <point x="1409" y="1536" type="line"/>
      <point x="1262" y="654" type="line" smooth="yes"/>
      <point x="1232" y="469"/>
      <point x="1072" y="340"/>
      <point x="868" y="340" type="curve" smooth="yes"/>
      <point x="665" y="340"/>
      <point x="547" y="469"/>
      <point x="577" y="654" type="curve" smooth="yes"/>
      <point x="724" y="1536" type="line"/>
      <point x="298" y="1536" type="line"/>
    </contour>
  </outline>
</glyph>
<glyph name="paragraph" format="2">
  <advance width="1717"/>
  <unicode hex="00B6"/>
  <note>
aka PILCROW SIGN
</note>
  <outline>
    <contour>
      <point x="1506" y="1720" type="line"/>
      <point x="1562" y="2048" type="line"/>
      <point x="1045" y="2048" type="line" smooth="yes"/>
      <point x="594" y="2048"/>
      <point x="306" y="1772"/>
      <point x="242" y="1404" type="curve" smooth="yes"/>
      <point x="182" y="1032"/>
      <point x="382" y="760"/>
      <point x="833" y="760" type="curve" smooth="yes"/>
      <point x="951" y="760" type="line"/>
      <point x="1108" y="1720" type="line"/>
    </contour>
    <contour>
      <point x="1071" y="0" type="line"/>
      <point x="1410" y="0" type="line"/>
      <point x="1750" y="2048" type="line"/>
      <point x="1411" y="2048" type="line"/>
    </contour>
  </outline>
</glyph>
<glyph name="cedilla" format="2">
  <advance width="1054"/>
  <unicode hex="00B8"/>
  <outline>
    <contour>
      <point x="307" y="8" type="line"/>
      <point x="226" y="-195" type="line"/>
      <point x="362" y="-212"/>
      <point x="419" y="-250"/>
      <point x="403" y="-333" type="curve" smooth="yes"/>
      <point x="385" y="-418"/>
      <point x="279" y="-458"/>
      <point x="112" y="-458" type="curve"/>
      <point x="82" y="-648" type="line"/>
      <point x="418" y="-648"/>
      <point x="633" y="-521"/>
      <point x="663" y="-322" type="curve" smooth="yes"/>
      <point x="689" y="-183"/>
      <point x="604" y="-100"/>
      <point x="471" y="-79" type="curve"/>
      <point x="503" y="8" type="line"/>
    </contour>
  </outline>
</glyph>
<glyph name="one.sups" format="2">
  <advance width="898"/>
  <unicode hex="00B9"/>
  <outline>
    <contour>
      <point x="937" y="2252" type="line"/>
      <point x="640" y="2252" type="line"/>
      <point x="619" y="2165"/>
      <point x="486" y="2047"/>
      <point x="306" y="2048" type="curve"/>
      <point x="272" y="1804" type="line"/>
      <point x="422" y="1802"/>
      <point x="531" y="1838"/>
      <point x="563" y="1882" type="curve"/>
      <point x="575" y="1882" type="line"/>
      <point x="430" y="1024" type="line"/>
      <point x="730" y="1024" type="line"/>
    </contour>
  </outline>
</glyph>
<glyph name="ordmasculine" format="2">
  <advance width="1365"/>
  <unicode hex="00BA"/>
  <outline>
    <contour>
      <point x="304" y="1436" type="line"/>
      <point x="256" y="1152"/>
      <point x="410" y="950"/>
      <point x="716" y="950" type="curve" smooth="yes"/>
      <point x="1018" y="950"/>
      <point x="1237" y="1152"/>
      <point x="1285" y="1436" type="curve"/>
      <point x="1301" y="1542" type="line"/>
      <point x="1349" y="1828"/>
      <point x="1194" y="2032"/>
      <point x="890" y="2032" type="curve" smooth="yes"/>
      <point x="591" y="2032"/>
      <point x="368" y="1828"/>
      <point x="320" y="1542" type="curve"/>
    </contour>
    <contour>
      <point x="567" y="1542" type="line"/>
      <point x="595" y="1702"/>
      <point x="698" y="1828"/>
      <point x="858" y="1828" type="curve" smooth="yes"/>
      <point x="1023" y="1828"/>
      <point x="1082" y="1702"/>
      <point x="1054" y="1542" type="curve"/>
      <point x="1038" y="1436" type="line"/>
      <point x="1010" y="1272"/>
      <point x="911" y="1152"/>
      <point x="750" y="1152" type="curve" smooth="yes"/>
      <point x="586" y="1152"/>
      <point x="523" y="1272"/>
      <point x="551" y="1436" type="curve"/>
    </contour>
  </outline>
</glyph>
<glyph name="AE" format="2">
  <advance width="2901"/>
  <unicode hex="00C6"/>
  <outline>
    <contour>
      <point x="-61" y="0" type="line"/>
      <point x="415" y="0" type="line"/>
      <point x="1354" y="1622" type="line"/>
      <point x="1497" y="1622" type="line"/>
      <point x="1226" y="0" type="line"/>
      <point x="2610" y="0" type="line"/>
      <point x="2670" y="357" type="line"/>
      <point x="1719" y="357" type="line"/>
      <point x="1799" y="846" type="line"/>
      <point x="2675" y="846" type="line"/>
      <point x="2735" y="1203" type="line"/>
      <point x="1859" y="1203" type="line"/>
      <point x="1939" y="1691" type="line"/>
      <point x="2886" y="1691" type="line"/>
      <point x="2946" y="2048" type="line"/>
      <point x="1156" y="2048" type="line"/>
    </contour>
    <contour>
      <point x="487" y="467" type="line"/>
      <point x="1551" y="467" type="line"/>
      <point x="1609" y="805" type="line"/>
      <point x="545" y="805" type="line"/>
    </contour>
  </outline>
</glyph>
<glyph name="multiply" format="2">
  <advance width="1914"/>
  <unicode hex="00D7"/>
  <outline>
    <contour>
      <point x="1311" y="90" type="line"/>
      <point x="1612" y="348" type="line"/>
      <point x="614" y="1543" type="line"/>
      <point x="314" y="1283" type="line"/>
    </contour>
    <contour>
      <point x="387" y="92" type="line"/>
      <point x="1767" y="1272" type="line"/>
      <point x="1543" y="1542" type="line"/>
      <point x="163" y="359" type="line"/>
    </contour>
  </outline>
</glyph>
<glyph name="Oslash" format="2">
  <advance width="2203"/>
  <unicode hex="00D8"/>
  <outline>
    <contour>
      <point x="396" y="-98" type="line"/>
      <point x="2072" y="2010" type="line"/>
      <point x="1891" y="2142" type="line"/>
      <point x="215" y="34" type="line"/>
    </contour>
    <component base="O" yOffset="-2"/>
  </outline>
</glyph>
<glyph name="Thorn" format="2">
  <advance width="1889"/>
  <unicode hex="00DE"/>
  <outline>
    <contour>
      <point x="386" y="2048" type="line"/>
      <point x="46" y="0" type="line"/>
      <point x="479" y="0" type="line"/>
      <point x="819" y="2048" type="line"/>
    </contour>
    <contour>
      <point x="524" y="1672" type="line"/>
      <point x="469" y="1337" type="line"/>
      <point x="1002" y="1337" type="line" smooth="yes"/>
      <point x="1247" y="1337"/>
      <point x="1330" y="1202"/>
      <point x="1305" y="1042" type="curve" smooth="yes"/>
      <point x="1277" y="884"/>
      <point x="1151" y="754"/>
      <point x="906" y="754" type="curve" smooth="yes"/>
      <point x="373" y="754" type="line"/>
      <point x="318" y="422" type="line"/>
      <point x="850" y="422" type="line" smooth="yes"/>
      <point x="1344" y="422"/>
      <point x="1659" y="686"/>
      <point x="1718" y="1046" type="curve" smooth="yes"/>
      <point x="1779" y="1406"/>
      <point x="1550" y="1672"/>
      <point x="1057" y="1672" type="curve" smooth="yes"/>
    </contour>
  </outline>
</glyph>
<glyph name="germandbls" format="2">
  <advance width="1870"/>
  <unicode hex="00DF"/>
  <outline>
    <contour>
      <point x="50" y="0" type="line"/>
      <point x="476" y="0" type="line"/>
      <point x="716" y="1445" type="line" smooth="yes"/>
      <point x="743" y="1611"/>
      <point x="878" y="1719"/>
      <point x="1055" y="1719" type="curve" smooth="yes"/>
      <point x="1231" y="1719"/>
      <point x="1319" y="1609"/>
      <point x="1293" y="1459" type="curve" smooth="yes"/>
      <point x="1269" y="1320"/>
      <point x="1156" y="1202"/>
      <point x="1010" y="1202" type="curve" smooth="yes"/>
      <point x="904" y="1202" type="line"/>
      <point x="851" y="870" type="line"/>
      <point x="1010" y="870" type="line" smooth="yes"/>
      <point x="1212" y="870"/>
      <point x="1321" y="765"/>
      <point x="1295" y="605" type="curve" smooth="yes"/>
      <point x="1272" y="450"/>
      <point x="1137" y="347"/>
      <point x="956" y="347" type="curve" smooth="yes"/>
      <point x="754" y="347" type="line"/>
      <point x="697" y="0" type="line"/>
      <point x="966" y="0" type="line" smooth="yes"/>
      <point x="1356" y="0"/>
      <point x="1658" y="203"/>
      <point x="1721" y="564" type="curve" smooth="yes"/>
      <point x="1769" y="853"/>
      <point x="1632" y="1058"/>
      <point x="1369" y="1076" type="curve"/>
      <point x="1373" y="1098" type="line"/>
      <point x="1564" y="1150"/>
      <point x="1704" y="1306"/>
      <point x="1737" y="1522" type="curve" smooth="yes"/>
      <point x="1796" y="1887"/>
      <point x="1498" y="2076"/>
      <point x="1099" y="2076" type="curve" smooth="yes"/>
      <point x="674" y="2076"/>
      <point x="359" y="1863"/>
      <point x="300" y="1507" type="curve" smooth="yes"/>
    </contour>
  </outline>
</glyph>
<glyph name="ae" format="2">
  <advance width="2573"/>
  <unicode hex="00E6"/>
  <outline>
    <contour>
      <point x="1654" y="-30" type="curve" smooth="yes"/>
      <point x="2002" y="-30"/>
      <point x="2292" y="155"/>
      <point x="2402" y="440" type="curve"/>
      <point x="2013" y="466" type="line"/>
      <point x="1949" y="349"/>
      <point x="1828" y="288"/>
      <point x="1687" y="288" type="curve" smooth="yes"/>
      <point x="1475" y="288"/>
      <point x="1364" y="430"/>
      <point x="1401" y="658" type="curve" smooth="yes"/>
      <point x="1442" y="909" type="line" smooth="yes"/>
      <point x="1474" y="1089"/>
      <point x="1634" y="1238"/>
      <point x="1829" y="1238" type="curve" smooth="yes"/>
      <point x="2013" y="1238"/>
      <point x="2118" y="1106"/>
      <point x="2089" y="923" type="curve"/>
      <point x="1224" y="923" type="line"/>
      <point x="1182" y="659" type="line"/>
      <point x="2448" y="659" type="line"/>
      <point x="2466" y="776" type="line" smooth="yes"/>
      <point x="2553" y="1298"/>
      <point x="2281" y="1556"/>
      <point x="1874" y="1556" type="curve" smooth="yes"/>
      <point x="1624" y="1556"/>
      <point x="1418" y="1454"/>
      <point x="1256" y="1232" type="curve"/>
      <point x="1119" y="329" type="line"/>
      <point x="1161" y="99"/>
      <point x="1369" y="-30"/>
    </contour>
    <contour>
      <point x="647" y="265" type="curve" smooth="yes"/>
      <point x="514" y="265"/>
      <point x="433" y="327"/>
      <point x="451" y="443" type="curve" smooth="yes"/>
      <point x="470" y="563"/>
      <point x="581" y="622"/>
      <point x="735" y="643" type="curve" smooth="yes"/>
      <point x="828" y="658"/>
      <point x="985" y="678"/>
      <point x="1040" y="712" type="curve"/>
      <point x="1014" y="549" type="line" smooth="yes"/>
      <point x="986" y="388"/>
      <point x="834" y="265"/>
    </contour>
    <contour>
      <point x="500" y="-29" type="curve" smooth="yes"/>
      <point x="761" y="-29"/>
      <point x="1021" y="79"/>
      <point x="1130" y="251" type="curve"/>
      <point x="1158" y="251" type="line"/>
      <point x="1382" y="1299" type="line" smooth="yes"/>
      <point x="1335" y="1494"/>
      <point x="1150" y="1556"/>
      <point x="960" y="1556" type="curve" smooth="yes"/>
      <point x="582" y="1556"/>
      <point x="314" y="1380"/>
      <point x="207" y="1100" type="curve"/>
      <point x="595" y="1068" type="line"/>
      <point x="641" y="1170"/>
      <point x="746" y="1245"/>
      <point x="898" y="1245" type="curve" smooth="yes"/>
      <point x="1042" y="1245"/>
      <point x="1114" y="1172"/>
      <point x="1094" y="1046" type="curve" smooth="yes"/>
      <point x="1094" y="1040" type="line" smooth="yes"/>
      <point x="1076" y="942"/>
      <point x="970" y="929"/>
      <point x="698" y="902" type="curve" smooth="yes"/>
      <point x="389" y="874"/>
      <point x="100" y="771"/>
      <point x="42" y="429" type="curve" smooth="yes"/>
      <point x="-8" y="126"/>
      <point x="182" y="-29"/>
    </contour>
  </outline>
</glyph>
<glyph name="eth" format="2">
  <advance width="1610"/>
  <unicode hex="00F0"/>
  <outline>
    <contour>
      <point x="1462" y="1878" type="line"/>
      <point x="1382" y="2094" type="line"/>
      <point x="452" y="1657" type="line"/>
      <point x="530" y="1442" type="line"/>
    </contour>
    <contour>
      <point x="672" y="-32" type="curve" smooth="yes"/>
      <point x="1088" y="-32"/>
      <point x="1414" y="256"/>
      <point x="1494" y="752" type="curve" smooth="yes"/>
      <point x="1610" y="1450"/>
      <point x="1199" y="1944"/>
      <point x="773" y="2176" type="curve"/>
      <point x="542" y="1910" type="line"/>
      <point x="878" y="1706"/>
      <point x="1010" y="1548"/>
      <point x="1106" y="1312" type="curve"/>
      <point x="1086" y="1312" type="line"/>
      <point x="1018" y="1408"/>
      <point x="879" y="1442"/>
      <point x="731" y="1423" type="curve" smooth="yes"/>
      <point x="466" y="1378"/>
      <point x="170" y="1121"/>
      <point x="101" y="704" type="curve" smooth="yes"/>
      <point x="33" y="276"/>
      <point x="250" y="-32"/>
    </contour>
    <contour>
      <point x="744" y="300" type="curve" smooth="yes"/>
      <point x="551" y="300"/>
      <point x="466" y="439"/>
      <point x="510" y="706" type="curve" smooth="yes"/>
      <point x="553" y="980"/>
      <point x="690" y="1110"/>
      <point x="877" y="1110" type="curve" smooth="yes"/>
      <point x="1068" y="1110"/>
      <point x="1158" y="974"/>
      <point x="1116" y="705" type="curve" smooth="yes"/>
      <point x="1070" y="438"/>
      <point x="935" y="300"/>
    </contour>
  </outline>
</glyph>
<glyph name="divide" format="2">
  <advance width="1914"/>
  <unicode hex="00F7"/>
  <outline>
    <contour>
      <point x="1693" y="989" type="line"/>
      <point x="293" y="989" type="line"/>
      <point x="238" y="650" type="line"/>
      <point x="1638" y="650" type="line"/>
    </contour>
    <contour>
      <point x="856" y="22" type="curve" smooth="yes"/>
      <point x="975" y="22"/>
      <point x="1087" y="118"/>
      <point x="1106" y="239" type="curve" smooth="yes"/>
      <point x="1129" y="384"/>
      <point x="1034" y="503"/>
      <point x="890" y="503" type="curve" smooth="yes"/>
      <point x="768" y="503"/>
      <point x="655" y="410"/>
      <point x="636" y="290" type="curve" smooth="yes"/>
      <point x="613" y="144"/>
      <point x="710" y="22"/>
    </contour>
    <contour>
      <point x="1042" y="1135" type="curve" smooth="yes"/>
      <point x="1162" y="1135"/>
      <point x="1272" y="1231"/>
      <point x="1290" y="1352" type="curve" smooth="yes"/>
      <point x="1313" y="1497"/>
      <point x="1218" y="1616"/>
      <point x="1074" y="1616" type="curve" smooth="yes"/>
      <point x="952" y="1616"/>
      <point x="839" y="1522"/>
      <point x="818" y="1403" type="curve" smooth="yes"/>
      <point x="793" y="1257"/>
      <point x="896" y="1135"/>
    </contour>
  </outline>
</glyph>
<glyph name="oslash" format="2">
  <advance width="1733"/>
  <unicode hex="00F8"/>
  <outline>
    <contour>
      <point x="266" y="-98" type="line"/>
      <point x="1632" y="1490" type="line"/>
      <point x="1459" y="1622" type="line"/>
      <point x="92" y="34" type="line"/>
    </contour>
    <component base="o"/>
  </outline>
</glyph>
<glyph name="thorn" format="2">
  <advance width="1726"/>
  <unicode hex="00FE"/>
  <outline>
    <contour>
      <point x="382" y="2048" type="line"/>
      <point x="-54" y="-576" type="line"/>
      <point x="372" y="-576" type="line"/>
      <point x="518" y="302" type="line"/>
      <point x="444" y="750" type="line"/>
      <point x="678" y="1256" type="line"/>
      <point x="808" y="2048" type="line"/>
    </contour>
    <contour>
      <point x="523" y="1359" type="line"/>
      <point x="326" y="169" type="line"/>
      <point x="514" y="169" type="line"/>
      <point x="552" y="58"/>
      <point x="663" y="-25"/>
      <point x="858" y="-25" type="curve" smooth="yes"/>
      <point x="1204" y="-25"/>
      <point x="1529" y="250"/>
      <point x="1613" y="766" type="curve" smooth="yes"/>
      <point x="1701" y="1294"/>
      <point x="1456" y="1556"/>
      <point x="1122" y="1556" type="curve" smooth="yes"/>
      <point x="919" y="1556"/>
      <point x="781" y="1466"/>
      <point x="711" y="1359" type="curve"/>
    </contour>
    <contour>
      <point x="1209" y="768" type="curve" smooth="yes"/>
      <point x="1163" y="490"/>
      <point x="1021" y="314"/>
      <point x="797" y="314" type="curve" smooth="yes"/>
      <point x="561" y="314"/>
      <point x="513" y="518"/>
      <point x="554" y="768" type="curve" smooth="yes"/>
      <point x="596" y="1021"/>
      <point x="713" y="1217"/>
      <point x="946" y="1217" type="curve" smooth="yes"/>
      <point x="1172" y="1217"/>
      <point x="1254" y="1044"/>
    </contour>
  </outline>
</glyph>
<glyph name="idotless" format="2">
  <advance width="766"/>
  <unicode hex="0131"/>
  <outline>
    <contour>
      <point x="42" y="0" type="line"/>
      <point x="468" y="0" type="line"/>
      <point x="724" y="1536" type="line"/>
      <point x="298" y="1536" type="line"/>
    </contour>
  </outline>
</glyph>
<glyph name="kgreenlandic" format="2">
  <advance width="1889"/>
  <unicode hex="0138"/>
  <outline>
    <contour>
      <point x="744" y="1488" type="line"/>
      <point x="322" y="1488" type="line"/>
      <point x="74" y="0" type="line"/>
      <point x="496" y="0" type="line"/>
    </contour>
    <contour>
      <point x="1785" y="1488" type="line"/>
      <point x="1254" y="1488" type="line"/>
      <point x="776" y="938" type="line"/>
      <point x="528" y="938" type="line"/>
      <point x="513" y="537" type="line"/>
      <point x="925" y="537" type="line"/>
    </contour>
    <contour>
      <point x="1022" y="0" type="line"/>
      <point x="1559" y="0" type="line"/>
      <point x="1113" y="811" type="line"/>
      <point x="718" y="618" type="line"/>
    </contour>
  </outline>
</glyph>
<glyph name="Lslash" format="2">
  <advance width="1649"/>
  <unicode hex="0141"/>
  <outline>
    <contour>
      <point x="1026" y="1323" type="line"/>
      <point x="72" y="1065" type="line"/>
      <point x="46" y="830" type="line"/>
      <point x="999" y="1086" type="line"/>
    </contour>
    <component base="L" xOffset="86"/>
  </outline>
</glyph>
<glyph name="lslash" format="2">
  <advance width="766"/>
  <unicode hex="0142"/>
  <outline>
    <contour>
      <point x="881" y="1333" type="line"/>
      <point x="30" y="1074" type="line"/>
      <point x="-9" y="838" type="line"/>
      <point x="841" y="1097" type="line"/>
    </contour>
    <component base="l"/>
  </outline>
</glyph>
<glyph name="Eng" format="2">
  <advance width="2070"/>
  <unicode hex="014A"/>
  <outline>
    <contour>
      <point x="1389" y="0" type="line"/>
      <point x="1374" y="-88" type="line" smooth="yes"/>
      <point x="1349" y="-219"/>
      <point x="1246" y="-279"/>
      <point x="1106" y="-279" type="curve" smooth="yes"/>
      <point x="1054" y="-279"/>
      <point x="1000" y="-273"/>
      <point x="961" y="-264" type="curve"/>
      <point x="907" y="-586" type="line"/>
      <point x="952" y="-600"/>
      <point x="1011" y="-607"/>
      <point x="1058" y="-607" type="curve" smooth="yes"/>
      <point x="1422" y="-607"/>
      <point x="1687" y="-470"/>
      <point x="1748" y="-82" type="curve" smooth="yes"/>
      <point x="1763" y="0" type="line"/>
    </contour>
    <component base="N"/>
  </outline>
</glyph>
<glyph name="eng" format="2">
  <advance width="1770"/>
  <unicode hex="014B"/>
  <outline>
    <contour>
      <point x="1034" y="0" type="line"/>
      <point x="1021" y="-78" type="line" smooth="yes"/>
      <point x="998" y="-201"/>
      <point x="924" y="-247"/>
      <point x="808" y="-247" type="curve" smooth="yes"/>
      <point x="761" y="-247"/>
      <point x="721" y="-241"/>
      <point x="684" y="-232" type="curve"/>
      <point x="599" y="-578" type="line"/>
      <point x="665" y="-593"/>
      <point x="736" y="-595"/>
      <point x="810" y="-595" type="curve" smooth="yes"/>
      <point x="1138" y="-595"/>
      <point x="1362" y="-448"/>
      <point x="1442" y="-94" type="curve" smooth="yes"/>
      <point x="1460" y="0" type="line"/>
    </contour>
    <component base="n"/>
  </outline>
</glyph>
<glyph name="OE" format="2">
  <advance width="2866"/>
  <unicode hex="0152"/>
  <note>
!post:RemoveOverlap
</note>
  <outline>
    <contour>
      <point x="945" y="0" type="curve" smooth="yes"/>
      <point x="1358" y="0" type="line"/>
      <point x="1419" y="357" type="line"/>
      <point x="1006" y="357" type="line" smooth="yes"/>
      <point x="713" y="357"/>
      <point x="541" y="558"/>
      <point x="618" y="1022" type="curve" smooth="yes"/>
      <point x="694" y="1484"/>
      <point x="933" y="1691"/>
      <point x="1225" y="1691" type="curve" smooth="yes"/>
      <point x="1638" y="1691" type="line"/>
      <point x="1698" y="2048" type="line"/>
      <point x="1285" y="2048" type="line" smooth="yes"/>
      <point x="751" y="2048"/>
      <point x="292" y="1688"/>
      <point x="184" y="1022" type="curve" smooth="yes"/>
      <point x="74" y="359"/>
      <point x="411" y="0"/>
    </contour>
    <component base="E" xOffset="1142"/>
  </outline>
</glyph>
<glyph name="tbar" format="2">
  <advance width="1094"/>
  <unicode hex="0167"/>
  <outline>
    <contour>
      <point x="63" y="770" type="line"/>
      <point x="989" y="770" type="line"/>
      <point x="1023" y="974" type="line"/>
      <point x="98" y="974" type="line"/>
    </contour>
    <component base="t"/>
  </outline>
</glyph>
<glyph name="longs" format="2">
  <advance width="814"/>
  <unicode hex="017F"/>
  <outline>
    <contour>
      <point x="303" y="0" type="line"/>
      <point x="570" y="1614" type="line"/>
      <point x="591" y="1739"/>
      <point x="675" y="1805"/>
      <point x="810" y="1805" type="curve" smooth="yes"/>
      <point x="871" y="1805"/>
      <point x="904" y="1801"/>
      <point x="942" y="1793" type="curve"/>
      <point x="1030" y="2112" type="line"/>
      <point x="953" y="2128"/>
      <point x="882" y="2140"/>
      <point x="809" y="2140" type="curve" smooth="yes"/>
      <point x="447" y="2140"/>
      <point x="204" y="1957"/>
      <point x="148" y="1614" type="curve"/>
      <point x="-119" y="0" type="line"/>
    </contour>
  </outline>
</glyph>
<glyph name="Bhook" format="2">
  <advance width="2440"/>
  <unicode hex="0181"/>
  <outline>
    <contour>
      <point x="1138" y="1694" type="line"/>
      <point x="1196" y="2048" type="line"/>
      <point x="898" y="2048" type="line" smooth="yes"/>
      <point x="534" y="2048"/>
      <point x="275" y="1843"/>
      <point x="225" y="1520" type="curve" smooth="yes"/>
      <point x="193" y="1319" type="line"/>
      <point x="578" y="1319" type="line"/>
      <point x="598" y="1438" type="line" smooth="yes"/>
      <point x="616" y="1562"/>
      <point x="675" y="1694"/>
      <point x="842" y="1694" type="curve" smooth="yes"/>
    </contour>
    <component base="B" xOffset="579"/>
  </outline>
</glyph>
<glyph name="Tonesix" format="2">
  <advance width="2209"/>
  <unicode hex="0184"/>
  <outline>
    <contour>
      <point x="1102" y="2048" type="line"/>
      <point x="247" y="2048" type="line"/>
      <point x="187" y="1691" type="line"/>
      <point x="1042" y="1691" type="line"/>
    </contour>
    <contour>
      <point x="894" y="1291" type="line"/>
      <point x="837" y="949" type="line"/>
      <point x="1325" y="949" type="line"/>
      <point x="1556" y="949"/>
      <point x="1663" y="821"/>
      <point x="1636" y="658" type="curve"/>
      <point x="1608" y="490"/>
      <point x="1456" y="348"/>
      <point x="1225" y="348" type="curve"/>
      <point x="892" y="348" type="line"/>
      <point x="1174" y="2048" type="line"/>
      <point x="742" y="2048" type="line"/>
      <point x="402" y="0" type="line"/>
      <point x="1167" y="0" type="line"/>
      <point x="1652" y="0"/>
      <point x="1999" y="267"/>
      <point x="2065" y="654" type="curve"/>
      <point x="2129" y="1042"/>
      <point x="1867" y="1291"/>
      <point x="1382" y="1291" type="curve"/>
    </contour>
  </outline>
</glyph>
<glyph name="tonesix" format="2">
  <advance width="1882"/>
  <unicode hex="0185"/>
  <outline>
    <contour>
      <point x="595" y="2112" type="line"/>
      <point x="292" y="1875" type="line"/>
      <point x="258" y="1672" type="line"/>
      <point x="483" y="1440" type="line"/>
      <point x="554" y="1440" type="line"/>
      <point x="666" y="2112" type="line"/>
    </contour>
    <contour>
      <point x="720" y="1359" type="line"/>
      <point x="522" y="169" type="line"/>
      <point x="710" y="169" type="line"/>
      <point x="744" y="61"/>
      <point x="851" y="-25"/>
      <point x="1054" y="-25" type="curve" smooth="yes"/>
      <point x="1399" y="-25"/>
      <point x="1724" y="250"/>
      <point x="1810" y="766" type="curve" smooth="yes"/>
      <point x="1896" y="1294"/>
      <point x="1651" y="1556"/>
      <point x="1317" y="1556" type="curve" smooth="yes"/>
      <point x="1131" y="1556"/>
      <point x="980" y="1473"/>
      <point x="908" y="1359" type="curve"/>
    </contour>
    <contour>
      <point x="1406" y="768" type="curve" smooth="yes"/>
      <point x="1358" y="493"/>
      <point x="1216" y="314"/>
      <point x="994" y="314" type="curve" smooth="yes"/>
      <point x="756" y="314"/>
      <point x="708" y="518"/>
      <point x="750" y="768" type="curve" smooth="yes"/>
      <point x="791" y="1018"/>
      <point x="906" y="1217"/>
      <point x="1142" y="1217" type="curve" smooth="yes"/>
      <point x="1367" y="1217"/>
      <point x="1449" y="1042"/>
    </contour>
    <contour>
      <point x="579" y="2048" type="line"/>
      <point x="239" y="0" type="line"/>
      <point x="659" y="0" type="line"/>
      <point x="710" y="302" type="line"/>
      <point x="635" y="750" type="line"/>
      <point x="875" y="1256" type="line"/>
      <point x="1005" y="2048" type="line"/>
    </contour>
  </outline>
</glyph>
<glyph name="Oopen" format="2">
  <advance width="2118"/>
  <unicode hex="0186"/>
  <outline>
    <contour>
      <point x="875" y="-28" type="curve" smooth="yes"/>
      <point x="1432" y="-28"/>
      <point x="1911" y="366"/>
      <point x="2022" y="1043" type="curve"/>
      <point x="2131" y="1706"/>
      <point x="1789" y="2076"/>
      <point x="1259" y="2076" type="curve" smooth="yes"/>
      <point x="774" y="2076"/>
      <point x="365" y="1804"/>
      <point x="230" y="1331" type="curve"/>
      <point x="662" y="1331" type="line"/>
      <point x="733" y="1558"/>
      <point x="921" y="1693"/>
      <point x="1151" y="1693" type="curve" smooth="yes"/>
      <point x="1474" y="1693"/>
      <point x="1651" y="1441"/>
      <point x="1578" y="1005" type="curve"/>
      <point x="1507" y="576"/>
      <point x="1267" y="355"/>
      <point x="968" y="355" type="curve" smooth="yes"/>
      <point x="726" y="355"/>
      <point x="564" y="483"/>
      <point x="560" y="700" type="curve"/>
      <point x="125" y="700" type="line"/>
      <point x="108" y="323"/>
      <point x="359" y="-28"/>
    </contour>
  </outline>
</glyph>
<glyph name="Chook" format="2">
  <advance width="2354"/>
  <unicode hex="0187"/>
  <outline>
    <contour>
      <point x="2074" y="1331" type="line"/>
      <point x="2102" y="1503" type="line" smooth="yes"/>
      <point x="2130" y="1697"/>
      <point x="2293" y="1759"/>
      <point x="2420" y="1759" type="curve"/>
      <point x="2454" y="1759"/>
      <point x="2511" y="1755"/>
      <point x="2542" y="1754" type="curve"/>
      <point x="2598" y="2098" type="line"/>
      <point x="2530" y="2110"/>
      <point x="2468" y="2110"/>
      <point x="2398" y="2110" type="curve" smooth="yes"/>
      <point x="2071" y="2110"/>
      <point x="1752" y="1917"/>
      <point x="1695" y="1558" type="curve" smooth="yes"/>
      <point x="1658" y="1331" type="line"/>
    </contour>
    <component base="C"/>
  </outline>
</glyph>
<glyph name="chook" format="2">
  <advance width="1811"/>
  <unicode hex="0188"/>
  <outline>
    <contour>
      <point x="1587" y="968" type="line"/>
      <point x="1628" y="1199" type="line" smooth="yes"/>
      <point x="1652" y="1340"/>
      <point x="1720" y="1393"/>
      <point x="1838" y="1393" type="curve" smooth="yes"/>
      <point x="1879" y="1393"/>
      <point x="1909" y="1386"/>
      <point x="1943" y="1382" type="curve"/>
      <point x="1990" y="1662" type="line"/>
      <point x="1933" y="1678"/>
      <point x="1874" y="1686"/>
      <point x="1817" y="1686" type="curve" smooth="yes"/>
      <point x="1530" y="1686"/>
      <point x="1286" y="1511"/>
      <point x="1234" y="1202" type="curve" smooth="yes"/>
      <point x="1193" y="968" type="line"/>
    </contour>
    <component base="c"/>
  </outline>
</glyph>
<glyph name="Dhook" format="2">
  <advance width="2634"/>
  <unicode hex="018A"/>
  <outline>
    <contour>
      <point x="190" y="1319" type="line"/>
      <point x="576" y="1319" type="line"/>
      <point x="595" y="1438" type="line" smooth="yes"/>
      <point x="615" y="1562"/>
      <point x="669" y="1677"/>
      <point x="834" y="1677" type="curve" smooth="yes"/>
      <point x="1131" y="1677" type="line"/>
      <point x="1194" y="2048" type="line"/>
      <point x="895" y="2048" type="line" smooth="yes"/>
      <point x="532" y="2048"/>
      <point x="273" y="1842"/>
      <point x="222" y="1520" type="curve" smooth="yes"/>
    </contour>
    <component base="D" xOffset="586"/>
  </outline>
</glyph>
<glyph name="Dtopbar" format="2">
  <advance width="1889"/>
  <unicode hex="018B"/>
  <outline>
    <contour>
      <point x="1594" y="0" type="line"/>
      <point x="1934" y="2040" type="line"/>
      <point x="577" y="2040" type="line"/>
      <point x="519" y="1686" type="line"/>
      <point x="1441" y="1686" type="line"/>
      <point x="1376" y="1294" type="line"/>
      <point x="1047" y="1294" type="line" smooth="yes"/>
      <point x="562" y="1294"/>
      <point x="213" y="1039"/>
      <point x="150" y="654" type="curve" smooth="yes"/>
      <point x="86" y="270"/>
      <point x="345" y="0"/>
      <point x="830" y="0" type="curve" smooth="yes"/>
    </contour>
    <contour>
      <point x="1218" y="348" type="line"/>
      <point x="890" y="348" type="line" smooth="yes"/>
      <point x="654" y="348"/>
      <point x="560" y="490"/>
      <point x="587" y="658" type="curve" smooth="yes"/>
      <point x="614" y="821"/>
      <point x="752" y="947"/>
      <point x="988" y="947" type="curve" smooth="yes"/>
      <point x="1317" y="947" type="line"/>
    </contour>
  </outline>
</glyph>
<glyph name="deltaturn" format="2">
  <advance width="1844"/>
  <unicode hex="018D"/>
  <outline>
    <contour>
      <point x="1259" y="-516" type="line"/>
      <point x="1294" y="-299" type="line"/>
      <point x="1218" y="-200"/>
      <point x="1037" y="5"/>
      <point x="926" y="110" type="curve"/>
      <point x="947" y="110"/>
      <point x="966" y="110"/>
      <point x="978" y="111" type="curve" smooth="yes"/>
      <point x="1305" y="162"/>
      <point x="1593" y="428"/>
      <point x="1656" y="804" type="curve" smooth="yes"/>
      <point x="1660" y="832" type="line" smooth="yes"/>
      <point x="1726" y="1224"/>
      <point x="1511" y="1516"/>
      <point x="1047" y="1516" type="curve" smooth="yes"/>
      <point x="582" y="1516"/>
      <point x="272" y="1202"/>
      <point x="203" y="784" type="curve" smooth="yes"/>
      <point x="199" y="756" type="line" smooth="yes"/>
      <point x="150" y="458"/>
      <point x="306" y="222"/>
      <point x="548" y="0" type="curve" smooth="yes"/>
      <point x="646" y="-86"/>
      <point x="732" y="-150"/>
      <point x="769" y="-184" type="curve"/>
      <point x="192" y="-184" type="line"/>
      <point x="137" y="-516" type="line"/>
    </contour>
    <contour>
      <point x="1229" y="756" type="line"/>
      <point x="1188" y="519"/>
      <point x="1070" y="325"/>
      <point x="842" y="325" type="curve" smooth="yes"/>
      <point x="813" y="325"/>
      <point x="791" y="326"/>
      <point x="766" y="336" type="curve"/>
      <point x="662" y="403"/>
      <point x="582" y="550"/>
      <point x="618" y="756" type="curve" smooth="yes"/>
      <point x="622" y="784" type="line" smooth="yes"/>
      <point x="657" y="995"/>
      <point x="761" y="1181"/>
      <point x="992" y="1181" type="curve" smooth="yes"/>
      <point x="1235" y="1181"/>
      <point x="1265" y="981"/>
      <point x="1233" y="784" type="curve" smooth="yes"/>
    </contour>
  </outline>
</glyph>
<glyph name="Schwa" format="2">
  <advance width="2152"/>
  <unicode hex="018F"/>
  <outline>
    <contour>
      <point x="949" y="-28" type="curve" smooth="yes"/>
      <point x="1448" y="-28"/>
      <point x="1896" y="349"/>
      <point x="1986" y="890" type="curve" smooth="yes"/>
      <point x="2021" y="1106" type="line" smooth="yes"/>
      <point x="2113" y="1647"/>
      <point x="1833" y="2032"/>
      <point x="1192" y="2032" type="curve" smooth="yes"/>
      <point x="889" y="2032"/>
      <point x="595" y="1955"/>
      <point x="532" y="1926" type="curve"/>
      <point x="542" y="1567" type="line"/>
      <point x="658" y="1602"/>
      <point x="853" y="1647"/>
      <point x="1108" y="1647" type="curve" smooth="yes"/>
      <point x="1533" y="1647"/>
      <point x="1636" y="1403"/>
      <point x="1584" y="1106" type="curve" smooth="yes"/>
      <point x="1550" y="890" type="line" smooth="yes"/>
      <point x="1499" y="592"/>
      <point x="1309" y="353"/>
      <point x="1013" y="353" type="curve" smooth="yes"/>
      <point x="680" y="353"/>
      <point x="585" y="528"/>
      <point x="620" y="754" type="curve" smooth="yes"/>
      <point x="628" y="795" type="line"/>
      <point x="1650" y="795" type="line"/>
      <point x="1708" y="1148" type="line"/>
      <point x="250" y="1148" type="line"/>
      <point x="213" y="916" type="line" smooth="yes"/>
      <point x="117" y="338"/>
      <point x="365" y="-28"/>
    </contour>
  </outline>
</glyph>
<glyph name="Epsilon1" format="2">
  <advance width="1886"/>
  <unicode hex="0190"/>
  <outline>
    <contour>
      <point x="1221" y="960" type="line"/>
      <point x="1258" y="1189" type="line"/>
      <point x="1008" y="1189" type="line" smooth="yes"/>
      <point x="795" y="1189"/>
      <point x="712" y="1279"/>
      <point x="740" y="1450" type="curve" smooth="yes"/>
      <point x="764" y="1582"/>
      <point x="880" y="1680"/>
      <point x="1109" y="1680" type="curve" smooth="yes"/>
      <point x="1288" y="1680"/>
      <point x="1401" y="1608"/>
      <point x="1375" y="1463" type="curve"/>
      <point x="1810" y="1463" type="line"/>
      <point x="1872" y="1815"/>
      <point x="1567" y="2032"/>
      <point x="1166" y="2032" type="curve" smooth="yes"/>
      <point x="708" y="2032"/>
      <point x="366" y="1832"/>
      <point x="305" y="1460" type="curve" smooth="yes"/>
      <point x="254" y="1154"/>
      <point x="518" y="960"/>
      <point x="907" y="960" type="curve"/>
    </contour>
    <contour>
      <point x="927" y="1080" type="line"/>
      <point x="483" y="1080"/>
      <point x="178" y="896"/>
      <point x="121" y="560" type="curve" smooth="yes"/>
      <point x="56" y="154"/>
      <point x="360" y="-28"/>
      <point x="826" y="-28" type="curve" smooth="yes"/>
      <point x="1200" y="-28"/>
      <point x="1624" y="148"/>
      <point x="1691" y="556" type="curve"/>
      <point x="1254" y="556" type="line"/>
      <point x="1232" y="418"/>
      <point x="1092" y="320"/>
      <point x="884" y="320" type="curve" smooth="yes"/>
      <point x="672" y="320"/>
      <point x="536" y="393"/>
      <point x="562" y="570" type="curve" smooth="yes"/>
      <point x="599" y="786"/>
      <point x="738" y="855"/>
      <point x="953" y="855" type="curve" smooth="yes"/>
      <point x="1203" y="855" type="line"/>
      <point x="1241" y="1080" type="line"/>
    </contour>
  </outline>
</glyph>
<glyph name="Fhook" format="2">
  <advance width="1714"/>
  <unicode hex="0191"/>
  <outline>
    <contour>
      <point x="118" y="0" type="line"/>
      <point x="103" y="-93" type="line" smooth="yes"/>
      <point x="83" y="-216"/>
      <point x="-26" y="-243"/>
      <point x="-130" y="-243" type="curve" smooth="yes"/>
      <point x="-161" y="-243"/>
      <point x="-199" y="-244"/>
      <point x="-219" y="-240" type="curve"/>
      <point x="-273" y="-566" type="line"/>
      <point x="-227" y="-576"/>
      <point x="-139" y="-576"/>
      <point x="-94" y="-576" type="curve" smooth="yes"/>
      <point x="189" y="-576"/>
      <point x="468" y="-490"/>
      <point x="534" y="-94" type="curve" smooth="yes"/>
      <point x="550" y="0" type="line"/>
    </contour>
    <component base="F" xOffset="67"/>
  </outline>
</glyph>
<glyph name="florin" format="2">
  <advance width="1321"/>
  <unicode hex="0192"/>
  <outline>
    <contour>
      <point x="1250" y="1488" type="line"/>
      <point x="951" y="1488" type="line"/>
      <point x="970" y="1614" type="line" smooth="yes"/>
      <point x="992" y="1739"/>
      <point x="1080" y="1803"/>
      <point x="1208" y="1803" type="curve" smooth="yes"/>
      <point x="1274" y="1803"/>
      <point x="1310" y="1798"/>
      <point x="1345" y="1790" type="curve"/>
      <point x="1438" y="2111" type="line"/>
      <point x="1372" y="2126"/>
      <point x="1292" y="2140"/>
      <point x="1206" y="2140" type="curve" smooth="yes"/>
      <point x="860" y="2140"/>
      <point x="615" y="1957"/>
      <point x="557" y="1614" type="curve" smooth="yes"/>
      <point x="538" y="1488" type="line"/>
      <point x="306" y="1488" type="line"/>
      <point x="256" y="1186" type="line"/>
      <point x="487" y="1186" type="line"/>
      <point x="282" y="-59" type="line" smooth="yes"/>
      <point x="260" y="-186"/>
      <point x="209" y="-265"/>
      <point x="83" y="-265" type="curve" smooth="yes"/>
      <point x="48" y="-265"/>
      <point x="-12" y="-258"/>
      <point x="-44" y="-249" type="curve"/>
      <point x="-119" y="-580" type="line"/>
      <point x="-44" y="-596"/>
      <point x="14" y="-600"/>
      <point x="83" y="-600" type="curve" smooth="yes"/>
      <point x="412" y="-600"/>
      <point x="637" y="-410"/>
      <point x="695" y="-59" type="curve" smooth="yes"/>
      <point x="901" y="1186" type="line"/>
      <point x="1200" y="1186" type="line"/>
    </contour>
  </outline>
</glyph>
<glyph name="Ghook" format="2">
  <advance width="2351"/>
  <unicode hex="0193"/>
  <outline>
    <contour>
      <point x="2078" y="1386" type="line"/>
      <point x="2131" y="1698" type="line" smooth="yes"/>
      <point x="2159" y="1866"/>
      <point x="2289" y="1899"/>
      <point x="2430" y="1899" type="curve" smooth="yes"/>
      <point x="2469" y="1899"/>
      <point x="2507" y="1893"/>
      <point x="2545" y="1889" type="curve"/>
      <point x="2601" y="2228" type="line"/>
      <point x="2536" y="2245"/>
      <point x="2472" y="2252"/>
      <point x="2404" y="2252" type="curve" smooth="yes"/>
      <point x="2069" y="2252"/>
      <point x="1756" y="2056"/>
      <point x="1692" y="1698" type="curve" smooth="yes"/>
      <point x="1637" y="1386" type="line"/>
    </contour>
    <component base="G"/>
  </outline>
</glyph>
<glyph name="Gamma1" format="2">
  <advance width="2098"/>
  <unicode hex="0194"/>
  <outline>
    <contour>
      <point x="322" y="2012" type="line"/>
      <point x="902" y="166" type="line" smooth="yes"/>
      <point x="961" y="-24"/>
      <point x="982" y="-118"/>
      <point x="970" y="-198" type="curve" smooth="yes"/>
      <point x="962" y="-247"/>
      <point x="938" y="-299"/>
      <point x="873" y="-299" type="curve" smooth="yes"/>
      <point x="810" y="-299"/>
      <point x="799" y="-254"/>
      <point x="807" y="-198" type="curve" smooth="yes"/>
      <point x="822" y="-113"/>
      <point x="884" y="-18"/>
      <point x="1000" y="166" type="curve" smooth="yes"/>
      <point x="2186" y="2012" type="line"/>
      <point x="1692" y="2012" type="line"/>
      <point x="905" y="686" type="line" smooth="yes"/>
      <point x="658" y="272"/>
      <point x="399" y="-78"/>
      <point x="375" y="-212" type="curve" smooth="yes"/>
      <point x="330" y="-487"/>
      <point x="548" y="-600"/>
      <point x="821" y="-600" type="curve" smooth="yes"/>
      <point x="1094" y="-600"/>
      <point x="1340" y="-487"/>
      <point x="1386" y="-212" type="curve" smooth="yes"/>
      <point x="1408" y="-79"/>
      <point x="1278" y="277"/>
      <point x="1167" y="686" type="curve" smooth="yes"/>
      <point x="813" y="2012" type="line"/>
    </contour>
  </outline>
</glyph>
<glyph name="hv" format="2">
  <advance width="2770"/>
  <unicode hex="0195"/>
  <note>
Note: Must be split in two, or conversion to quadratic curves will fail.
</note>
  <outline>
    <contour>
      <point x="45" y="0" type="line"/>
      <point x="470" y="0" type="line"/>
      <point x="618" y="888" type="line" smooth="yes"/>
      <point x="652" y="1086"/>
      <point x="793" y="1202"/>
      <point x="966" y="1202" type="curve" smooth="yes"/>
      <point x="1139" y="1202"/>
      <point x="1222" y="1091"/>
      <point x="1191" y="902" type="curve" smooth="yes"/>
      <point x="1169" y="768" type="line"/>
      <point x="1594" y="768" type="line"/>
      <point x="1630" y="978" type="line" smooth="yes"/>
      <point x="1689" y="1338"/>
      <point x="1514" y="1556"/>
      <point x="1195" y="1556" type="curve" smooth="yes"/>
      <point x="960" y="1556"/>
      <point x="786" y="1446"/>
      <point x="687" y="1265" type="curve"/>
      <point x="670" y="1265" type="line"/>
      <point x="798" y="2048" type="line"/>
      <point x="385" y="2048" type="line"/>
    </contour>
    <contour>
      <point x="1657" y="-28" type="curve" smooth="yes"/>
      <point x="2209" y="-28"/>
      <point x="2542" y="427"/>
      <point x="2698" y="1366" type="curve"/>
      <point x="2727" y="1536" type="line"/>
      <point x="2302" y="1536" type="line"/>
      <point x="2273" y="1366" type="line" smooth="yes"/>
      <point x="2156" y="665"/>
      <point x="1969" y="324"/>
      <point x="1733" y="324" type="curve" smooth="yes"/>
      <point x="1625" y="324"/>
      <point x="1531" y="390"/>
      <point x="1566" y="598" type="curve"/>
      <point x="1594" y="768" type="line"/>
      <point x="1169" y="768" type="line"/>
      <point x="1141" y="598" type="line" smooth="yes"/>
      <point x="1075" y="201"/>
      <point x="1264" y="-28"/>
    </contour>
  </outline>
</glyph>
<glyph name="Iota1" format="2">
  <advance width="1094"/>
  <unicode hex="0196"/>
  <outline>
    <contour>
      <point x="795" y="2112" type="line"/>
      <point x="373" y="2112" type="line"/>
      <point x="106" y="498" type="line" smooth="yes"/>
      <point x="49" y="159"/>
      <point x="229" y="-28"/>
      <point x="589" y="-28" type="curve" smooth="yes"/>
      <point x="663" y="-28"/>
      <point x="742" y="-16"/>
      <point x="818" y="0" type="curve"/>
      <point x="841" y="323" type="line"/>
      <point x="798" y="315"/>
      <point x="765" y="310"/>
      <point x="700" y="310" type="curve" smooth="yes"/>
      <point x="567" y="310"/>
      <point x="508" y="377"/>
      <point x="528" y="498" type="curve" smooth="yes"/>
    </contour>
  </outline>
</glyph>
<glyph name="Khook" format="2">
  <advance width="2053"/>
  <unicode hex="0198"/>
  <outline>
    <contour>
      <point x="50" y="0" type="line"/>
      <point x="483" y="0" type="line"/>
      <point x="571" y="530" type="line"/>
      <point x="866" y="796" type="line"/>
      <point x="1336" y="0" type="line"/>
      <point x="1854" y="0" type="line"/>
      <point x="1192" y="1102" type="line"/>
      <point x="1760" y="1606" type="line" smooth="yes"/>
      <point x="1865" y="1698"/>
      <point x="1943" y="1734"/>
      <point x="2046" y="1675" type="curve"/>
      <point x="2235" y="1982" type="line"/>
      <point x="2002" y="2134"/>
      <point x="1741" y="2096"/>
      <point x="1495" y="1878" type="curve" smooth="yes"/>
      <point x="703" y="1166" type="line"/>
      <point x="677" y="1166" type="line"/>
      <point x="823" y="2048" type="line"/>
      <point x="390" y="2048" type="line"/>
    </contour>
  </outline>
</glyph>
<glyph name="khook" format="2">
  <advance width="1625"/>
  <unicode hex="0199"/>
  <outline>
    <contour>
      <point x="1022" y="0" type="line"/>
      <point x="1488" y="0" type="line"/>
      <point x="1021" y="880" type="line"/>
      <point x="1709" y="1536" type="line"/>
      <point x="1212" y="1536" type="line"/>
      <point x="654" y="998" type="line"/>
      <point x="634" y="998" type="line"/>
      <point x="715" y="1492" type="line"/>
      <point x="290" y="1492" type="line"/>
      <point x="42" y="0" type="line"/>
      <point x="468" y="0" type="line"/>
      <point x="538" y="414" type="line"/>
      <point x="712" y="576" type="line"/>
    </contour>
    <contour>
      <point x="690" y="1339" type="line"/>
      <point x="732" y="1594" type="line" smooth="yes"/>
      <point x="753" y="1714"/>
      <point x="865" y="1745"/>
      <point x="973" y="1745" type="curve" smooth="yes"/>
      <point x="1009" y="1745"/>
      <point x="1044" y="1741"/>
      <point x="1076" y="1737" type="curve"/>
      <point x="1129" y="2062" type="line"/>
      <point x="1079" y="2069"/>
      <point x="1003" y="2076"/>
      <point x="914" y="2076" type="curve" smooth="yes"/>
      <point x="654" y="2076"/>
      <point x="373" y="1990"/>
      <point x="306" y="1594" type="curve" smooth="yes"/>
      <point x="265" y="1339" type="line"/>
    </contour>
  </outline>
</glyph>
<glyph name="lambdabar" format="2">
  <advance width="1882"/>
  <unicode hex="019B"/>
  <outline>
    <contour>
      <point x="1282" y="1887" type="line"/>
      <point x="432" y="1632" type="line"/>
      <point x="389" y="1359" type="line"/>
      <point x="1234" y="1618" type="line"/>
    </contour>
    <contour>
      <point x="950" y="934" type="line"/>
      <point x="1131" y="1528" type="line"/>
      <point x="842" y="1530" type="line"/>
      <point x="22" y="0" type="line"/>
      <point x="474" y="0" type="line"/>
    </contour>
    <contour>
      <point x="777" y="2131" type="curve"/>
      <point x="716" y="2131"/>
      <point x="600" y="2121"/>
      <point x="536" y="2103" type="curve"/>
      <point x="493" y="1790" type="line"/>
      <point x="528" y="1794"/>
      <point x="556" y="1794"/>
      <point x="578" y="1794" type="curve" smooth="yes"/>
      <point x="673" y="1794"/>
      <point x="725" y="1756"/>
      <point x="746" y="1673" type="curve" smooth="yes"/>
      <point x="844" y="1318" type="line"/>
      <point x="1057" y="286" type="line" smooth="yes"/>
      <point x="1098" y="88"/>
      <point x="1204" y="-26"/>
      <point x="1436" y="-26" type="curve" smooth="yes"/>
      <point x="1500" y="-26"/>
      <point x="1556" y="-26"/>
      <point x="1594" y="-18" type="curve"/>
      <point x="1648" y="313" type="line"/>
      <point x="1637" y="313"/>
      <point x="1620" y="313"/>
      <point x="1600" y="313" type="curve" smooth="yes"/>
      <point x="1524" y="313"/>
      <point x="1496" y="390"/>
      <point x="1475" y="466" type="curve" smooth="yes"/>
      <point x="1124" y="1894" type="line" smooth="yes"/>
      <point x="1086" y="2045"/>
      <point x="984" y="2131"/>
    </contour>
  </outline>
</glyph>
<glyph name="mcapturn" format="2">
  <advance width="2686"/>
  <unicode hex="019C"/>
  <outline>
    <contour>
      <point x="1976" y="352" type="line"/>
      <point x="1959" y="0" type="line"/>
      <point x="2339" y="0" type="line"/>
      <point x="2671" y="2004" type="line"/>
      <point x="2250" y="2004" type="line"/>
    </contour>
    <contour>
      <point x="2083" y="692" type="line"/>
      <point x="2047" y="476"/>
      <point x="1933" y="310"/>
      <point x="1690" y="310" type="curve" smooth="yes"/>
      <point x="1562" y="310"/>
      <point x="1486" y="388"/>
      <point x="1519" y="584" type="curve"/>
      <point x="1754" y="2004" type="line"/>
      <point x="1338" y="2004" type="line"/>
      <point x="1103" y="584" type="line"/>
      <point x="1030" y="133"/>
      <point x="1202" y="-28"/>
      <point x="1511" y="-28" type="curve" smooth="yes"/>
      <point x="1898" y="-28"/>
      <point x="2148" y="280"/>
      <point x="2216" y="696" type="curve"/>
    </contour>
    <contour>
      <point x="1172" y="692" type="line"/>
      <point x="1134" y="474"/>
      <point x="1020" y="310"/>
      <point x="777" y="310" type="curve" smooth="yes"/>
      <point x="649" y="310"/>
      <point x="575" y="388"/>
      <point x="608" y="584" type="curve" smooth="yes"/>
      <point x="842" y="2004" type="line"/>
      <point x="425" y="2004" type="line"/>
      <point x="190" y="584" type="line" smooth="yes"/>
      <point x="117" y="137"/>
      <point x="262" y="-28"/>
      <point x="598" y="-28" type="curve" smooth="yes"/>
      <point x="994" y="-28"/>
      <point x="1239" y="273"/>
      <point x="1310" y="696" type="curve"/>
    </contour>
  </outline>
</glyph>
<glyph name="Nhook" format="2">
  <advance width="2121"/>
  <unicode hex="019D"/>
  <outline>
    <contour>
      <point x="102" y="0" type="line"/>
      <point x="86" y="-93" type="line" smooth="yes"/>
      <point x="66" y="-213"/>
      <point x="-41" y="-243"/>
      <point x="-153" y="-243" type="curve"/>
      <point x="-178" y="-243"/>
      <point x="-215" y="-244"/>
      <point x="-238" y="-240" type="curve"/>
      <point x="-292" y="-566" type="line"/>
      <point x="-244" y="-575"/>
      <point x="-144" y="-578"/>
      <point x="-85" y="-578" type="curve"/>
      <point x="177" y="-578"/>
      <point x="445" y="-499"/>
      <point x="517" y="-94" type="curve" smooth="yes"/>
      <point x="534" y="0" type="line"/>
    </contour>
    <component base="N" xOffset="51"/>
  </outline>
</glyph>
<glyph name="Ohorn" format="2">
  <advance width="2290"/>
  <unicode hex="01A0"/>
  <outline>
    <contour>
      <point x="2211" y="2148" type="line"/>
      <point x="2170" y="1899"/>
      <point x="2086" y="1754"/>
      <point x="1892" y="1754" type="curve"/>
      <point x="1855" y="1534" type="line"/>
      <point x="2221" y="1534"/>
      <point x="2421" y="1759"/>
      <point x="2486" y="2148" type="curve"/>
    </contour>
    <component base="O"/>
  </outline>
</glyph>
<glyph name="OI" format="2">
  <advance width="2622"/>
  <unicode hex="01A2"/>
  <outline>
    <contour>
      <point x="1902" y="1170" type="line"/>
      <point x="1482" y="1170" type="line"/>
      <point x="1358" y="418" type="line"/>
      <point x="1299" y="377"/>
      <point x="1201" y="320"/>
      <point x="1000" y="320" type="curve" smooth="yes"/>
      <point x="662" y="320"/>
      <point x="565" y="569"/>
      <point x="626" y="942" type="curve" smooth="yes"/>
      <point x="643" y="1040" type="line"/>
      <point x="198" y="1036" type="line"/>
      <point x="183" y="942" type="line" smooth="yes"/>
      <point x="81" y="322"/>
      <point x="386" y="-28"/>
      <point x="918" y="-28" type="curve" smooth="yes"/>
      <point x="1369" y="-28"/>
      <point x="1637" y="143"/>
      <point x="1750" y="255" type="curve"/>
    </contour>
    <contour>
      <point x="1998" y="1749" type="line"/>
      <point x="1922" y="1863"/>
      <point x="1711" y="2032"/>
      <point x="1258" y="2032" type="curve" smooth="yes"/>
      <point x="724" y="2032"/>
      <point x="307" y="1676"/>
      <point x="205" y="1062" type="curve" smooth="yes"/>
      <point x="187" y="958" type="line"/>
      <point x="630" y="956" type="line"/>
      <point x="647" y="1062" type="line" smooth="yes"/>
      <point x="711" y="1457"/>
      <point x="891" y="1682"/>
      <point x="1225" y="1682" type="curve" smooth="yes"/>
      <point x="1411" y="1682"/>
      <point x="1499" y="1639"/>
      <point x="1551" y="1586" type="curve"/>
      <point x="1425" y="827" type="line"/>
      <point x="1848" y="832" type="line"/>
    </contour>
    <contour>
      <point x="2670" y="2004" type="line"/>
      <point x="2355" y="2004" type="line"/>
      <point x="1772" y="1757" type="line"/>
      <point x="1698" y="1306" type="line"/>
      <point x="2170" y="1504" type="line"/>
      <point x="1829" y="-572" type="line"/>
      <point x="2246" y="-572" type="line"/>
    </contour>
  </outline>
</glyph>
<glyph name="oi" format="2">
  <advance width="2093"/>
  <unicode hex="01A3"/>
  <outline>
    <contour>
      <point x="738" y="310" type="curve" smooth="yes"/>
      <point x="511" y="310"/>
      <point x="485" y="497"/>
      <point x="525" y="726" type="curve" smooth="yes"/>
      <point x="530" y="762" type="line" smooth="yes"/>
      <point x="564" y="971"/>
      <point x="642" y="1181"/>
      <point x="878" y="1181" type="curve"/>
      <point x="965" y="1181"/>
      <point x="1019" y="1152"/>
      <point x="1052" y="1100" type="curve"/>
      <point x="1000" y="782" type="line"/>
      <point x="1415" y="753" type="line"/>
      <point x="1484" y="1177" type="line"/>
      <point x="1425" y="1328"/>
      <point x="1247" y="1516"/>
      <point x="946" y="1516" type="curve" smooth="yes"/>
      <point x="469" y="1516"/>
      <point x="183" y="1185"/>
      <point x="113" y="762" type="curve" smooth="yes"/>
      <point x="107" y="726" type="line" smooth="yes"/>
      <point x="34" y="301"/>
      <point x="211" y="-28"/>
      <point x="690" y="-28" type="curve"/>
      <point x="1008" y="-28"/>
      <point x="1205" y="110"/>
      <point x="1336" y="279" type="curve"/>
      <point x="1430" y="842" type="line"/>
      <point x="1010" y="842" type="line"/>
      <point x="933" y="372" type="line"/>
      <point x="883" y="331"/>
      <point x="815" y="310"/>
    </contour>
    <contour>
      <point x="2102" y="1488" type="line"/>
      <point x="1814" y="1488" type="line"/>
      <point x="1318" y="1287" type="line"/>
      <point x="1253" y="886" type="line"/>
      <point x="1602" y="1017" type="line"/>
      <point x="1342" y="-572" type="line"/>
      <point x="1762" y="-572" type="line"/>
    </contour>
  </outline>
</glyph>
<glyph name="Phook" format="2">
  <advance width="2403"/>
  <unicode hex="01A4"/>
  <note>
!post:RemoveOverlap
</note>
  <outline>
    <contour>
      <point x="578" y="1319" type="line"/>
      <point x="598" y="1438" type="line" smooth="yes"/>
      <point x="617" y="1562"/>
      <point x="675" y="1694"/>
      <point x="842" y="1694" type="curve" smooth="yes"/>
      <point x="1138" y="1694" type="line"/>
      <point x="1196" y="2048" type="line"/>
      <point x="898" y="2048" type="line" smooth="yes"/>
      <point x="533" y="2048"/>
      <point x="276" y="1842"/>
      <point x="225" y="1520" type="curve" smooth="yes"/>
      <point x="193" y="1319" type="line"/>
    </contour>
    <component base="P" xOffset="579"/>
  </outline>
</glyph>
<glyph name="YR" format="2">
  <advance width="2147"/>
  <unicode hex="01A6"/>
  <outline>
    <contour>
      <point x="320" y="1864" type="line"/>
      <point x="757" y="1864" type="line"/>
      <point x="805" y="2144" type="line"/>
      <point x="368" y="2144" type="line"/>
    </contour>
    <contour>
      <point x="342" y="2004" type="line"/>
      <point x="10" y="0" type="line"/>
      <point x="449" y="0" type="line"/>
      <point x="723" y="1652" type="line"/>
      <point x="1060" y="1652" type="line" smooth="yes"/>
      <point x="1281" y="1652"/>
      <point x="1370" y="1540"/>
      <point x="1339" y="1359" type="curve" smooth="yes"/>
      <point x="1312" y="1186"/>
      <point x="1180" y="1072"/>
      <point x="965" y="1072" type="curve" smooth="yes"/>
      <point x="475" y="1072" type="line"/>
      <point x="420" y="724" type="line"/>
      <point x="1083" y="724" type="line"/>
      <point x="1235" y="802" type="line"/>
      <point x="1522" y="897"/>
      <point x="1728" y="1064"/>
      <point x="1782" y="1398" type="curve" smooth="yes"/>
      <point x="1846" y="1792"/>
      <point x="1590" y="2004"/>
      <point x="1118" y="2004" type="curve" smooth="yes"/>
    </contour>
    <contour>
      <point x="1337" y="-482" type="line"/>
      <point x="1804" y="-482" type="line"/>
      <point x="1806" y="-463" type="line"/>
      <point x="1301" y="893" type="line"/>
      <point x="840" y="893" type="line"/>
    </contour>
  </outline>
</glyph>
<glyph name="eshlooprev" format="2">
  <advance width="1837"/>
  <unicode hex="01AA"/>
  <outline>
    <contour>
      <point x="1018" y="1392" type="line"/>
      <point x="782" y="-30" type="line" smooth="yes"/>
      <point x="722" y="-394"/>
      <point x="887" y="-594"/>
      <point x="1219" y="-594" type="curve" smooth="yes"/>
      <point x="1293" y="-594"/>
      <point x="1365" y="-588"/>
      <point x="1431" y="-572" type="curve"/>
      <point x="1484" y="-243" type="line"/>
      <point x="1436" y="-251"/>
      <point x="1396" y="-255"/>
      <point x="1358" y="-255" type="curve" smooth="yes"/>
      <point x="1235" y="-255"/>
      <point x="1176" y="-184"/>
      <point x="1202" y="-30" type="curve" smooth="yes"/>
      <point x="1474" y="1606" type="line"/>
    </contour>
    <contour>
      <point x="325" y="1606" type="curve" smooth="yes"/>
      <point x="271" y="1295"/>
      <point x="488" y="1042"/>
      <point x="804" y="1042" type="curve" smooth="yes"/>
      <point x="1119" y="1042"/>
      <point x="1423" y="1298"/>
      <point x="1474" y="1606" type="curve" smooth="yes"/>
      <point x="1523" y="1914"/>
      <point x="1307" y="2170"/>
      <point x="991" y="2170" type="curve" smooth="yes"/>
      <point x="673" y="2170"/>
      <point x="374" y="1914"/>
    </contour>
    <contour>
      <point x="867" y="1400" type="curve" smooth="yes"/>
      <point x="747" y="1400"/>
      <point x="669" y="1470"/>
      <point x="694" y="1610" type="curve" smooth="yes"/>
      <point x="715" y="1745"/>
      <point x="814" y="1816"/>
      <point x="934" y="1816" type="curve" smooth="yes"/>
      <point x="1043" y="1816"/>
      <point x="1123" y="1747"/>
      <point x="1102" y="1610" type="curve" smooth="yes"/>
      <point x="1077" y="1470"/>
      <point x="978" y="1400"/>
    </contour>
  </outline>
</glyph>
<glyph name="tpalatalhook" format="2">
  <advance width="1104"/>
  <unicode hex="01AB"/>
  <outline>
    <contour>
      <point x="650" y="294" type="line"/>
      <point x="586" y="-94" type="line" smooth="yes"/>
      <point x="560" y="-247"/>
      <point x="423" y="-281"/>
      <point x="315" y="-281" type="curve" smooth="yes"/>
      <point x="272" y="-281"/>
      <point x="239" y="-277"/>
      <point x="208" y="-273" type="curve"/>
      <point x="164" y="-554" type="line"/>
      <point x="219" y="-569"/>
      <point x="274" y="-574"/>
      <point x="339" y="-574" type="curve" smooth="yes"/>
      <point x="623" y="-574"/>
      <point x="833" y="-401"/>
      <point x="884" y="-94" type="curve" smooth="yes"/>
      <point x="959" y="357" type="line"/>
    </contour>
    <component base="t"/>
  </outline>
</glyph>
<glyph name="Thook" format="2">
  <advance width="1980"/>
  <unicode hex="01AC"/>
  <note>
!post:RemoveOverlap
</note>
  <outline>
    <contour>
      <point x="1250" y="2048" type="line"/>
      <point x="874" y="2048" type="line" smooth="yes"/>
      <point x="508" y="2048"/>
      <point x="279" y="1846"/>
      <point x="225" y="1519" type="curve" smooth="yes"/>
      <point x="190" y="1322" type="line"/>
      <point x="549" y="1322" type="line"/>
      <point x="570" y="1442" type="line" smooth="yes"/>
      <point x="590" y="1565"/>
      <point x="649" y="1691"/>
      <point x="814" y="1691" type="curve" smooth="yes"/>
      <point x="1190" y="1691" type="line"/>
    </contour>
    <contour>
      <point x="2092" y="2048" type="line"/>
      <point x="949" y="2048" type="line"/>
      <point x="889" y="1691" type="line"/>
      <point x="977" y="1691" type="line"/>
      <point x="697" y="0" type="line"/>
      <point x="1125" y="0" type="line"/>
      <point x="1405" y="1691" type="line"/>
      <point x="2032" y="1691" type="line"/>
    </contour>
  </outline>
</glyph>
<glyph name="thook" format="2">
  <advance width="1310"/>
  <unicode hex="01AD"/>
  <outline>
    <contour>
      <point x="915" y="1434" type="line"/>
      <point x="957" y="1688" type="line" smooth="yes"/>
      <point x="982" y="1843"/>
      <point x="1116" y="1882"/>
      <point x="1227" y="1882" type="curve" smooth="yes"/>
      <point x="1266" y="1882"/>
      <point x="1306" y="1876"/>
      <point x="1330" y="1870" type="curve"/>
      <point x="1374" y="2148" type="line"/>
      <point x="1317" y="2162"/>
      <point x="1256" y="2170"/>
      <point x="1161" y="2170" type="curve" smooth="yes"/>
      <point x="868" y="2170"/>
      <point x="602" y="2074"/>
      <point x="539" y="1688" type="curve" smooth="yes"/>
      <point x="498" y="1434" type="line"/>
    </contour>
    <contour>
      <point x="1186" y="1488" type="line"/>
      <point x="286" y="1488" type="line"/>
      <point x="236" y="1186" type="line"/>
      <point x="1136" y="1186" type="line"/>
    </contour>
    <contour>
      <point x="521" y="1582" type="line"/>
      <point x="329" y="426" type="line"/>
      <point x="277" y="103"/>
      <point x="426" y="-28"/>
      <point x="698" y="-28" type="curve" smooth="yes"/>
      <point x="794" y="-28"/>
      <point x="878" y="-17"/>
      <point x="957" y="10" type="curve"/>
      <point x="1007" y="323" type="line"/>
      <point x="976" y="319"/>
      <point x="938" y="314"/>
      <point x="887" y="314" type="curve" smooth="yes"/>
      <point x="783" y="314"/>
      <point x="733" y="349"/>
      <point x="754" y="472" type="curve"/>
      <point x="938" y="1582" type="line"/>
    </contour>
  </outline>
</glyph>
<glyph name="Trthook" format="2">
  <advance width="1882"/>
  <unicode hex="01AE"/>
  <outline>
    <contour>
      <point x="1027" y="0" type="line"/>
      <point x="599" y="0" type="line"/>
      <point x="583" y="-94" type="line" smooth="yes"/>
      <point x="518" y="-490"/>
      <point x="772" y="-576"/>
      <point x="1037" y="-576" type="curve"/>
      <point x="1235" y="-576" type="line"/>
      <point x="1290" y="-241" type="line"/>
      <point x="1205" y="-241" type="line"/>
      <point x="1096" y="-241"/>
      <point x="991" y="-214"/>
      <point x="1011" y="-94" type="curve" smooth="yes"/>
    </contour>
    <component base="T"/>
  </outline>
</glyph>
<glyph name="Uhorn" format="2">
  <advance width="2450"/>
  <unicode hex="01AF"/>
  <outline>
    <contour>
      <point x="2300" y="2122" type="line"/>
      <point x="2256" y="1858"/>
      <point x="2202" y="1698"/>
      <point x="1895" y="1698" type="curve"/>
      <point x="1856" y="1474" type="line"/>
      <point x="2326" y="1474"/>
      <point x="2506" y="1713"/>
      <point x="2575" y="2122" type="curve"/>
    </contour>
    <component base="U"/>
  </outline>
</glyph>
<glyph name="uhorn" format="2">
  <advance width="1994"/>
  <unicode hex="01B0"/>
  <outline>
    <contour>
      <point x="1931" y="1621" type="line"/>
      <point x="1895" y="1394"/>
      <point x="1847" y="1284"/>
      <point x="1566" y="1284" type="curve"/>
      <point x="1534" y="1094" type="line"/>
      <point x="1958" y="1094"/>
      <point x="2121" y="1274"/>
      <point x="2178" y="1621" type="curve"/>
    </contour>
    <component base="u" xOffset="7"/>
  </outline>
</glyph>
<glyph name="Upsilon2" format="2">
  <advance width="2192"/>
  <unicode hex="01B1"/>
  <outline>
    <contour>
      <point x="154" y="937" type="curve" smooth="yes"/>
      <point x="61" y="372"/>
      <point x="398" y="-28"/>
      <point x="964" y="-28" type="curve" smooth="yes"/>
      <point x="1530" y="-28"/>
      <point x="1998" y="372"/>
      <point x="2092" y="937" type="curve"/>
      <point x="2149" y="1279"/>
      <point x="2044" y="1526"/>
      <point x="1833" y="1678" type="curve"/>
      <point x="1834" y="1691" type="line"/>
      <point x="2217" y="1691" type="line"/>
      <point x="2277" y="2048" type="line"/>
      <point x="1465" y="2048" type="line"/>
      <point x="1390" y="1600" type="line"/>
      <point x="1593" y="1512"/>
      <point x="1710" y="1268"/>
      <point x="1660" y="970" type="curve" smooth="yes"/>
      <point x="1604" y="619"/>
      <point x="1339" y="358"/>
      <point x="1028" y="358" type="curve" smooth="yes"/>
      <point x="717" y="358"/>
      <point x="540" y="619"/>
      <point x="596" y="970" type="curve"/>
      <point x="646" y="1268"/>
      <point x="847" y="1512"/>
      <point x="1077" y="1600" type="curve"/>
      <point x="1151" y="2048" type="line"/>
      <point x="339" y="2048" type="line"/>
      <point x="279" y="1691" type="line"/>
      <point x="662" y="1691" type="line"/>
      <point x="658" y="1675" type="line"/>
      <point x="399" y="1525"/>
      <point x="211" y="1279"/>
    </contour>
  </outline>
</glyph>
<glyph name="Vcursive" format="2">
  <advance width="1882"/>
  <unicode hex="01B2"/>
  <outline>
    <contour>
      <point x="811" y="-28" type="curve" smooth="yes"/>
      <point x="1274" y="-28"/>
      <point x="1647" y="225"/>
      <point x="1725" y="689" type="curve" smooth="yes"/>
      <point x="1851" y="1466" type="line" smooth="yes"/>
      <point x="1913" y="1829"/>
      <point x="1736" y="2030"/>
      <point x="1399" y="2030" type="curve" smooth="yes"/>
      <point x="1322" y="2030"/>
      <point x="1260" y="2022"/>
      <point x="1189" y="2006" type="curve"/>
      <point x="1131" y="1661" type="line"/>
      <point x="1179" y="1669"/>
      <point x="1221" y="1671"/>
      <point x="1257" y="1671" type="curve" smooth="yes"/>
      <point x="1398" y="1671"/>
      <point x="1437" y="1622"/>
      <point x="1410" y="1466" type="curve" smooth="yes"/>
      <point x="1283" y="689" type="line" smooth="yes"/>
      <point x="1244" y="448"/>
      <point x="1109" y="320"/>
      <point x="869" y="320" type="curve" smooth="yes"/>
      <point x="628" y="320"/>
      <point x="531" y="448"/>
      <point x="570" y="689" type="curve" smooth="yes"/>
      <point x="787" y="2004" type="line"/>
      <point x="352" y="2004" type="line"/>
      <point x="135" y="689" type="line" smooth="yes"/>
      <point x="57" y="222"/>
      <point x="347" y="-28"/>
    </contour>
  </outline>
</glyph>
<glyph name="Yhook" format="2">
  <advance width="2223"/>
  <unicode hex="01B3"/>
  <note>
!post:RemoveOverlap
</note>
  <outline>
    <contour>
      <point x="1883" y="1514" type="line"/>
      <point x="1933" y="1577" type="line" smooth="yes"/>
      <point x="2034" y="1714"/>
      <point x="2116" y="1742"/>
      <point x="2243" y="1700" type="curve"/>
      <point x="2390" y="2025" type="line"/>
      <point x="2153" y="2122"/>
      <point x="1860" y="2083"/>
      <point x="1635" y="1784" type="curve" smooth="yes"/>
      <point x="1553" y="1671" type="line"/>
    </contour>
    <contour>
      <point x="1118" y="1118" type="line"/>
      <point x="1166" y="1118" type="line"/>
      <point x="1174" y="1166" type="line"/>
      <point x="1126" y="1166" type="line"/>
    </contour>
    <contour>
      <point x="757" y="2048" type="line"/>
      <point x="286" y="2048" type="line"/>
      <point x="874" y="791" type="line"/>
      <point x="741" y="0" type="line"/>
      <point x="1171" y="0" type="line"/>
      <point x="1304" y="791" type="line"/>
      <point x="1883" y="1514" type="line"/>
      <point x="1553" y="1671" type="line"/>
      <point x="1148" y="1146" type="line"/>
    </contour>
  </outline>
</glyph>
<glyph name="yhook" format="2">
  <advance width="1757"/>
  <unicode hex="01B4"/>
  <outline>
    <contour>
      <point x="1541" y="1278" type="line"/>
      <point x="1572" y="1336" type="line" smooth="yes"/>
      <point x="1635" y="1456"/>
      <point x="1683" y="1519"/>
      <point x="1787" y="1544" type="curve" smooth="yes"/>
      <point x="1823" y="1551"/>
      <point x="1860" y="1546"/>
      <point x="1907" y="1535" type="curve"/>
      <point x="1996" y="1865" type="line"/>
      <point x="1826" y="1887"/>
      <point x="1737" y="1899"/>
      <point x="1625" y="1868" type="curve" smooth="yes"/>
      <point x="1437" y="1830"/>
      <point x="1299" y="1676"/>
      <point x="1211" y="1502" type="curve" smooth="yes"/>
      <point x="1156" y="1386" type="line"/>
    </contour>
    <contour>
      <point x="470" y="-42" type="line" smooth="yes"/>
      <point x="410" y="-171"/>
      <point x="320" y="-248"/>
      <point x="133" y="-248" type="curve"/>
      <point x="107" y="-248"/>
      <point x="85" y="-246"/>
      <point x="60" y="-242" type="curve"/>
      <point x="6" y="-573" type="line"/>
      <point x="70" y="-595"/>
      <point x="115" y="-600"/>
      <point x="193" y="-600" type="curve" smooth="yes"/>
      <point x="509" y="-600"/>
      <point x="719" y="-387"/>
      <point x="802" y="-221" type="curve" smooth="yes"/>
      <point x="1541" y="1278" type="line"/>
      <point x="1156" y="1386" type="line"/>
      <point x="798" y="658" type="line"/>
      <point x="641" y="1536" type="line"/>
      <point x="198" y="1536" type="line"/>
      <point x="510" y="41" type="line"/>
    </contour>
  </outline>
</glyph>
<glyph name="Ezh" format="2">
  <advance width="1932"/>
  <unicode hex="01B7"/>
  <outline>
    <contour>
      <point x="2" y="180" type="line"/>
      <point x="-57" y="-254"/>
      <point x="268" y="-557"/>
      <point x="737" y="-557" type="curve" smooth="yes"/>
      <point x="1271" y="-557"/>
      <point x="1673" y="-163"/>
      <point x="1753" y="314" type="curve" smooth="yes"/>
      <point x="1817" y="706"/>
      <point x="1647" y="1080"/>
      <point x="1167" y="1122" type="curve"/>
      <point x="1171" y="1142" type="line"/>
      <point x="1938" y="1736" type="line"/>
      <point x="1987" y="2048" type="line"/>
      <point x="423" y="2048" type="line"/>
      <point x="363" y="1685" type="line"/>
      <point x="1389" y="1685" type="line"/>
      <point x="1387" y="1669" type="line"/>
      <point x="730" y="1160" type="line"/>
      <point x="680" y="846" type="line"/>
      <point x="902" y="846" type="line" smooth="yes"/>
      <point x="1195" y="846"/>
      <point x="1356" y="628"/>
      <point x="1307" y="335" type="curve" smooth="yes"/>
      <point x="1266" y="73"/>
      <point x="1077" y="-191"/>
      <point x="802" y="-191" type="curve" smooth="yes"/>
      <point x="593" y="-191"/>
      <point x="413" y="-42"/>
      <point x="438" y="180" type="curve"/>
    </contour>
  </outline>
</glyph>
<glyph name="ezhtail" format="2">
  <advance width="1621"/>
  <unicode hex="01BA"/>
  <outline>
    <contour>
      <point x="342" y="1488" type="line"/>
      <point x="286" y="1153" type="line"/>
      <point x="862" y="1153" type="line"/>
      <point x="484" y="888" type="line"/>
      <point x="444" y="646" type="line"/>
      <point x="737" y="646" type="line"/>
      <point x="1543" y="1253" type="line"/>
      <point x="1583" y="1488" type="line"/>
    </contour>
    <contour>
      <point x="400" y="-159" type="curve" smooth="yes"/>
      <point x="411" y="-82"/>
      <point x="482" y="-28"/>
      <point x="745" y="23" type="curve" smooth="yes"/>
      <point x="1026" y="78"/>
      <point x="1315" y="199"/>
      <point x="1362" y="478" type="curve" smooth="yes"/>
      <point x="1404" y="726"/>
      <point x="1211" y="936"/>
      <point x="826" y="936" type="curve" smooth="yes"/>
      <point x="644" y="936" type="line"/>
      <point x="596" y="646" type="line"/>
      <point x="778" y="646" type="line" smooth="yes"/>
      <point x="907" y="646"/>
      <point x="979" y="590"/>
      <point x="962" y="498" type="curve" smooth="yes"/>
      <point x="946" y="400"/>
      <point x="860" y="364"/>
      <point x="633" y="322" type="curve" smooth="yes"/>
      <point x="256" y="253"/>
      <point x="39" y="120"/>
      <point x="-2" y="-142" type="curve" smooth="yes"/>
      <point x="-48" y="-406"/>
      <point x="173" y="-600"/>
      <point x="569" y="-600" type="curve" smooth="yes"/>
      <point x="998" y="-600"/>
      <point x="1275" y="-339"/>
      <point x="1315" y="-98" type="curve"/>
      <point x="918" y="-98" type="line"/>
      <point x="884" y="-258"/>
      <point x="739" y="-306"/>
      <point x="610" y="-306" type="curve" smooth="yes"/>
      <point x="471" y="-306"/>
      <point x="384" y="-255"/>
    </contour>
  </outline>
</glyph>
<glyph name="tonefive" format="2">
  <advance width="1844"/>
  <unicode hex="01BD"/>
  <outline>
    <contour>
      <point x="725" y="634" type="line"/>
      <point x="769" y="671"/>
      <point x="844" y="701"/>
      <point x="965" y="701" type="curve" smooth="yes"/>
      <point x="1123" y="701"/>
      <point x="1199" y="624"/>
      <point x="1182" y="510" type="curve" smooth="yes"/>
      <point x="1160" y="391"/>
      <point x="1069" y="315"/>
      <point x="902" y="315" type="curve" smooth="yes"/>
      <point x="751" y="315"/>
      <point x="660" y="363"/>
      <point x="670" y="463" type="curve"/>
      <point x="250" y="444" type="line"/>
      <point x="195" y="118"/>
      <point x="504" y="-24"/>
      <point x="847" y="-24" type="curve" smooth="yes"/>
      <point x="1317" y="-24"/>
      <point x="1547" y="192"/>
      <point x="1595" y="482" type="curve" smooth="yes"/>
      <point x="1644" y="797"/>
      <point x="1473" y="982"/>
      <point x="1127" y="978" type="curve" smooth="yes"/>
      <point x="996" y="977"/>
      <point x="876" y="944"/>
      <point x="808" y="911" type="curve"/>
      <point x="888" y="1158" type="line"/>
      <point x="1602" y="1158" type="line"/>
      <point x="1657" y="1488" type="line"/>
      <point x="600" y="1488" type="line"/>
      <point x="349" y="651" type="line"/>
    </contour>
    <contour>
      <point x="760" y="1488" type="line"/>
      <point x="322" y="1488" type="line"/>
      <point x="268" y="1158" type="line"/>
      <point x="706" y="1158" type="line"/>
    </contour>
  </outline>
</glyph>
<glyph name="glottalstopbarinv" format="2">
  <advance width="1621"/>
  <unicode hex="01BE"/>
  <outline>
    <contour>
      <point x="1002" y="415" type="curve" smooth="yes"/>
      <point x="988" y="321"/>
      <point x="888" y="266"/>
      <point x="744" y="266" type="curve" smooth="yes"/>
      <point x="616" y="266"/>
      <point x="488" y="318"/>
      <point x="505" y="475" type="curve"/>
      <point x="106" y="475" type="line"/>
      <point x="68" y="238"/>
      <point x="256" y="-28"/>
      <point x="689" y="-28" type="curve" smooth="yes"/>
      <point x="1084" y="-28"/>
      <point x="1369" y="166"/>
      <point x="1412" y="430" type="curve" smooth="yes"/>
      <point x="1488" y="880"/>
      <point x="960" y="737"/>
      <point x="1022" y="1125" type="curve" smooth="yes"/>
      <point x="1146" y="1858" type="line"/>
      <point x="723" y="1858" type="line"/>
      <point x="600" y="1129" type="line" smooth="yes"/>
      <point x="513" y="593"/>
      <point x="1040" y="642"/>
    </contour>
    <contour>
      <point x="1343" y="1488" type="line"/>
      <point x="443" y="1488" type="line"/>
      <point x="393" y="1186" type="line"/>
      <point x="1293" y="1186" type="line"/>
    </contour>
  </outline>
</glyph>
<glyph name="wynn" format="2">
  <advance width="1898"/>
  <unicode hex="01BF"/>
  <outline>
    <contour>
      <point x="749" y="1204" type="line"/>
      <point x="768" y="1488" type="line"/>
      <point x="374" y="1488" type="line"/>
      <point x="34" y="-572" type="line"/>
      <point x="457" y="-572" type="line"/>
    </contour>
    <contour>
      <point x="634" y="809" type="line"/>
      <point x="683" y="1046"/>
      <point x="787" y="1180"/>
      <point x="1004" y="1180" type="curve" smooth="yes"/>
      <point x="1218" y="1180"/>
      <point x="1258" y="989"/>
      <point x="1222" y="763" type="curve" smooth="yes"/>
      <point x="1216" y="730" type="line" smooth="yes"/>
      <point x="1148" y="325"/>
      <point x="813" y="108"/>
      <point x="382" y="56" type="curve"/>
      <point x="363" y="-274" type="line"/>
      <point x="1096" y="-106"/>
      <point x="1541" y="149"/>
      <point x="1638" y="730" type="curve" smooth="yes"/>
      <point x="1644" y="763" type="line" smooth="yes"/>
      <point x="1718" y="1213"/>
      <point x="1556" y="1516"/>
      <point x="1170" y="1516" type="curve" smooth="yes"/>
      <point x="789" y="1516"/>
      <point x="579" y="1187"/>
      <point x="453" y="762" type="curve"/>
    </contour>
  </outline>
</glyph>
<glyph name="pipe" format="2">
  <advance width="844"/>
  <unicode hex="01C0"/>
  <outline>
    <contour>
      <point x="751" y="2012" type="line"/>
      <point x="502" y="2012" type="line"/>
      <point x="170" y="0" type="line"/>
      <point x="418" y="0" type="line"/>
    </contour>
  </outline>
</glyph>
<glyph name="Gbar" format="2">
  <advance width="2142"/>
  <unicode hex="01E4"/>
  <outline>
    <contour>
      <point x="2073" y="662" type="line"/>
      <point x="1122" y="662" type="line"/>
      <point x="1097" y="508" type="line"/>
      <point x="2048" y="508" type="line"/>
    </contour>
    <component base="G"/>
  </outline>
</glyph>
<glyph name="uni01F6" format="2">
  <advance width="3162"/>
  <unicode hex="01F6"/>
  <outline>
    <contour>
      <point x="2111" y="-28" type="curve" smooth="yes"/>
      <point x="2569" y="-28"/>
      <point x="2903" y="232"/>
      <point x="2979" y="689" type="curve" smooth="yes"/>
      <point x="3113" y="1495" type="line"/>
      <point x="2680" y="1495" type="line"/>
      <point x="2546" y="689" type="line" smooth="yes"/>
      <point x="2506" y="458"/>
      <point x="2372" y="337"/>
      <point x="2171" y="337" type="curve" smooth="yes"/>
      <point x="1970" y="337"/>
      <point x="1870" y="458"/>
      <point x="1910" y="689" type="curve" smooth="yes"/>
      <point x="2134" y="2048" type="line"/>
      <point x="1702" y="2048" type="line"/>
      <point x="1562" y="1203" type="line"/>
      <point x="683" y="1203" type="line"/>
      <point x="823" y="2048" type="line"/>
      <point x="390" y="2048" type="line"/>
      <point x="50" y="0" type="line"/>
      <point x="483" y="0" type="line"/>
      <point x="623" y="846" type="line"/>
      <point x="1502" y="846" type="line"/>
      <point x="1477" y="689" type="line" smooth="yes"/>
      <point x="1402" y="235"/>
      <point x="1651" y="-28"/>
    </contour>
  </outline>
</glyph>
<glyph name="uni01F7" format="2">
  <advance width="2105"/>
  <unicode hex="01F7"/>
  <outline>
    <contour>
      <point x="871" y="2004" type="line"/>
      <point x="437" y="2004" type="line"/>
      <point x="13" y="-572" type="line"/>
      <point x="447" y="-572" type="line"/>
    </contour>
    <contour>
      <point x="302" y="-258" type="line"/>
      <point x="1228" y="-40"/>
      <point x="1827" y="465"/>
      <point x="1925" y="1076" type="curve" smooth="yes"/>
      <point x="1937" y="1148" type="line" smooth="yes"/>
      <point x="2032" y="1718"/>
      <point x="1743" y="2032"/>
      <point x="1220" y="2032" type="curve" smooth="yes"/>
      <point x="1015" y="2032"/>
      <point x="831" y="1963"/>
      <point x="721" y="1866" type="curve"/>
      <point x="626" y="1309" type="line"/>
      <point x="720" y="1523"/>
      <point x="934" y="1682"/>
      <point x="1165" y="1682" type="curve" smooth="yes"/>
      <point x="1515" y="1682"/>
      <point x="1540" y="1429"/>
      <point x="1494" y="1152" type="curve" smooth="yes"/>
      <point x="1480" y="1076" type="line" smooth="yes"/>
      <point x="1411" y="649"/>
      <point x="1033" y="270"/>
      <point x="359" y="95" type="curve"/>
    </contour>
  </outline>
</glyph>
<glyph name="uni021C" format="2">
  <advance width="1886"/>
  <unicode hex="021C"/>
  <outline>
    <contour>
      <point x="269" y="418" type="line"/>
      <point x="1154" y="627"/>
      <point x="1707" y="915"/>
      <point x="1799" y="1460" type="curve" smooth="yes"/>
      <point x="1859" y="1832"/>
      <point x="1586" y="2030"/>
      <point x="1124" y="2030" type="curve" smooth="yes"/>
      <point x="734" y="2030"/>
      <point x="350" y="1823"/>
      <point x="289" y="1459" type="curve"/>
      <point x="724" y="1459" type="line"/>
      <point x="749" y="1603"/>
      <point x="905" y="1680"/>
      <point x="1066" y="1680" type="curve" smooth="yes"/>
      <point x="1306" y="1680"/>
      <point x="1382" y="1567"/>
      <point x="1357" y="1404" type="curve" smooth="yes"/>
      <point x="1304" y="1090"/>
      <point x="1059" y="950"/>
      <point x="320" y="743" type="curve"/>
    </contour>
    <contour>
      <point x="1032" y="752" type="line"/>
      <point x="1190" y="742"/>
      <point x="1264" y="690"/>
      <point x="1229" y="483" type="curve" smooth="yes"/>
      <point x="1168" y="108"/>
      <point x="796" y="-136"/>
      <point x="157" y="-254" type="curve"/>
      <point x="98" y="-600" type="line"/>
      <point x="919" y="-489"/>
      <point x="1562" y="-142"/>
      <point x="1666" y="474" type="curve" smooth="yes"/>
      <point x="1718" y="796"/>
      <point x="1518" y="992"/>
      <point x="1162" y="1004" type="curve"/>
    </contour>
  </outline>
</glyph>
<glyph name="uni021D" format="2">
  <advance width="1623"/>
  <unicode hex="021D"/>
  <outline>
    <contour>
      <point x="246" y="214" type="line"/>
      <point x="985" y="401"/>
      <point x="1408" y="660"/>
      <point x="1479" y="1080" type="curve" smooth="yes"/>
      <point x="1527" y="1364"/>
      <point x="1300" y="1516"/>
      <point x="911" y="1516" type="curve" smooth="yes"/>
      <point x="572" y="1516"/>
      <point x="265" y="1344"/>
      <point x="219" y="1058" type="curve"/>
      <point x="640" y="1058" type="line"/>
      <point x="655" y="1153"/>
      <point x="752" y="1202"/>
      <point x="882" y="1202" type="curve" smooth="yes"/>
      <point x="1035" y="1202"/>
      <point x="1065" y="1121"/>
      <point x="1050" y="1020" type="curve" smooth="yes"/>
      <point x="1010" y="790"/>
      <point x="738" y="649"/>
      <point x="297" y="516" type="curve"/>
    </contour>
    <contour>
      <point x="804" y="547" type="line"/>
      <point x="904" y="538"/>
      <point x="979" y="451"/>
      <point x="954" y="286" type="curve" smooth="yes"/>
      <point x="906" y="3"/>
      <point x="661" y="-130"/>
      <point x="163" y="-290" type="curve"/>
      <point x="110" y="-600" type="line"/>
      <point x="817" y="-466"/>
      <point x="1295" y="-195"/>
      <point x="1371" y="258" type="curve" smooth="yes"/>
      <point x="1419" y="558"/>
      <point x="1241" y="706"/>
      <point x="920" y="721" type="curve"/>
    </contour>
  </outline>
</glyph>
<glyph name="uni0220" format="2">
  <advance width="1891"/>
  <unicode hex="0220"/>
  <outline>
    <contour>
      <point x="1485" y="-572" type="line"/>
      <point x="1810" y="1414" type="line" smooth="yes"/>
      <point x="1876" y="1808"/>
      <point x="1603" y="2032"/>
      <point x="1216" y="2032" type="curve" smooth="yes"/>
      <point x="924" y="2032"/>
      <point x="673" y="1885"/>
      <point x="504" y="1731" type="curve"/>
      <point x="439" y="1348" type="line"/>
      <point x="664" y="1580"/>
      <point x="889" y="1696"/>
      <point x="1113" y="1696" type="curve" smooth="yes"/>
      <point x="1339" y="1696"/>
      <point x="1415" y="1591"/>
      <point x="1386" y="1414" type="curve" smooth="yes"/>
      <point x="1060" y="-572" type="line"/>
    </contour>
    <contour>
      <point x="815" y="2004" type="line"/>
      <point x="394" y="2004" type="line"/>
      <point x="62" y="0" type="line"/>
      <point x="483" y="0" type="line"/>
    </contour>
  </outline>
</glyph>
<glyph name="uni0221" format="2">
  <advance width="2019"/>
  <unicode hex="0221"/>
  <outline>
    <contour>
      <point x="1115" y="348" type="line"/>
      <point x="1047" y="-67" type="line"/>
      <point x="1001" y="-350"/>
      <point x="1104" y="-576"/>
      <point x="1526" y="-576" type="curve" smooth="yes"/>
      <point x="1857" y="-576"/>
      <point x="2054" y="-438"/>
      <point x="2090" y="-219" type="curve" smooth="yes"/>
      <point x="2129" y="10"/>
      <point x="1964" y="169"/>
      <point x="1637" y="169" type="curve" smooth="yes"/>
      <point x="1440" y="169"/>
      <point x="1265" y="111"/>
      <point x="1092" y="5" type="curve"/>
      <point x="651" y="-310" type="line"/>
      <point x="796" y="-565" type="line"/>
      <point x="1261" y="-233" type="line" smooth="yes"/>
      <point x="1399" y="-140"/>
      <point x="1515" y="-83"/>
      <point x="1598" y="-87" type="curve" smooth="yes"/>
      <point x="1698" y="-89"/>
      <point x="1736" y="-142"/>
      <point x="1726" y="-210" type="curve" smooth="yes"/>
      <point x="1717" y="-275"/>
      <point x="1651" y="-322"/>
      <point x="1577" y="-322" type="curve" smooth="yes"/>
      <point x="1498" y="-322"/>
      <point x="1442" y="-274"/>
      <point x="1458" y="-166" type="curve"/>
      <point x="1541" y="348" type="line"/>
    </contour>
    <component base="d" xOffset="5"/>
  </outline>
</glyph>
<glyph name="uni0222" format="2">
  <advance width="1889"/>
  <unicode hex="0222"/>
  <outline>
    <contour>
      <point x="1016" y="1272" type="line"/>
      <point x="566" y="1272"/>
      <point x="195" y="1069"/>
      <point x="125" y="637" type="curve" smooth="yes"/>
      <point x="52" y="207"/>
      <point x="347" y="-28"/>
      <point x="800" y="-28" type="curve" smooth="yes"/>
      <point x="830" y="-28" type="line" smooth="yes"/>
      <point x="1279" y="-28"/>
      <point x="1650" y="207"/>
      <point x="1722" y="641" type="curve" smooth="yes"/>
      <point x="1792" y="1069"/>
      <point x="1492" y="1272"/>
      <point x="1046" y="1272" type="curve" smooth="yes"/>
    </contour>
    <contour>
      <point x="993" y="962" type="line"/>
      <point x="1211" y="962"/>
      <point x="1311" y="837"/>
      <point x="1280" y="641" type="curve" smooth="yes"/>
      <point x="1247" y="439"/>
      <point x="1104" y="318"/>
      <point x="886" y="318" type="curve" smooth="yes"/>
      <point x="857" y="318" type="line" smooth="yes"/>
      <point x="640" y="318"/>
      <point x="535" y="439"/>
      <point x="567" y="637" type="curve" smooth="yes"/>
      <point x="599" y="842"/>
      <point x="749" y="962"/>
      <point x="963" y="962" type="curve" smooth="yes"/>
    </contour>
    <contour>
      <point x="1015" y="1316" type="line"/>
      <point x="793" y="1316"/>
      <point x="687" y="1374"/>
      <point x="714" y="1525" type="curve" smooth="yes"/>
      <point x="731" y="1632"/>
      <point x="793" y="1671"/>
      <point x="905" y="1696" type="curve"/>
      <point x="960" y="2032" type="line"/>
      <point x="607" y="2030"/>
      <point x="327" y="1871"/>
      <point x="271" y="1525" type="curve" smooth="yes"/>
      <point x="209" y="1155"/>
      <point x="525" y="1009"/>
      <point x="965" y="1009" type="curve" smooth="yes"/>
      <point x="1004" y="1009" type="line" smooth="yes"/>
      <point x="1440" y="1009"/>
      <point x="1811" y="1155"/>
      <point x="1874" y="1525" type="curve" smooth="yes"/>
      <point x="1930" y="1871"/>
      <point x="1703" y="2030"/>
      <point x="1347" y="2032" type="curve"/>
      <point x="1292" y="1696" type="line"/>
      <point x="1397" y="1671"/>
      <point x="1449" y="1632"/>
      <point x="1431" y="1525" type="curve" smooth="yes"/>
      <point x="1405" y="1366"/>
      <point x="1265" y="1316"/>
      <point x="1054" y="1316" type="curve" smooth="yes"/>
    </contour>
  </outline>
</glyph>
<glyph name="uni0223" format="2">
  <advance width="1886"/>
  <unicode hex="0223"/>
  <outline>
    <contour>
      <point x="1009" y="1249" type="line"/>
      <point x="559" y="1249"/>
      <point x="204" y="1062"/>
      <point x="131" y="630" type="curve" smooth="yes"/>
      <point x="59" y="200"/>
      <point x="348" y="-28"/>
      <point x="798" y="-28" type="curve" smooth="yes"/>
      <point x="827" y="-28" type="line" smooth="yes"/>
      <point x="1274" y="-28"/>
      <point x="1637" y="200"/>
      <point x="1709" y="631" type="curve" smooth="yes"/>
      <point x="1782" y="1062"/>
      <point x="1483" y="1249"/>
      <point x="1038" y="1249" type="curve" smooth="yes"/>
    </contour>
    <contour>
      <point x="990" y="950" type="line"/>
      <point x="1214" y="950"/>
      <point x="1318" y="827"/>
      <point x="1286" y="631" type="curve" smooth="yes"/>
      <point x="1254" y="432"/>
      <point x="1106" y="310"/>
      <point x="882" y="310" type="curve" smooth="yes"/>
      <point x="853" y="310" type="line" smooth="yes"/>
      <point x="632" y="310"/>
      <point x="522" y="432"/>
      <point x="554" y="630" type="curve" smooth="yes"/>
      <point x="586" y="827"/>
      <point x="739" y="950"/>
      <point x="960" y="950" type="curve" smooth="yes"/>
    </contour>
    <contour>
      <point x="1047" y="1285" type="curve" smooth="yes"/>
      <point x="1010" y="1285" type="line" smooth="yes"/>
      <point x="794" y="1285"/>
      <point x="674" y="1357"/>
      <point x="709" y="1565" type="curve" smooth="yes"/>
      <point x="733" y="1712"/>
      <point x="817" y="1784"/>
      <point x="922" y="1818" type="curve"/>
      <point x="978" y="2140" type="line"/>
      <point x="626" y="2138"/>
      <point x="349" y="1942"/>
      <point x="286" y="1572" type="curve" smooth="yes"/>
      <point x="216" y="1143"/>
      <point x="523" y="990"/>
      <point x="960" y="990" type="curve" smooth="yes"/>
      <point x="997" y="990" type="line" smooth="yes"/>
      <point x="1436" y="990"/>
      <point x="1794" y="1143"/>
      <point x="1864" y="1572" type="curve" smooth="yes"/>
      <point x="1926" y="1947"/>
      <point x="1711" y="2138"/>
      <point x="1365" y="2140" type="curve"/>
      <point x="1310" y="1818" type="line"/>
      <point x="1409" y="1784"/>
      <point x="1470" y="1712"/>
      <point x="1446" y="1565" type="curve" smooth="yes"/>
      <point x="1412" y="1359"/>
      <point x="1268" y="1285"/>
    </contour>
  </outline>
</glyph>
<glyph name="uni0224" format="2">
  <advance width="1878"/>
  <unicode hex="0224"/>
  <note>
!post:RemoveOverlap
</note>
  <outline>
    <contour>
      <point x="1010" y="357" type="line"/>
      <point x="950" y="0" type="line"/>
      <point x="1065" y="0" type="line" smooth="yes"/>
      <point x="1234" y="0"/>
      <point x="1253" y="-117"/>
      <point x="1230" y="-247" type="curve"/>
      <point x="1213" y="-352" type="line"/>
      <point x="1569" y="-352" type="line"/>
      <point x="1601" y="-170" type="line"/>
      <point x="1653" y="157"/>
      <point x="1485" y="357"/>
      <point x="1125" y="357" type="curve" smooth="yes"/>
    </contour>
    <contour>
      <point x="1010" y="357" type="line"/>
      <point x="622" y="357" type="line"/>
      <point x="1891" y="1791" type="line"/>
      <point x="1934" y="2048" type="line"/>
      <point x="366" y="2048" type="line"/>
      <point x="306" y="1691" type="line"/>
      <point x="1340" y="1691" type="line"/>
      <point x="72" y="257" type="line"/>
      <point x="28" y="0" type="line"/>
      <point x="950" y="0" type="line"/>
    </contour>
  </outline>
</glyph>
<glyph name="zhook" format="2">
  <advance width="1597"/>
  <unicode hex="0225"/>
  <outline>
    <contour>
      <point x="959" y="-373" type="line"/>
      <point x="1313" y="-373" type="line"/>
      <point x="1344" y="-191" type="line"/>
      <point x="1399" y="135"/>
      <point x="1231" y="338"/>
      <point x="868" y="338" type="curve" smooth="yes"/>
      <point x="618" y="338" type="line"/>
      <point x="1510" y="1288" type="line"/>
      <point x="1551" y="1536" type="line"/>
      <point x="310" y="1536" type="line"/>
      <point x="254" y="1198" type="line"/>
      <point x="969" y="1198" type="line"/>
      <point x="75" y="250" type="line"/>
      <point x="34" y="0" type="line"/>
      <point x="813" y="0" type="line" smooth="yes"/>
      <point x="992" y="0"/>
      <point x="998" y="-145"/>
      <point x="976" y="-270" type="curve" smooth="yes"/>
    </contour>
  </outline>
</glyph>
<glyph name="lcurl" format="2">
  <advance width="1187"/>
  <unicode hex="0234"/>
  <outline>
    <contour>
      <point x="84" y="389" type="line"/>
      <point x="16" y="-19" type="line"/>
      <point x="-46" y="-389"/>
      <point x="212" y="-576"/>
      <point x="483" y="-576" type="curve" smooth="yes"/>
      <point x="761" y="-576"/>
      <point x="969" y="-373"/>
      <point x="1005" y="-162" type="curve" smooth="yes"/>
      <point x="1039" y="49"/>
      <point x="901" y="226"/>
      <point x="654" y="226" type="curve" smooth="yes"/>
      <point x="428" y="226"/>
      <point x="99" y="70"/>
      <point x="-153" y="-89" type="curve" smooth="yes"/>
      <point x="-406" y="-277" type="line"/>
      <point x="-235" y="-517" type="line"/>
      <point x="83" y="-280" type="line" smooth="yes"/>
      <point x="276" y="-146"/>
      <point x="408" y="-67"/>
      <point x="562" y="-67" type="curve" smooth="yes"/>
      <point x="633" y="-67"/>
      <point x="668" y="-123"/>
      <point x="660" y="-171" type="curve" smooth="yes"/>
      <point x="652" y="-232"/>
      <point x="597" y="-286"/>
      <point x="538" y="-286" type="curve" smooth="yes"/>
      <point x="444" y="-286"/>
      <point x="407" y="-222"/>
      <point x="424" y="-127" type="curve" smooth="yes"/>
      <point x="430" y="-79"/>
      <point x="508" y="389"/>
      <point x="510" y="389" type="curve"/>
    </contour>
    <contour>
      <point x="784" y="2048" type="line"/>
      <point x="358" y="2048" type="line"/>
      <point x="18" y="0" type="line"/>
      <point x="444" y="0" type="line"/>
    </contour>
  </outline>
</glyph>
<glyph name="ncurl" format="2">
  <advance width="2262"/>
  <unicode hex="0235"/>
  <outline>
    <contour>
      <point x="1056" y="138" type="line"/>
      <point x="1041" y="35" type="line" smooth="yes"/>
      <point x="991" y="-272"/>
      <point x="1186" y="-428"/>
      <point x="1472" y="-428" type="curve" smooth="yes"/>
      <point x="1785" y="-428"/>
      <point x="2006" y="-256"/>
      <point x="2046" y="-14" type="curve" smooth="yes"/>
      <point x="2087" y="227"/>
      <point x="1921" y="396"/>
      <point x="1670" y="396" type="curve" smooth="yes"/>
      <point x="1429" y="396"/>
      <point x="1220" y="380"/>
      <point x="932" y="100" type="curve" smooth="yes"/>
      <point x="669" y="-146" type="line"/>
      <point x="848" y="-335" type="line"/>
      <point x="1126" y="-72" type="line" smooth="yes"/>
      <point x="1283" y="81"/>
      <point x="1500" y="134"/>
      <point x="1597" y="131" type="curve" smooth="yes"/>
      <point x="1670" y="129"/>
      <point x="1720" y="85"/>
      <point x="1706" y="8" type="curve" smooth="yes"/>
      <point x="1693" y="-67"/>
      <point x="1641" y="-118"/>
      <point x="1571" y="-118" type="curve" smooth="yes"/>
      <point x="1498" y="-118"/>
      <point x="1451" y="-63"/>
      <point x="1462" y="11" type="curve" smooth="yes"/>
      <point x="1482" y="138" type="line"/>
    </contour>
    <component base="n"/>
  </outline>
</glyph>
